NotoSerifTamilSlanted-BoldItalic.ufo
<glyph name="exclam" format="2">
  <advance width="441"/>
  <unicode hex="0021"/>
  <outline>
    <contour>
      <point x="166" y="238" type="line"/>
      <point x="251" y="238" type="line"/>
      <point x="434" y="714" type="line"/>
      <point x="217" y="714" type="line"/>
    </contour>
    <contour>
      <point x="185" y="-8" type="curve" smooth="yes"/>
      <point x="234" y="-8"/>
      <point x="287" y="17"/>
      <point x="287" y="92" type="curve" smooth="yes"/>
      <point x="287" y="146"/>
      <point x="247" y="172"/>
      <point x="192" y="172" type="curve" smooth="yes"/>
      <point x="130" y="172"/>
      <point x="90" y="132"/>
      <point x="90" y="72" type="curve" smooth="yes"/>
      <point x="90" y="17"/>
      <point x="129" y="-8"/>
    </contour>
  </outline>
</glyph>
<glyph name="quotedbl" format="2">
  <advance width="548"/>
  <unicode hex="0022"/>
  <outline>
    <contour>
      <point x="132" y="410" type="line"/>
      <point x="213" y="410" type="line"/>
      <point x="352" y="714" type="line"/>
      <point x="159" y="714" type="line"/>
    </contour>
    <contour>
      <point x="373" y="410" type="line"/>
      <point x="454" y="410" type="line"/>
      <point x="592" y="714" type="line"/>
      <point x="400" y="714" type="line"/>
    </contour>
  </outline>
</glyph>
<glyph name="numbersign" format="2">
  <advance width="559"/>
  <unicode hex="0023"/>
  <outline>
    <contour>
      <point x="59" y="0" type="line"/>
      <point x="138" y="0" type="line"/>
      <point x="197" y="198" type="line"/>
      <point x="305" y="198" type="line"/>
      <point x="248" y="0" type="line"/>
      <point x="327" y="0" type="line"/>
      <point x="384" y="198" type="line"/>
      <point x="502" y="198" type="line"/>
      <point x="509" y="274" type="line"/>
      <point x="407" y="274" type="line"/>
      <point x="457" y="444" type="line"/>
      <point x="560" y="444" type="line"/>
      <point x="570" y="522" type="line"/>
      <point x="481" y="522" type="line"/>
      <point x="537" y="714" type="line"/>
      <point x="458" y="714" type="line"/>
      <point x="402" y="522" type="line"/>
      <point x="293" y="522" type="line"/>
      <point x="348" y="714" type="line"/>
      <point x="268" y="714" type="line"/>
      <point x="214" y="522" type="line"/>
      <point x="99" y="522" type="line"/>
      <point x="89" y="444" type="line"/>
      <point x="190" y="444" type="line"/>
      <point x="139" y="274" type="line"/>
      <point x="39" y="274" type="line"/>
      <point x="32" y="198" type="line"/>
      <point x="118" y="198" type="line"/>
    </contour>
    <contour>
      <point x="217" y="274" type="line"/>
      <point x="269" y="444" type="line"/>
      <point x="379" y="444" type="line"/>
      <point x="327" y="274" type="line"/>
    </contour>
  </outline>
</glyph>
<glyph name="percent" format="2">
  <advance width="935"/>
  <unicode hex="0025"/>
  <outline>
    <contour>
      <point x="208" y="0" type="line"/>
      <point x="289" y="0" type="line"/>
      <point x="778" y="714" type="line"/>
      <point x="700" y="714" type="line"/>
    </contour>
    <contour>
      <point x="226" y="279" type="curve" smooth="yes"/>
      <point x="399" y="279"/>
      <point x="475" y="460"/>
      <point x="475" y="583" type="curve" smooth="yes"/>
      <point x="475" y="661"/>
      <point x="428" y="725"/>
      <point x="321" y="725" type="curve" smooth="yes"/>
      <point x="150" y="725"/>
      <point x="76" y="551"/>
      <point x="76" y="416" type="curve" smooth="yes"/>
      <point x="76" y="330"/>
      <point x="135" y="279"/>
    </contour>
    <contour>
      <point x="243" y="338" type="curve" smooth="yes"/>
      <point x="217" y="338"/>
      <point x="206" y="369"/>
      <point x="206" y="413" type="curve" smooth="yes"/>
      <point x="206" y="485"/>
      <point x="246" y="664"/>
      <point x="319" y="664" type="curve" smooth="yes"/>
      <point x="347" y="664"/>
      <point x="356" y="635"/>
      <point x="356" y="590" type="curve" smooth="yes"/>
      <point x="356" y="516"/>
      <point x="316" y="338"/>
    </contour>
    <contour>
      <point x="662" y="-11" type="curve" smooth="yes"/>
      <point x="835" y="-11"/>
      <point x="911" y="169"/>
      <point x="911" y="292" type="curve" smooth="yes"/>
      <point x="911" y="370"/>
      <point x="864" y="434"/>
      <point x="757" y="434" type="curve" smooth="yes"/>
      <point x="586" y="434"/>
      <point x="512" y="260"/>
      <point x="512" y="125" type="curve" smooth="yes"/>
      <point x="512" y="40"/>
      <point x="571" y="-11"/>
    </contour>
    <contour>
      <point x="678" y="47" type="curve" smooth="yes"/>
      <point x="652" y="47"/>
      <point x="641" y="78"/>
      <point x="641" y="122" type="curve" smooth="yes"/>
      <point x="641" y="194"/>
      <point x="681" y="373"/>
      <point x="754" y="373" type="curve" smooth="yes"/>
      <point x="782" y="373"/>
      <point x="791" y="344"/>
      <point x="791" y="300" type="curve" smooth="yes"/>
      <point x="791" y="226"/>
      <point x="751" y="47"/>
    </contour>
  </outline>
</glyph>
<glyph name="quotesingle" format="2">
  <advance width="322"/>
  <unicode hex="0027"/>
  <outline>
    <contour>
      <point x="150" y="410" type="line"/>
      <point x="231" y="410" type="line"/>
      <point x="352" y="714" type="line"/>
      <point x="160" y="714" type="line"/>
    </contour>
  </outline>
</glyph>
<glyph name="parenleft" format="2">
  <advance width="440"/>
  <unicode hex="0028"/>
  <outline>
    <contour>
      <point x="308" y="-147" type="curve"/>
      <point x="323" y="-70" type="line"/>
      <point x="261" y="-24"/>
      <point x="240" y="59"/>
      <point x="240" y="139" type="curve" smooth="yes"/>
      <point x="240" y="275"/>
      <point x="288" y="592"/>
      <point x="490" y="705" type="curve"/>
      <point x="500" y="781" type="line"/>
      <point x="191" y="714"/>
      <point x="42" y="438"/>
      <point x="42" y="186" type="curve" smooth="yes"/>
      <point x="42" y="38"/>
      <point x="120" y="-90"/>
    </contour>
  </outline>
</glyph>
<glyph name="parenright" format="2">
  <advance width="440"/>
  <unicode hex="0029"/>
  <outline>
    <contour>
      <point x="-41" y="-139" type="line"/>
      <point x="269" y="-73"/>
      <point x="417" y="204"/>
      <point x="417" y="455" type="curve" smooth="yes"/>
      <point x="417" y="603"/>
      <point x="339" y="731"/>
      <point x="152" y="788" type="curve"/>
      <point x="137" y="711" type="line"/>
      <point x="198" y="666"/>
      <point x="219" y="582"/>
      <point x="219" y="502" type="curve" smooth="yes"/>
      <point x="219" y="366"/>
      <point x="172" y="49"/>
      <point x="-31" y="-63" type="curve"/>
    </contour>
  </outline>
</glyph>
<glyph name="asterisk" format="2">
  <advance width="628"/>
  <unicode hex="002A"/>
  <outline>
    <contour>
      <point x="398" y="347" type="line"/>
      <point x="392" y="517" type="line"/>
      <point x="512" y="377" type="line"/>
      <point x="588" y="478" type="line"/>
      <point x="452" y="542" type="line"/>
      <point x="600" y="543" type="line"/>
      <point x="573" y="667" type="line"/>
      <point x="408" y="588" type="line"/>
      <point x="483" y="738" type="line"/>
      <point x="355" y="765" type="line"/>
      <point x="357" y="595" type="line"/>
      <point x="239" y="740" type="line"/>
      <point x="164" y="635" type="line"/>
      <point x="301" y="574" type="line"/>
      <point x="150" y="570" type="line"/>
      <point x="178" y="448" type="line"/>
      <point x="343" y="530" type="line"/>
      <point x="271" y="374" type="line"/>
    </contour>
  </outline>
</glyph>
<glyph name="plus" format="2">
  <advance width="569"/>
  <unicode hex="002B"/>
  <outline>
    <contour>
      <point x="244" y="135" type="line"/>
      <point x="324" y="135" type="line"/>
      <point x="324" y="318" type="line"/>
      <point x="509" y="318" type="line"/>
      <point x="509" y="397" type="line"/>
      <point x="324" y="397" type="line"/>
      <point x="324" y="580" type="line"/>
      <point x="244" y="580" type="line"/>
      <point x="244" y="397" type="line"/>
      <point x="60" y="397" type="line"/>
      <point x="60" y="318" type="line"/>
      <point x="244" y="318" type="line"/>
    </contour>
  </outline>
</glyph>
<glyph name="comma" format="2">
  <advance width="344"/>
  <unicode hex="002C"/>
  <outline>
    <contour>
      <point x="-7" y="-155" type="line"/>
      <point x="155" y="-124"/>
      <point x="241" y="-36"/>
      <point x="241" y="74" type="curve" smooth="yes"/>
      <point x="241" y="136"/>
      <point x="200" y="171"/>
      <point x="148" y="171" type="curve" smooth="yes"/>
      <point x="103" y="171"/>
      <point x="63" y="141"/>
      <point x="63" y="95" type="curve" smooth="yes"/>
      <point x="63" y="33"/>
      <point x="113" y="35"/>
      <point x="113" y="-11" type="curve" smooth="yes"/>
      <point x="113" y="-50"/>
      <point x="78" y="-77"/>
      <point x="9" y="-94" type="curve"/>
    </contour>
  </outline>
</glyph>
<glyph name="hyphen" format="2">
  <advance width="310"/>
  <unicode hex="002D"/>
  <outline>
    <contour>
      <point x="7" y="209" type="line"/>
      <point x="267" y="209" type="line"/>
      <point x="295" y="336" type="line"/>
      <point x="35" y="336" type="line"/>
    </contour>
  </outline>
</glyph>
<glyph name="period" format="2">
  <advance width="344"/>
  <unicode hex="002E"/>
  <outline>
    <contour>
      <point x="135" y="-8" type="curve" smooth="yes"/>
      <point x="184" y="-8"/>
      <point x="237" y="17"/>
      <point x="237" y="92" type="curve" smooth="yes"/>
      <point x="237" y="146"/>
      <point x="197" y="172"/>
      <point x="142" y="172" type="curve" smooth="yes"/>
      <point x="80" y="172"/>
      <point x="40" y="132"/>
      <point x="40" y="72" type="curve" smooth="yes"/>
      <point x="40" y="17"/>
      <point x="79" y="-8"/>
    </contour>
  </outline>
</glyph>
<glyph name="one" format="2">
  <advance width="569"/>
  <unicode hex="0031"/>
  <outline>
    <contour>
      <point x="46" y="0" type="line"/>
      <point x="489" y="0" type="line"/>
      <point x="502" y="61" type="line"/>
      <point x="456" y="61" type="line" smooth="yes"/>
      <point x="413" y="61"/>
      <point x="379" y="64"/>
      <point x="379" y="89" type="curve" smooth="yes"/>
      <point x="379" y="98"/>
      <point x="385" y="121"/>
      <point x="387" y="129" type="curve" smooth="yes"/>
      <point x="512" y="718" type="line"/>
      <point x="365" y="718" type="line"/>
      <point x="284" y="666" type="line" smooth="yes"/>
      <point x="208" y="617"/>
      <point x="155" y="601"/>
      <point x="109" y="589" type="curve"/>
      <point x="109" y="530"/>
      <point x="135" y="500"/>
      <point x="163" y="500" type="curve" smooth="yes"/>
      <point x="206" y="500"/>
      <point x="244" y="539"/>
      <point x="304" y="604" type="curve"/>
      <point x="308" y="604" type="line"/>
      <point x="296" y="563"/>
      <point x="287" y="523"/>
      <point x="278" y="482" type="curve" smooth="yes"/>
      <point x="202" y="121" type="line" smooth="yes"/>
      <point x="194" y="84"/>
      <point x="171" y="61"/>
      <point x="123" y="61" type="curve" smooth="yes"/>
      <point x="59" y="61" type="line"/>
    </contour>
  </outline>
</glyph>
<glyph name="two" format="2">
  <advance width="569"/>
  <unicode hex="0032"/>
  <outline>
    <contour>
      <point x="-13" y="0" type="line"/>
      <point x="490" y="0" type="line"/>
      <point x="546" y="239" type="line"/>
      <point x="474" y="239" type="line"/>
      <point x="468" y="219" type="line" smooth="yes"/>
      <point x="454" y="174"/>
      <point x="426" y="132"/>
      <point x="359" y="132" type="curve" smooth="yes"/>
      <point x="126" y="132" type="line"/>
      <point x="291" y="250" type="line" smooth="yes"/>
      <point x="529" y="420"/>
      <point x="599" y="484"/>
      <point x="599" y="590" type="curve" smooth="yes"/>
      <point x="599" y="673"/>
      <point x="515" y="724"/>
      <point x="370" y="724" type="curve" smooth="yes"/>
      <point x="210" y="724"/>
      <point x="124" y="659"/>
      <point x="124" y="573" type="curve" smooth="yes"/>
      <point x="124" y="504"/>
      <point x="187" y="471"/>
      <point x="271" y="471" type="curve"/>
      <point x="272" y="577"/>
      <point x="305" y="653"/>
      <point x="356" y="653" type="curve" smooth="yes"/>
      <point x="391" y="653"/>
      <point x="410" y="616"/>
      <point x="410" y="564" type="curve" smooth="yes"/>
      <point x="410" y="482"/>
      <point x="378" y="415"/>
      <point x="240" y="305" type="curve" smooth="yes"/>
      <point x="8" y="119" type="line"/>
    </contour>
  </outline>
</glyph>
<glyph name="four" format="2">
  <advance width="569"/>
  <unicode hex="0034"/>
  <outline>
    <contour>
      <point x="128" y="0" type="line"/>
      <point x="497" y="0" type="line"/>
      <point x="510" y="61" type="line"/>
      <point x="495" y="61" type="line" smooth="yes"/>
      <point x="457" y="61"/>
      <point x="434" y="67"/>
      <point x="434" y="101" type="curve" smooth="yes"/>
      <point x="434" y="107"/>
      <point x="436" y="126"/>
      <point x="438" y="134" type="curve" smooth="yes"/>
      <point x="562" y="714" type="line"/>
      <point x="383" y="714" type="line"/>
      <point x="27" y="256" type="line"/>
      <point x="9" y="179" type="line"/>
      <point x="537" y="179" type="line"/>
      <point x="552" y="252" type="line"/>
      <point x="67" y="252" type="line"/>
      <point x="84" y="231" type="line"/>
      <point x="240" y="433" type="line" smooth="yes"/>
      <point x="274" y="477"/>
      <point x="329" y="556"/>
      <point x="363" y="609" type="curve"/>
      <point x="344" y="547"/>
      <point x="327" y="467"/>
      <point x="316" y="418" type="curve" smooth="yes"/>
      <point x="254" y="133" type="line" smooth="yes"/>
      <point x="238" y="61"/>
      <point x="192" y="61"/>
      <point x="158" y="61" type="curve" smooth="yes"/>
      <point x="140" y="61" type="line"/>
    </contour>
  </outline>
</glyph>
<glyph name="six" format="2">
  <advance width="569"/>
  <unicode hex="0036"/>
  <outline>
    <contour>
      <point x="269" y="-10" type="curve" smooth="yes"/>
      <point x="463" y="-10"/>
      <point x="556" y="122"/>
      <point x="556" y="262" type="curve" smooth="yes"/>
      <point x="556" y="359"/>
      <point x="503" y="441"/>
      <point x="387" y="441" type="curve" smooth="yes"/>
      <point x="316" y="441"/>
      <point x="272" y="417"/>
      <point x="242" y="392" type="curve"/>
      <point x="278" y="573"/>
      <point x="335" y="657"/>
      <point x="410" y="657" type="curve" smooth="yes"/>
      <point x="457" y="657"/>
      <point x="463" y="588"/>
      <point x="463" y="519" type="curve"/>
      <point x="559" y="519"/>
      <point x="616" y="554"/>
      <point x="616" y="611" type="curve" smooth="yes"/>
      <point x="616" y="672"/>
      <point x="555" y="724"/>
      <point x="440" y="724" type="curve" smooth="yes"/>
      <point x="195" y="724"/>
      <point x="46" y="481"/>
      <point x="46" y="232" type="curve" smooth="yes"/>
      <point x="46" y="70"/>
      <point x="146" y="-10"/>
    </contour>
    <contour>
      <point x="289" y="62" type="curve" smooth="yes"/>
      <point x="245" y="62"/>
      <point x="217" y="105"/>
      <point x="217" y="204" type="curve" smooth="yes"/>
      <point x="217" y="238"/>
      <point x="220" y="277"/>
      <point x="228" y="325" type="curve"/>
      <point x="250" y="348"/>
      <point x="286" y="373"/>
      <point x="322" y="373" type="curve" smooth="yes"/>
      <point x="364" y="373"/>
      <point x="384" y="330"/>
      <point x="384" y="253" type="curve" smooth="yes"/>
      <point x="384" y="145"/>
      <point x="346" y="62"/>
    </contour>
  </outline>
</glyph>
<glyph name="seven" format="2">
  <advance width="569"/>
  <unicode hex="0037"/>
  <outline>
    <contour>
      <point x="106" y="0" type="line"/>
      <point x="202" y="0" type="line"/>
      <point x="623" y="633" type="line"/>
      <point x="637" y="714" type="line"/>
      <point x="145" y="714" type="line"/>
      <point x="96" y="483" type="line"/>
      <point x="171" y="483" type="line"/>
      <point x="185" y="533" type="line" smooth="yes"/>
      <point x="194" y="566"/>
      <point x="218" y="584"/>
      <point x="254" y="584" type="curve" smooth="yes"/>
      <point x="509" y="584" type="line"/>
    </contour>
  </outline>
</glyph>
<glyph name="nine" format="2">
  <advance width="569"/>
  <unicode hex="0039"/>
  <outline>
    <contour>
      <point x="186" y="-10" type="curve" smooth="yes"/>
      <point x="473" y="-10"/>
      <point x="585" y="326"/>
      <point x="585" y="527" type="curve" smooth="yes"/>
      <point x="585" y="653"/>
      <point x="505" y="724"/>
      <point x="379" y="724" type="curve" smooth="yes"/>
      <point x="216" y="724"/>
      <point x="77" y="608"/>
      <point x="77" y="441" type="curve" smooth="yes"/>
      <point x="77" y="344"/>
      <point x="139" y="275"/>
      <point x="249" y="275" type="curve" smooth="yes"/>
      <point x="316" y="275"/>
      <point x="361" y="308"/>
      <point x="394" y="343" type="curve"/>
      <point x="345" y="162"/>
      <point x="293" y="63"/>
      <point x="199" y="63" type="curve" smooth="yes"/>
      <point x="141" y="63"/>
      <point x="118" y="125"/>
      <point x="117" y="180" type="curve"/>
      <point x="59" y="180"/>
      <point x="25" y="152"/>
      <point x="25" y="103" type="curve" smooth="yes"/>
      <point x="25" y="38"/>
      <point x="80" y="-10"/>
    </contour>
    <contour>
      <point x="307" y="360" type="curve" smooth="yes"/>
      <point x="270" y="360"/>
      <point x="248" y="391"/>
      <point x="248" y="452" type="curve" smooth="yes"/>
      <point x="248" y="548"/>
      <point x="292" y="648"/>
      <point x="353" y="648" type="curve" smooth="yes"/>
      <point x="388" y="648"/>
      <point x="413" y="614"/>
      <point x="413" y="533" type="curve" smooth="yes"/>
      <point x="413" y="507"/>
      <point x="407" y="462"/>
      <point x="399" y="432" type="curve"/>
      <point x="380" y="397"/>
      <point x="350" y="360"/>
    </contour>
  </outline>
</glyph>
<glyph name="colon" format="2">
  <advance width="411"/>
  <unicode hex="003A"/>
  <outline>
    <contour>
      <point x="234" y="361" type="curve" smooth="yes"/>
      <point x="283" y="361"/>
      <point x="336" y="387"/>
      <point x="336" y="461" type="curve" smooth="yes"/>
      <point x="336" y="516"/>
      <point x="296" y="541"/>
      <point x="241" y="541" type="curve" smooth="yes"/>
      <point x="179" y="541"/>
      <point x="139" y="501"/>
      <point x="139" y="441" type="curve" smooth="yes"/>
      <point x="139" y="387"/>
      <point x="178" y="361"/>
    </contour>
    <contour>
      <point x="148" y="-8" type="curve" smooth="yes"/>
      <point x="197" y="-8"/>
      <point x="250" y="17"/>
      <point x="250" y="92" type="curve" smooth="yes"/>
      <point x="250" y="146"/>
      <point x="210" y="172"/>
      <point x="155" y="172" type="curve" smooth="yes"/>
      <point x="93" y="172"/>
      <point x="53" y="132"/>
      <point x="53" y="72" type="curve" smooth="yes"/>
      <point x="53" y="17"/>
      <point x="92" y="-8"/>
    </contour>
  </outline>
</glyph>
<glyph name="semicolon" format="2">
  <advance width="411"/>
  <unicode hex="003B"/>
  <outline>
    <contour>
      <point x="-13" y="-155" type="line"/>
      <point x="149" y="-124"/>
      <point x="235" y="-36"/>
      <point x="235" y="74" type="curve" smooth="yes"/>
      <point x="235" y="136"/>
      <point x="194" y="171"/>
      <point x="142" y="171" type="curve" smooth="yes"/>
      <point x="97" y="171"/>
      <point x="57" y="141"/>
      <point x="57" y="95" type="curve" smooth="yes"/>
      <point x="57" y="33"/>
      <point x="106" y="35"/>
      <point x="106" y="-11" type="curve" smooth="yes"/>
      <point x="106" y="-50"/>
      <point x="71" y="-77"/>
      <point x="3" y="-94" type="curve"/>
    </contour>
    <contour>
      <point x="234" y="361" type="curve" smooth="yes"/>
      <point x="283" y="361"/>
      <point x="336" y="387"/>
      <point x="336" y="461" type="curve" smooth="yes"/>
      <point x="336" y="516"/>
      <point x="296" y="541"/>
      <point x="241" y="541" type="curve" smooth="yes"/>
      <point x="179" y="541"/>
      <point x="139" y="501"/>
      <point x="139" y="441" type="curve" smooth="yes"/>
      <point x="139" y="387"/>
      <point x="178" y="361"/>
    </contour>
  </outline>
</glyph>
<glyph name="equal" format="2">
  <advance width="569"/>
  <unicode hex="003D"/>
  <outline>
    <contour>
      <point x="57" y="424" type="line"/>
      <point x="513" y="424" type="line"/>
      <point x="513" y="502" type="line"/>
      <point x="57" y="502" type="line"/>
    </contour>
    <contour>
      <point x="57" y="212" type="line"/>
      <point x="513" y="212" type="line"/>
      <point x="513" y="290" type="line"/>
      <point x="57" y="290" type="line"/>
    </contour>
  </outline>
</glyph>
<glyph name="question" format="2">
  <advance width="561"/>
  <unicode hex="003F"/>
  <outline>
    <contour>
      <point x="195" y="238" type="line"/>
      <point x="281" y="238" type="line"/>
      <point x="316" y="317" type="line"/>
      <point x="460" y="368"/>
      <point x="567" y="442"/>
      <point x="567" y="558" type="curve" smooth="yes"/>
      <point x="567" y="673"/>
      <point x="477" y="724"/>
      <point x="331" y="724" type="curve" smooth="yes"/>
      <point x="178" y="724"/>
      <point x="79" y="669"/>
      <point x="79" y="595" type="curve" smooth="yes"/>
      <point x="79" y="535"/>
      <point x="132" y="506"/>
      <point x="240" y="506" type="curve"/>
      <point x="246" y="582"/>
      <point x="267" y="655"/>
      <point x="315" y="655" type="curve" smooth="yes"/>
      <point x="345" y="655"/>
      <point x="369" y="619"/>
      <point x="369" y="556" type="curve" smooth="yes"/>
      <point x="369" y="444"/>
      <point x="294" y="396"/>
      <point x="179" y="354" type="curve"/>
    </contour>
    <contour>
      <point x="214" y="-8" type="curve" smooth="yes"/>
      <point x="263" y="-8"/>
      <point x="316" y="17"/>
      <point x="316" y="92" type="curve" smooth="yes"/>
      <point x="316" y="146"/>
      <point x="276" y="172"/>
      <point x="221" y="172" type="curve" smooth="yes"/>
      <point x="159" y="172"/>
      <point x="119" y="132"/>
      <point x="119" y="72" type="curve" smooth="yes"/>
      <point x="119" y="17"/>
      <point x="158" y="-8"/>
    </contour>
  </outline>
</glyph>
<glyph name="bracketleft" format="2">
  <advance width="454"/>
  <unicode hex="005B"/>
  <outline>
    <contour>
      <point x="33" y="-128" type="line"/>
      <point x="350" y="-128" type="line"/>
      <point x="362" y="-67" type="line"/>
      <point x="319" y="-67" type="line" smooth="yes"/>
      <point x="284" y="-67"/>
      <point x="252" y="-61"/>
      <point x="252" y="-15" type="curve" smooth="yes"/>
      <point x="252" y="-7"/>
      <point x="252" y="-3"/>
      <point x="254" y="8" type="curve" smooth="yes"/>
      <point x="385" y="627" type="line" smooth="yes"/>
      <point x="398" y="690"/>
      <point x="440" y="699"/>
      <point x="483" y="699" type="curve" smooth="yes"/>
      <point x="526" y="699" type="line"/>
      <point x="539" y="760" type="line"/>
      <point x="222" y="760" type="line"/>
    </contour>
  </outline>
</glyph>
<glyph name="backslash" format="2">
  <advance width="288"/>
  <unicode hex="005C"/>
  <outline>
    <contour>
      <point x="167" y="-121" type="line"/>
      <point x="245" y="-121" type="line"/>
      <point x="183" y="760" type="line"/>
      <point x="104" y="760" type="line"/>
    </contour>
  </outline>
</glyph>
<glyph name="asciicircum" format="2">
  <advance width="569"/>
  <unicode hex="005E"/>
  <outline>
    <contour>
      <point x="37" y="239" type="line"/>
      <point x="123" y="239" type="line"/>
      <point x="283" y="592" type="line"/>
      <point x="444" y="239" type="line"/>
      <point x="530" y="239" type="line"/>
      <point x="308" y="714" type="line"/>
      <point x="259" y="714" type="line"/>
    </contour>
  </outline>
</glyph>
<glyph name="braceleft" format="2">
  <advance width="452"/>
  <unicode hex="007B"/>
  <outline>
    <contour>
      <point x="243" y="-123" type="curve" smooth="yes"/>
      <point x="359" y="-123" type="line"/>
      <point x="373" y="-62" type="line"/>
      <point x="328" y="-62" type="line" smooth="yes"/>
      <point x="290" y="-62"/>
      <point x="278" y="-46"/>
      <point x="278" y="-17" type="curve" smooth="yes"/>
      <point x="278" y="-3"/>
      <point x="279" y="13"/>
      <point x="283" y="30" type="curve" smooth="yes"/>
      <point x="320" y="201" type="line" smooth="yes"/>
      <point x="322" y="210"/>
      <point x="323" y="218"/>
      <point x="323" y="226" type="curve" smooth="yes"/>
      <point x="323" y="268"/>
      <point x="296" y="295"/>
      <point x="235" y="316" type="curve"/>
      <point x="239" y="327" type="line"/>
      <point x="321" y="348"/>
      <point x="359" y="384"/>
      <point x="371" y="440" type="curve" smooth="yes"/>
      <point x="408" y="609" type="line" smooth="yes"/>
      <point x="421" y="668"/>
      <point x="433" y="700"/>
      <point x="488" y="700" type="curve" smooth="yes"/>
      <point x="534" y="700" type="line"/>
      <point x="547" y="760" type="line"/>
      <point x="430" y="760" type="line" smooth="yes"/>
      <point x="301" y="760"/>
      <point x="230" y="721"/>
      <point x="208" y="613" type="curve" smooth="yes"/>
      <point x="173" y="441" type="line" smooth="yes"/>
      <point x="159" y="371"/>
      <point x="106" y="358"/>
      <point x="40" y="357" type="curve"/>
      <point x="24" y="282" type="line"/>
      <point x="80" y="280"/>
      <point x="123" y="272"/>
      <point x="123" y="220" type="curve" smooth="yes"/>
      <point x="123" y="214"/>
      <point x="123" y="205"/>
      <point x="121" y="197" type="curve" smooth="yes"/>
      <point x="96" y="83" type="line" smooth="yes"/>
      <point x="82" y="17"/>
      <point x="82" y="3"/>
      <point x="82" y="-8" type="curve" smooth="yes"/>
      <point x="82" y="-78"/>
      <point x="135" y="-123"/>
    </contour>
  </outline>
</glyph>
<glyph name="bar" format="2">
  <advance width="569"/>
  <unicode hex="007C"/>
  <outline>
    <contour>
      <point x="244" y="-240" type="line"/>
      <point x="325" y="-240" type="line"/>
      <point x="325" y="760" type="line"/>
      <point x="244" y="760" type="line"/>
    </contour>
  </outline>
</glyph>
<glyph name="asciitilde" format="2">
  <advance width="569"/>
  <unicode hex="007E"/>
  <outline>
    <contour>
      <point x="35" y="257" type="curve"/>
      <point x="118" y="257" type="line"/>
      <point x="118" y="343"/>
      <point x="139" y="373"/>
      <point x="172" y="373" type="curve" smooth="yes"/>
      <point x="199" y="373"/>
      <point x="213" y="357"/>
      <point x="255" y="323" type="curve" smooth="yes"/>
      <point x="315" y="274"/>
      <point x="343" y="257"/>
      <point x="400" y="257" type="curve" smooth="yes"/>
      <point x="503" y="257"/>
      <point x="530" y="323"/>
      <point x="533" y="456" type="curve"/>
      <point x="448" y="456" type="line"/>
      <point x="448" y="371"/>
      <point x="434" y="340"/>
      <point x="402" y="340" type="curve" smooth="yes"/>
      <point x="377" y="340"/>
      <point x="357" y="355"/>
      <point x="314" y="389" type="curve" smooth="yes"/>
      <point x="246" y="443"/>
      <point x="227" y="456"/>
      <point x="179" y="456" type="curve" smooth="yes"/>
      <point x="72" y="456"/>
      <point x="35" y="379"/>
    </contour>
  </outline>
</glyph>
<glyph name="twosuperior" format="2">
  <advance width="401"/>
  <unicode hex="00B2"/>
  <outline>
    <contour>
      <point x="59" y="386" type="line"/>
      <point x="393" y="386" type="line"/>
      <point x="421" y="541" type="line"/>
      <point x="379" y="541" type="line"/>
      <point x="371" y="520" type="line" smooth="yes"/>
      <point x="363" y="498"/>
      <point x="349" y="479"/>
      <point x="318" y="479" type="curve" smooth="yes"/>
      <point x="164" y="479" type="line"/>
      <point x="293" y="566" type="line" smooth="yes"/>
      <point x="408" y="644"/>
      <point x="448" y="684"/>
      <point x="448" y="738" type="curve" smooth="yes"/>
      <point x="448" y="789"/>
      <point x="394" y="824"/>
      <point x="308" y="824" type="curve" smooth="yes"/>
      <point x="210" y="824"/>
      <point x="149" y="784"/>
      <point x="149" y="727" type="curve" smooth="yes"/>
      <point x="149" y="695"/>
      <point x="182" y="673"/>
      <point x="234" y="673" type="curve"/>
      <point x="239" y="727"/>
      <point x="260" y="775"/>
      <point x="291" y="775" type="curve" smooth="yes"/>
      <point x="317" y="775"/>
      <point x="327" y="753"/>
      <point x="327" y="729" type="curve" smooth="yes"/>
      <point x="327" y="680"/>
      <point x="302" y="634"/>
      <point x="222" y="582" type="curve" smooth="yes"/>
      <point x="80" y="489" type="line"/>
    </contour>
  </outline>
</glyph>
<glyph name="threesuperior" format="2">
  <advance width="401"/>
  <unicode hex="00B3"/>
  <outline>
    <contour>
      <point x="223" y="380" type="curve" smooth="yes"/>
      <point x="339" y="380"/>
      <point x="427" y="428"/>
      <point x="427" y="518" type="curve" smooth="yes"/>
      <point x="427" y="573"/>
      <point x="387" y="603"/>
      <point x="326" y="610" type="curve"/>
      <point x="327" y="615" type="line"/>
      <point x="400" y="630"/>
      <point x="452" y="663"/>
      <point x="452" y="733" type="curve" smooth="yes"/>
      <point x="452" y="783"/>
      <point x="407" y="824"/>
      <point x="310" y="824" type="curve" smooth="yes"/>
      <point x="210" y="824"/>
      <point x="150" y="784"/>
      <point x="150" y="737" type="curve" smooth="yes"/>
      <point x="150" y="705"/>
      <point x="186" y="688"/>
      <point x="242" y="688" type="curve"/>
      <point x="247" y="734"/>
      <point x="264" y="775"/>
      <point x="302" y="775" type="curve" smooth="yes"/>
      <point x="323" y="775"/>
      <point x="334" y="757"/>
      <point x="334" y="732" type="curve" smooth="yes"/>
      <point x="334" y="667"/>
      <point x="288" y="630"/>
      <point x="233" y="630" type="curve" smooth="yes"/>
      <point x="198" y="630" type="line"/>
      <point x="190" y="579" type="line"/>
      <point x="223" y="579" type="line" smooth="yes"/>
      <point x="286" y="579"/>
      <point x="314" y="549"/>
      <point x="314" y="514" type="curve" smooth="yes"/>
      <point x="314" y="459"/>
      <point x="277" y="437"/>
      <point x="233" y="437" type="curve" smooth="yes"/>
      <point x="172" y="437"/>
      <point x="151" y="486"/>
      <point x="151" y="523" type="curve"/>
      <point x="101" y="523"/>
      <point x="64" y="500"/>
      <point x="64" y="464" type="curve" smooth="yes"/>
      <point x="64" y="412"/>
      <point x="116" y="380"/>
    </contour>
  </outline>
</glyph>
<glyph name="divide" format="2">
  <advance width="569"/>
  <unicode hex="00F7"/>
  <outline>
    <contour>
      <point x="60" y="318" type="line"/>
      <point x="509" y="318" type="line"/>
      <point x="509" y="397" type="line"/>
      <point x="60" y="397" type="line"/>
    </contour>
    <contour>
      <point x="285" y="93" type="curve" smooth="yes"/>
      <point x="318" y="93"/>
      <point x="344" y="110"/>
      <point x="344" y="158" type="curve" smooth="yes"/>
      <point x="344" y="207"/>
      <point x="318" y="223"/>
      <point x="285" y="223" type="curve" smooth="yes"/>
      <point x="250" y="223"/>
      <point x="225" y="207"/>
      <point x="225" y="158" type="curve" smooth="yes"/>
      <point x="225" y="110"/>
      <point x="250" y="93"/>
    </contour>
    <contour>
      <point x="285" y="492" type="curve" smooth="yes"/>
      <point x="318" y="492"/>
      <point x="344" y="509"/>
      <point x="344" y="557" type="curve" smooth="yes"/>
      <point x="344" y="606"/>
      <point x="318" y="622"/>
      <point x="285" y="622" type="curve" smooth="yes"/>
      <point x="250" y="622"/>
      <point x="225" y="606"/>
      <point x="225" y="557" type="curve" smooth="yes"/>
      <point x="225" y="509"/>
      <point x="250" y="492"/>
    </contour>
  </outline>
</glyph>
<glyph name="udatta-deva" format="2">
  <unicode hex="0951"/>
  <anchor x="65" y="584" name="_vedic"/>
  <outline>
    <contour>
      <point x="102" y="970" type="line"/>
      <point x="192" y="970" type="line"/>
      <point x="237" y="1178" type="line"/>
      <point x="147" y="1178" type="line"/>
    </contour>
  </outline>
</glyph>
<glyph name="anudatta-deva" format="2">
  <unicode hex="0952"/>
  <anchor x="-59" y="0" name="_bottom"/>
  <outline>
    <contour>
      <point x="-378" y="-635" type="line"/>
      <point x="-10" y="-635" type="line"/>
      <point x="12" y="-536" type="line"/>
      <point x="-357" y="-536" type="line"/>
    </contour>
  </outline>
</glyph>
<glyph name="danda-deva" format="2">
  <advance width="379"/>
  <unicode hex="0964"/>
  <outline>
    <contour>
      <point x="20" y="0" type="line"/>
      <point x="235" y="0" type="line"/>
      <point x="359" y="584" type="line"/>
      <point x="144" y="584" type="line"/>
    </contour>
  </outline>
</glyph>
<glyph name="dbldanda-deva" format="2">
  <advance width="715"/>
  <unicode hex="0965"/>
  <outline>
    <contour>
      <point x="356" y="0" type="line"/>
      <point x="571" y="0" type="line"/>
      <point x="695" y="584" type="line"/>
      <point x="480" y="584" type="line"/>
    </contour>
    <contour>
      <point x="20" y="0" type="line"/>
      <point x="235" y="0" type="line"/>
      <point x="359" y="584" type="line"/>
      <point x="144" y="584" type="line"/>
    </contour>
  </outline>
</glyph>
<glyph name="anusvara-tamil" format="2">
  <unicode hex="0B82"/>
  <note>
uni0B82
</note>
  <anchor x="65" y="584" name="_top"/>
  <outline>
    <contour>
      <point x="105" y="628" type="curve" smooth="yes"/>
      <point x="190" y="628"/>
      <point x="259" y="695"/>
      <point x="259" y="783" type="curve" smooth="yes"/>
      <point x="259" y="872"/>
      <point x="190" y="938"/>
      <point x="105" y="938" type="curve" smooth="yes"/>
      <point x="20" y="938"/>
      <point x="-49" y="872"/>
      <point x="-49" y="783" type="curve" smooth="yes"/>
      <point x="-49" y="695"/>
      <point x="20" y="628"/>
    </contour>
    <contour>
      <point x="105" y="717" type="curve" smooth="yes"/>
      <point x="71" y="717"/>
      <point x="41" y="746"/>
      <point x="41" y="783" type="curve" smooth="yes"/>
      <point x="41" y="819"/>
      <point x="71" y="848"/>
      <point x="105" y="848" type="curve" smooth="yes"/>
      <point x="139" y="848"/>
      <point x="169" y="819"/>
      <point x="169" y="783" type="curve" smooth="yes"/>
      <point x="169" y="746"/>
      <point x="139" y="717"/>
    </contour>
  </outline>
</glyph>
<glyph name="visarga-tamil" format="2">
  <advance width="952"/>
  <unicode hex="0B83"/>
  <note>
uni0B83
</note>
  <outline>
    <contour>
      <point x="189" y="-5" type="curve" smooth="yes"/>
      <point x="312" y="-5"/>
      <point x="410" y="73"/>
      <point x="410" y="212" type="curve" smooth="yes"/>
      <point x="410" y="320"/>
      <point x="338" y="380"/>
      <point x="230" y="380" type="curve" smooth="yes"/>
      <point x="104" y="380"/>
      <point x="21" y="282"/>
      <point x="21" y="169" type="curve" smooth="yes"/>
      <point x="21" y="75"/>
      <point x="78" y="-5"/>
    </contour>
    <contour>
      <point x="167" y="80" type="curve" smooth="yes"/>
      <point x="120" y="80"/>
      <point x="97" y="117"/>
      <point x="97" y="176" type="curve" smooth="yes"/>
      <point x="97" y="235"/>
      <point x="137" y="294"/>
      <point x="195" y="294" type="curve" smooth="yes"/>
      <point x="242" y="294"/>
      <point x="258" y="264"/>
      <point x="258" y="211" type="curve" smooth="yes"/>
      <point x="258" y="134"/>
      <point x="218" y="80"/>
    </contour>
    <contour>
      <point x="668" y="-5" type="curve" smooth="yes"/>
      <point x="791" y="-5"/>
      <point x="889" y="73"/>
      <point x="889" y="212" type="curve" smooth="yes"/>
      <point x="889" y="320"/>
      <point x="817" y="380"/>
      <point x="709" y="380" type="curve" smooth="yes"/>
      <point x="583" y="380"/>
      <point x="500" y="282"/>
      <point x="500" y="169" type="curve" smooth="yes"/>
      <point x="500" y="75"/>
      <point x="557" y="-5"/>
    </contour>
    <contour>
      <point x="646" y="80" type="curve" smooth="yes"/>
      <point x="599" y="80"/>
      <point x="576" y="117"/>
      <point x="576" y="176" type="curve" smooth="yes"/>
      <point x="576" y="235"/>
      <point x="616" y="294"/>
      <point x="674" y="294" type="curve" smooth="yes"/>
      <point x="721" y="294"/>
      <point x="737" y="264"/>
      <point x="737" y="211" type="curve" smooth="yes"/>
      <point x="737" y="134"/>
      <point x="697" y="80"/>
    </contour>
    <contour>
      <point x="515" y="440" type="curve" smooth="yes"/>
      <point x="638" y="440"/>
      <point x="736" y="518"/>
      <point x="736" y="657" type="curve" smooth="yes"/>
      <point x="736" y="765"/>
      <point x="664" y="825"/>
      <point x="556" y="825" type="curve" smooth="yes"/>
      <point x="430" y="825"/>
      <point x="347" y="727"/>
      <point x="347" y="614" type="curve" smooth="yes"/>
      <point x="347" y="520"/>
      <point x="404" y="440"/>
    </contour>
    <contour>
      <point x="493" y="525" type="curve" smooth="yes"/>
      <point x="446" y="525"/>
      <point x="423" y="562"/>
      <point x="423" y="621" type="curve" smooth="yes"/>
      <point x="423" y="680"/>
      <point x="463" y="739"/>
      <point x="521" y="739" type="curve" smooth="yes"/>
      <point x="568" y="739"/>
      <point x="584" y="709"/>
      <point x="584" y="656" type="curve" smooth="yes"/>
      <point x="584" y="579"/>
      <point x="544" y="525"/>
    </contour>
  </outline>
</glyph>
<glyph name="a-tamil" format="2">
  <advance width="1474"/>
  <unicode hex="0B85"/>
  <note>
uni0B85
</note>
  <anchor x="629" y="0" name="bottom"/>
  <anchor x="380" y="-191" name="nukta"/>
  <anchor x="759" y="584" name="top"/>
  <anchor x="759" y="584" name="vedic"/>
  <outline>
    <contour>
      <point x="1070" y="-266" type="line"/>
      <point x="1283" y="-266" type="line"/>
      <point x="1464" y="584" type="line"/>
      <point x="1251" y="584" type="line"/>
      <point x="1158" y="148" type="line"/>
      <point x="93" y="148" type="line" smooth="yes"/>
      <point x="23" y="148"/>
      <point x="-27" y="116"/>
      <point x="-27" y="39" type="curve" smooth="yes"/>
      <point x="-27" y="-97"/>
      <point x="180" y="-191"/>
      <point x="417" y="-191" type="curve" smooth="yes"/>
      <point x="756" y="-191"/>
      <point x="1058" y="-53"/>
      <point x="1058" y="272" type="curve" smooth="yes"/>
      <point x="1058" y="482"/>
      <point x="897" y="589"/>
      <point x="688" y="589" type="curve" smooth="yes"/>
      <point x="509" y="589"/>
      <point x="379" y="495"/>
      <point x="379" y="358" type="curve" smooth="yes"/>
      <point x="379" y="274"/>
      <point x="445" y="207"/>
      <point x="549" y="207" type="curve" smooth="yes"/>
      <point x="664" y="207"/>
      <point x="755" y="269"/>
      <point x="755" y="393" type="curve" smooth="yes"/>
      <point x="755" y="469"/>
      <point x="698" y="520"/>
      <point x="635" y="554" type="curve"/>
      <point x="571" y="538" type="line"/>
      <point x="619" y="503"/>
      <point x="643" y="456"/>
      <point x="643" y="408" type="curve" smooth="yes"/>
      <point x="643" y="345"/>
      <point x="601" y="300"/>
      <point x="543" y="300" type="curve" smooth="yes"/>
      <point x="500" y="300"/>
      <point x="472" y="328"/>
      <point x="472" y="372" type="curve" smooth="yes"/>
      <point x="472" y="458"/>
      <point x="549" y="514"/>
      <point x="659" y="514" type="curve" smooth="yes"/>
      <point x="768" y="514"/>
      <point x="863" y="451"/>
      <point x="863" y="307" type="curve" smooth="yes"/>
      <point x="863" y="19"/>
      <point x="680" y="-116"/>
      <point x="401" y="-116" type="curve" smooth="yes"/>
      <point x="226" y="-116"/>
      <point x="64" y="-45"/>
      <point x="64" y="31" type="curve" smooth="yes"/>
      <point x="64" y="59"/>
      <point x="77" y="71"/>
      <point x="108" y="71" type="curve" smooth="yes"/>
      <point x="1142" y="71" type="line"/>
    </contour>
  </outline>
</glyph>
<glyph name="aa-tamil" format="2">
  <advance width="1770"/>
  <unicode hex="0B86"/>
  <note>
uni0B86
</note>
  <anchor x="787" y="0" name="bottom"/>
  <anchor x="380" y="-191" name="nukta"/>
  <anchor x="918" y="584" name="top"/>
  <anchor x="917" y="584" name="vedic"/>
  <outline>
    <contour>
      <point x="1034" y="-492" type="curve" smooth="yes"/>
      <point x="1364" y="-492"/>
      <point x="1675" y="-339"/>
      <point x="1675" y="-52" type="curve" smooth="yes"/>
      <point x="1675" y="60"/>
      <point x="1602" y="116"/>
      <point x="1511" y="116" type="curve" smooth="yes"/>
      <point x="1398" y="116"/>
      <point x="1315" y="33"/>
      <point x="1267" y="-125" type="curve"/>
      <point x="1309" y="-132" type="line"/>
      <point x="1323" y="-61"/>
      <point x="1357" y="-27"/>
      <point x="1397" y="-27" type="curve" smooth="yes"/>
      <point x="1435" y="-27"/>
      <point x="1458" y="-53"/>
      <point x="1458" y="-98" type="curve" smooth="yes"/>
      <point x="1458" y="-294"/>
      <point x="1248" y="-413"/>
      <point x="1035" y="-413" type="curve" smooth="yes"/>
      <point x="926" y="-413"/>
      <point x="831" y="-388"/>
      <point x="831" y="-312" type="curve" smooth="yes"/>
      <point x="831" y="-260"/>
      <point x="880" y="-232"/>
      <point x="952" y="-217" type="curve"/>
      <point x="940" y="-146" type="line"/>
      <point x="818" y="-175"/>
      <point x="745" y="-225"/>
      <point x="745" y="-320" type="curve" smooth="yes"/>
      <point x="745" y="-430"/>
      <point x="863" y="-492"/>
    </contour>
    <component base="a-tamil"/>
  </outline>
</glyph>
<glyph name="i-tamil" format="2">
  <advance width="1141"/>
  <unicode hex="0B87"/>
  <note>
uni0B87
</note>
  <anchor x="479" y="0" name="bottom"/>
  <anchor x="412" y="-308" name="nukta"/>
  <anchor x="638" y="875" name="top"/>
  <anchor x="583" y="584" name="vedic"/>
  <outline>
    <contour>
      <point x="136" y="-336" type="curve" smooth="yes"/>
      <point x="508" y="-336"/>
      <point x="908" y="-36"/>
      <point x="908" y="300" type="curve" smooth="yes"/>
      <point x="908" y="488"/>
      <point x="786" y="589"/>
      <point x="579" y="589" type="curve" smooth="yes"/>
      <point x="420" y="589"/>
      <point x="285" y="500"/>
      <point x="285" y="359" type="curve" smooth="yes"/>
      <point x="285" y="275"/>
      <point x="348" y="207"/>
      <point x="450" y="207" type="curve" smooth="yes"/>
      <point x="576" y="207"/>
      <point x="664" y="272"/>
      <point x="664" y="392" type="curve" smooth="yes"/>
      <point x="664" y="468"/>
      <point x="613" y="521"/>
      <point x="536" y="554" type="curve"/>
      <point x="477" y="536" type="line"/>
      <point x="524" y="503"/>
      <point x="550" y="452"/>
      <point x="550" y="405" type="curve" smooth="yes"/>
      <point x="550" y="340"/>
      <point x="511" y="300"/>
      <point x="448" y="300" type="curve" smooth="yes"/>
      <point x="409" y="300"/>
      <point x="378" y="326"/>
      <point x="378" y="372" type="curve" smooth="yes"/>
      <point x="378" y="441"/>
      <point x="434" y="514"/>
      <point x="561" y="514" type="curve" smooth="yes"/>
      <point x="669" y="514"/>
      <point x="721" y="456"/>
      <point x="721" y="338" type="curve" smooth="yes"/>
      <point x="721" y="10"/>
      <point x="472" y="-251"/>
      <point x="151" y="-251" type="curve" smooth="yes"/>
      <point x="74" y="-251"/>
      <point x="31" y="-218"/>
      <point x="31" y="-167" type="curve" smooth="yes"/>
      <point x="31" y="-20"/>
      <point x="305" y="36"/>
      <point x="477" y="36" type="curve" smooth="yes"/>
      <point x="661" y="36"/>
      <point x="893" y="-19"/>
      <point x="893" y="-144" type="curve" smooth="yes"/>
      <point x="893" y="-215"/>
      <point x="838" y="-251"/>
      <point x="745" y="-251" type="curve" smooth="yes"/>
      <point x="444" y="-251"/>
      <point x="146" y="14"/>
      <point x="146" y="291" type="curve" smooth="yes"/>
      <point x="146" y="562"/>
      <point x="333" y="718"/>
      <point x="620" y="718" type="curve" smooth="yes"/>
      <point x="854" y="718"/>
      <point x="1027" y="600"/>
      <point x="1027" y="401" type="curve" smooth="yes"/>
      <point x="1027" y="375"/>
      <point x="1024" y="348"/>
      <point x="1018" y="319" type="curve" smooth="yes"/>
      <point x="972" y="102" type="line"/>
      <point x="1056" y="102" type="line"/>
      <point x="1105" y="329" type="line" smooth="yes"/>
      <point x="1115" y="373"/>
      <point x="1119" y="415"/>
      <point x="1119" y="455" type="curve" smooth="yes"/>
      <point x="1119" y="706"/>
      <point x="938" y="875"/>
      <point x="637" y="875" type="curve" smooth="yes"/>
      <point x="274" y="875"/>
      <point x="58" y="638"/>
      <point x="58" y="312" type="curve" smooth="yes"/>
      <point x="58" y="-37"/>
      <point x="443" y="-336"/>
      <point x="733" y="-336" type="curve" smooth="yes"/>
      <point x="882" y="-336"/>
      <point x="988" y="-277"/>
      <point x="988" y="-142" type="curve" smooth="yes"/>
      <point x="988" y="42"/>
      <point x="723" y="105"/>
      <point x="485" y="105" type="curve" smooth="yes"/>
      <point x="236" y="105"/>
      <point x="-65" y="25"/>
      <point x="-65" y="-183" type="curve" smooth="yes"/>
      <point x="-65" y="-280"/>
      <point x="12" y="-336"/>
    </contour>
  </outline>
</glyph>
<glyph name="ii-tamil" format="2">
  <advance width="932"/>
  <unicode hex="0B88"/>
  <note>
uni0B88
</note>
  <anchor x="411" y="0" name="bottom"/>
  <anchor x="412" y="0" name="nukta"/>
  <anchor x="539" y="584" name="top"/>
  <anchor x="538" y="584" name="vedic"/>
  <outline>
    <contour>
      <point x="10" y="0" type="line"/>
      <point x="92" y="0" type="line"/>
      <point x="200" y="509" type="line"/>
      <point x="480" y="509" type="line"/>
      <point x="371" y="0" type="line"/>
      <point x="588" y="0" type="line"/>
      <point x="696" y="509" type="line"/>
      <point x="926" y="509" type="line"/>
      <point x="941" y="584" type="line"/>
      <point x="134" y="584" type="line"/>
    </contour>
    <contour>
      <point x="290" y="192" type="curve" smooth="yes"/>
      <point x="339" y="192"/>
      <point x="379" y="230"/>
      <point x="379" y="278" type="curve" smooth="yes"/>
      <point x="379" y="325"/>
      <point x="340" y="364"/>
      <point x="291" y="364" type="curve" smooth="yes"/>
      <point x="241" y="364"/>
      <point x="202" y="325"/>
      <point x="202" y="278" type="curve" smooth="yes"/>
      <point x="202" y="230"/>
      <point x="240" y="192"/>
    </contour>
    <contour>
      <point x="784" y="192" type="curve" smooth="yes"/>
      <point x="833" y="192"/>
      <point x="873" y="230"/>
      <point x="873" y="278" type="curve" smooth="yes"/>
      <point x="873" y="325"/>
      <point x="834" y="364"/>
      <point x="785" y="364" type="curve" smooth="yes"/>
      <point x="735" y="364"/>
      <point x="696" y="325"/>
      <point x="696" y="278" type="curve" smooth="yes"/>
      <point x="696" y="230"/>
      <point x="734" y="192"/>
    </contour>
  </outline>
</glyph>
<glyph name="u-tamil" format="2">
  <advance width="1029"/>
  <unicode hex="0B89"/>
  <note>
uni0B89
</note>
  <anchor x="448" y="0" name="bottom"/>
  <anchor x="448" y="0" name="nukta"/>
  <anchor x="576" y="584" name="top"/>
  <anchor x="575" y="584" name="vedic"/>
  <outline>
    <contour>
      <point x="92" y="0" type="curve" smooth="yes"/>
      <point x="965" y="0" type="line"/>
      <point x="981" y="75" type="line"/>
      <point x="97" y="75" type="line" smooth="yes"/>
      <point x="81" y="75"/>
      <point x="69" y="86"/>
      <point x="69" y="100" type="curve" smooth="yes"/>
      <point x="69" y="124"/>
      <point x="92" y="130"/>
      <point x="110" y="130" type="curve" smooth="yes"/>
      <point x="408" y="130" type="line" smooth="yes"/>
      <point x="613" y="130"/>
      <point x="778" y="191"/>
      <point x="778" y="377" type="curve" smooth="yes"/>
      <point x="778" y="525"/>
      <point x="625" y="589"/>
      <point x="447" y="589" type="curve" smooth="yes"/>
      <point x="266" y="589"/>
      <point x="127" y="503"/>
      <point x="127" y="378" type="curve" smooth="yes"/>
      <point x="127" y="294"/>
      <point x="191" y="243"/>
      <point x="284" y="243" type="curve" smooth="yes"/>
      <point x="389" y="243"/>
      <point x="481" y="298"/>
      <point x="481" y="404" type="curve" smooth="yes"/>
      <point x="481" y="469"/>
      <point x="434" y="519"/>
      <point x="373" y="550" type="curve"/>
      <point x="295" y="544" type="line"/>
      <point x="349" y="508"/>
      <point x="374" y="467"/>
      <point x="374" y="424" type="curve" smooth="yes"/>
      <point x="374" y="369"/>
      <point x="337" y="337"/>
      <point x="281" y="337" type="curve" smooth="yes"/>
      <point x="247" y="337"/>
      <point x="219" y="358"/>
      <point x="219" y="398" type="curve" smooth="yes"/>
      <point x="219" y="473"/>
      <point x="307" y="515"/>
      <point x="405" y="515" type="curve" smooth="yes"/>
      <point x="513" y="515"/>
      <point x="581" y="475"/>
      <point x="581" y="377" type="curve" smooth="yes"/>
      <point x="581" y="273"/>
      <point x="514" y="200"/>
      <point x="394" y="200" type="curve" smooth="yes"/>
      <point x="121" y="200" type="line" smooth="yes"/>
      <point x="45" y="200"/>
      <point x="-12" y="161"/>
      <point x="-12" y="92" type="curve" smooth="yes"/>
      <point x="-12" y="36"/>
      <point x="28" y="0"/>
    </contour>
  </outline>
</glyph>
<glyph name="uu-tamil" format="2">
  <advance width="1993"/>
  <unicode hex="0B8A"/>
  <note>
uni0B8A
</note>
  <anchor x="925" y="0" name="bottom"/>
  <anchor x="925" y="0" name="nukta"/>
  <anchor x="1051" y="584" name="top"/>
  <anchor x="1052" y="584" name="vedic"/>
  <outline>
    <contour>
      <point x="92" y="0" type="curve" smooth="yes"/>
      <point x="1871" y="0" type="line"/>
      <point x="1887" y="75" type="line"/>
      <point x="97" y="75" type="line" smooth="yes"/>
      <point x="81" y="75"/>
      <point x="69" y="86"/>
      <point x="69" y="100" type="curve" smooth="yes"/>
      <point x="69" y="124"/>
      <point x="92" y="130"/>
      <point x="110" y="130" type="curve" smooth="yes"/>
      <point x="408" y="130" type="line" smooth="yes"/>
      <point x="613" y="130"/>
      <point x="778" y="191"/>
      <point x="778" y="377" type="curve" smooth="yes"/>
      <point x="778" y="525"/>
      <point x="625" y="589"/>
      <point x="447" y="589" type="curve" smooth="yes"/>
      <point x="266" y="589"/>
      <point x="127" y="503"/>
      <point x="127" y="378" type="curve" smooth="yes"/>
      <point x="127" y="294"/>
      <point x="191" y="243"/>
      <point x="284" y="243" type="curve" smooth="yes"/>
      <point x="389" y="243"/>
      <point x="481" y="298"/>
      <point x="481" y="404" type="curve" smooth="yes"/>
      <point x="481" y="469"/>
      <point x="434" y="519"/>
      <point x="373" y="550" type="curve"/>
      <point x="295" y="544" type="line"/>
      <point x="349" y="508"/>
      <point x="374" y="467"/>
      <point x="374" y="424" type="curve" smooth="yes"/>
      <point x="374" y="369"/>
      <point x="337" y="337"/>
      <point x="281" y="337" type="curve" smooth="yes"/>
      <point x="247" y="337"/>
      <point x="219" y="358"/>
      <point x="219" y="398" type="curve" smooth="yes"/>
      <point x="219" y="473"/>
      <point x="307" y="515"/>
      <point x="405" y="515" type="curve" smooth="yes"/>
      <point x="513" y="515"/>
      <point x="581" y="475"/>
      <point x="581" y="377" type="curve" smooth="yes"/>
      <point x="581" y="273"/>
      <point x="514" y="200"/>
      <point x="394" y="200" type="curve" smooth="yes"/>
      <point x="121" y="200" type="line" smooth="yes"/>
      <point x="45" y="200"/>
      <point x="-12" y="161"/>
      <point x="-12" y="92" type="curve" smooth="yes"/>
      <point x="-12" y="36"/>
      <point x="28" y="0"/>
    </contour>
    <contour>
      <point x="1052" y="123" type="curve" smooth="yes"/>
      <point x="1177" y="123"/>
      <point x="1254" y="182"/>
      <point x="1254" y="291" type="curve" smooth="yes"/>
      <point x="1254" y="373"/>
      <point x="1192" y="417"/>
      <point x="1114" y="417" type="curve" smooth="yes"/>
      <point x="1009" y="417"/>
      <point x="939" y="340"/>
      <point x="906" y="230" type="curve"/>
      <point x="944" y="207" type="line"/>
      <point x="975" y="296"/>
      <point x="1020" y="337"/>
      <point x="1066" y="337" type="curve" smooth="yes"/>
      <point x="1097" y="337"/>
      <point x="1120" y="315"/>
      <point x="1120" y="280" type="curve" smooth="yes"/>
      <point x="1120" y="226"/>
      <point x="1079" y="200"/>
      <point x="1030" y="200" type="curve" smooth="yes"/>
      <point x="973" y="200"/>
      <point x="918" y="250"/>
      <point x="918" y="327" type="curve" smooth="yes"/>
      <point x="918" y="440"/>
      <point x="1012" y="515"/>
      <point x="1138" y="515" type="curve" smooth="yes"/>
      <point x="1260" y="515"/>
      <point x="1348" y="437"/>
      <point x="1327" y="313" type="curve"/>
      <point x="1408" y="313" type="line"/>
      <point x="1429" y="490"/>
      <point x="1315" y="589"/>
      <point x="1136" y="589" type="curve" smooth="yes"/>
      <point x="964" y="589"/>
      <point x="833" y="476"/>
      <point x="833" y="318" type="curve" smooth="yes"/>
      <point x="833" y="205"/>
      <point x="926" y="123"/>
    </contour>
    <contour>
      <point x="1286" y="125" type="line"/>
      <point x="1469" y="125" type="line"/>
      <point x="1553" y="518" type="line"/>
      <point x="1689" y="518" type="line"/>
      <point x="1605" y="125" type="line"/>
      <point x="1789" y="125" type="line"/>
      <point x="1872" y="518" type="line"/>
      <point x="1976" y="518" type="line"/>
      <point x="1990" y="584" type="line"/>
      <point x="1429" y="584" type="line"/>
      <point x="1385" y="374" type="line"/>
      <point x="1339" y="374" type="line"/>
    </contour>
  </outline>
</glyph>
<glyph name="ee-tamil" format="2">
  <advance width="1049"/>
  <unicode hex="0B8F"/>
  <note>
uni0B8F
</note>
  <anchor x="484" y="0" name="bottom"/>
  <anchor x="432" y="-244" name="nukta"/>
  <anchor x="610" y="584" name="top"/>
  <anchor x="611" y="584" name="vedic"/>
  <outline>
    <contour>
      <point x="347" y="-296" type="line"/>
      <point x="845" y="12" type="line"/>
      <point x="951" y="509" type="line"/>
      <point x="1082" y="509" type="line"/>
      <point x="1098" y="584" type="line"/>
      <point x="486" y="584" type="line" smooth="yes"/>
      <point x="201" y="584"/>
      <point x="44" y="457"/>
      <point x="44" y="237" type="curve" smooth="yes"/>
      <point x="44" y="97"/>
      <point x="144" y="-5"/>
      <point x="281" y="-5" type="curve" smooth="yes"/>
      <point x="408" y="-5"/>
      <point x="517" y="67"/>
      <point x="517" y="202" type="curve" smooth="yes"/>
      <point x="517" y="293"/>
      <point x="456" y="354"/>
      <point x="352" y="354" type="curve" smooth="yes"/>
      <point x="219" y="354"/>
      <point x="130" y="234"/>
      <point x="115" y="123" type="curve"/>
      <point x="163" y="92" type="line"/>
      <point x="178" y="169"/>
      <point x="214" y="230"/>
      <point x="271" y="230" type="curve" smooth="yes"/>
      <point x="307" y="230"/>
      <point x="328" y="203"/>
      <point x="328" y="170" type="curve" smooth="yes"/>
      <point x="328" y="121"/>
      <point x="298" y="88"/>
      <point x="240" y="88" type="curve" smooth="yes"/>
      <point x="188" y="88"/>
      <point x="125" y="145"/>
      <point x="125" y="249" type="curve" smooth="yes"/>
      <point x="125" y="419"/>
      <point x="251" y="509"/>
      <point x="487" y="509" type="curve" smooth="yes"/>
      <point x="728" y="509" type="line"/>
      <point x="613" y="-34" type="line"/>
      <point x="307" y="-226" type="line"/>
    </contour>
  </outline>
</glyph>
<glyph name="ai-tamil" format="2">
  <advance width="1108"/>
  <unicode hex="0B90"/>
  <note>
uni0B90
</note>
  <anchor x="507" y="0" name="bottom"/>
  <anchor x="422" y="-335" name="nukta"/>
  <anchor x="626" y="584" name="top"/>
  <anchor x="624" y="584" name="vedic"/>
  <outline>
    <contour>
      <point x="196" y="-335" type="curve" smooth="yes"/>
      <point x="330" y="-335"/>
      <point x="420" y="-282"/>
      <point x="472" y="-190" type="curve"/>
      <point x="489" y="-291"/>
      <point x="596" y="-335"/>
      <point x="698" y="-335" type="curve" smooth="yes"/>
      <point x="857" y="-335"/>
      <point x="978" y="-249"/>
      <point x="978" y="-80" type="curve" smooth="yes"/>
      <point x="978" y="-23"/>
      <point x="960" y="28"/>
      <point x="938" y="71" type="curve"/>
      <point x="858" y="31" type="line"/>
      <point x="877" y="-7"/>
      <point x="890" y="-44"/>
      <point x="890" y="-83" type="curve" smooth="yes"/>
      <point x="890" y="-184"/>
      <point x="818" y="-255"/>
      <point x="699" y="-255" type="curve" smooth="yes"/>
      <point x="589" y="-255"/>
      <point x="551" y="-197"/>
      <point x="573" y="-91" type="curve" smooth="yes"/>
      <point x="588" y="-18" type="line"/>
      <point x="420" y="-18" type="line"/>
      <point x="405" y="-86" type="line" smooth="yes"/>
      <point x="384" y="-181"/>
      <point x="341" y="-253"/>
      <point x="249" y="-253" type="curve" smooth="yes"/>
      <point x="178" y="-253"/>
      <point x="155" y="-206"/>
      <point x="155" y="-144" type="curve" smooth="yes"/>
      <point x="155" y="31"/>
      <point x="314" y="52"/>
      <point x="551" y="70" type="curve" smooth="yes"/>
      <point x="837" y="92"/>
      <point x="1077" y="159"/>
      <point x="1077" y="394" type="curve" smooth="yes"/>
      <point x="1077" y="511"/>
      <point x="996" y="589"/>
      <point x="850" y="589" type="curve" smooth="yes"/>
      <point x="748" y="589"/>
      <point x="656" y="552"/>
      <point x="606" y="458" type="curve"/>
      <point x="583" y="548"/>
      <point x="493" y="589"/>
      <point x="377" y="589" type="curve" smooth="yes"/>
      <point x="197" y="589"/>
      <point x="63" y="482"/>
      <point x="63" y="322" type="curve" smooth="yes"/>
      <point x="63" y="227"/>
      <point x="132" y="149"/>
      <point x="242" y="149" type="curve" smooth="yes"/>
      <point x="342" y="149"/>
      <point x="426" y="200"/>
      <point x="426" y="300" type="curve" smooth="yes"/>
      <point x="426" y="368"/>
      <point x="378" y="409"/>
      <point x="303" y="409" type="curve" smooth="yes"/>
      <point x="212" y="409"/>
      <point x="142" y="347"/>
      <point x="111" y="226" type="curve"/>
      <point x="152" y="210" type="line"/>
      <point x="183" y="304"/>
      <point x="216" y="328"/>
      <point x="249" y="328" type="curve" smooth="yes"/>
      <point x="276" y="328"/>
      <point x="292" y="309"/>
      <point x="292" y="286" type="curve" smooth="yes"/>
      <point x="292" y="252"/>
      <point x="270" y="229"/>
      <point x="231" y="229" type="curve" smooth="yes"/>
      <point x="180" y="229"/>
      <point x="147" y="277"/>
      <point x="147" y="336" type="curve" smooth="yes"/>
      <point x="147" y="444"/>
      <point x="251" y="510"/>
      <point x="365" y="510" type="curve" smooth="yes"/>
      <point x="470" y="510"/>
      <point x="519" y="447"/>
      <point x="497" y="349" type="curve" smooth="yes"/>
      <point x="465" y="203" type="line"/>
      <point x="633" y="203" type="line"/>
      <point x="671" y="387" type="line" smooth="yes"/>
      <point x="687" y="465"/>
      <point x="732" y="507"/>
      <point x="791" y="507" type="curve" smooth="yes"/>
      <point x="854" y="507"/>
      <point x="882" y="466"/>
      <point x="882" y="399" type="curve" smooth="yes"/>
      <point x="882" y="187"/>
      <point x="739" y="145"/>
      <point x="442" y="120" type="curve" smooth="yes"/>
      <point x="191" y="99"/>
      <point x="-40" y="63"/>
      <point x="-40" y="-139" type="curve" smooth="yes"/>
      <point x="-40" y="-261"/>
      <point x="45" y="-335"/>
    </contour>
  </outline>
</glyph>
<glyph name="o-tamil" format="2">
  <advance width="1171"/>
  <unicode hex="0B92"/>
  <note>
uni0B92
</note>
  <anchor x="508" y="0" name="bottom"/>
  <anchor x="434" y="-335" name="nukta"/>
  <anchor x="615" y="584" name="top"/>
  <anchor x="615" y="584" name="vedic"/>
  <outline>
    <contour>
      <point x="289" y="-392" type="curve" smooth="yes"/>
      <point x="547" y="-392"/>
      <point x="625" y="-162"/>
      <point x="815" y="-162" type="curve" smooth="yes"/>
      <point x="893" y="-162" type="line"/>
      <point x="909" y="-84" type="line"/>
      <point x="802" y="-84" type="line" smooth="yes"/>
      <point x="680" y="-84"/>
      <point x="613" y="-19"/>
      <point x="613" y="67" type="curve" smooth="yes"/>
      <point x="613" y="121"/>
      <point x="639" y="185"/>
      <point x="696" y="245" type="curve"/>
      <point x="701" y="241" type="line"/>
      <point x="681" y="201"/>
      <point x="671" y="164"/>
      <point x="671" y="131" type="curve" smooth="yes"/>
      <point x="671" y="52"/>
      <point x="729" y="-2"/>
      <point x="842" y="-2" type="curve" smooth="yes"/>
      <point x="991" y="-2"/>
      <point x="1112" y="95"/>
      <point x="1112" y="254" type="curve" smooth="yes"/>
      <point x="1112" y="508"/>
      <point x="843" y="589"/>
      <point x="580" y="589" type="curve" smooth="yes"/>
      <point x="269" y="589"/>
      <point x="39" y="449"/>
      <point x="39" y="228" type="curve" smooth="yes"/>
      <point x="39" y="92"/>
      <point x="139" y="-5"/>
      <point x="276" y="-5" type="curve" smooth="yes"/>
      <point x="403" y="-5"/>
      <point x="512" y="67"/>
      <point x="512" y="202" type="curve" smooth="yes"/>
      <point x="512" y="293"/>
      <point x="451" y="354"/>
      <point x="347" y="354" type="curve" smooth="yes"/>
      <point x="214" y="354"/>
      <point x="125" y="234"/>
      <point x="110" y="123" type="curve"/>
      <point x="158" y="92" type="line"/>
      <point x="173" y="169"/>
      <point x="209" y="230"/>
      <point x="266" y="230" type="curve" smooth="yes"/>
      <point x="302" y="230"/>
      <point x="323" y="203"/>
      <point x="323" y="170" type="curve" smooth="yes"/>
      <point x="323" y="121"/>
      <point x="293" y="88"/>
      <point x="235" y="88" type="curve" smooth="yes"/>
      <point x="183" y="88"/>
      <point x="120" y="140"/>
      <point x="120" y="240" type="curve" smooth="yes"/>
      <point x="120" y="401"/>
      <point x="317" y="506"/>
      <point x="550" y="506" type="curve" smooth="yes"/>
      <point x="756" y="506"/>
      <point x="919" y="441"/>
      <point x="919" y="269" type="curve" smooth="yes"/>
      <point x="919" y="185"/>
      <point x="882" y="98"/>
      <point x="796" y="98" type="curve" smooth="yes"/>
      <point x="761" y="98"/>
      <point x="745" y="125"/>
      <point x="745" y="161" type="curve" smooth="yes"/>
      <point x="745" y="202"/>
      <point x="765" y="256"/>
      <point x="798" y="298" type="curve"/>
      <point x="725" y="356" type="line"/>
      <point x="611" y="270"/>
      <point x="538" y="152"/>
      <point x="538" y="52" type="curve" smooth="yes"/>
      <point x="538" y="-14"/>
      <point x="570" y="-72"/>
      <point x="644" y="-107" type="curve"/>
      <point x="643" y="-112" type="line"/>
      <point x="463" y="-137"/>
      <point x="391" y="-306"/>
      <point x="253" y="-306" type="curve" smooth="yes"/>
      <point x="199" y="-306"/>
      <point x="166" y="-272"/>
      <point x="166" y="-228" type="curve" smooth="yes"/>
      <point x="166" y="-178"/>
      <point x="198" y="-149"/>
      <point x="250" y="-115" type="curve"/>
      <point x="217" y="-63" type="line"/>
      <point x="144" y="-113"/>
      <point x="91" y="-159"/>
      <point x="91" y="-242" type="curve" smooth="yes"/>
      <point x="91" y="-326"/>
      <point x="156" y="-392"/>
    </contour>
  </outline>
</glyph>
<glyph name="oo-tamil" format="2">
  <advance width="1171"/>
  <unicode hex="0B93"/>
  <note>
uni0B93
</note>
  <anchor x="523" y="0" name="bottom"/>
  <anchor x="438" y="-391" name="nukta"/>
  <anchor x="615" y="584" name="top"/>
  <anchor x="615" y="584" name="vedic"/>
  <outline>
    <contour>
      <point x="246" y="-436" type="curve" smooth="yes"/>
      <point x="554" y="-436"/>
      <point x="625" y="-166"/>
      <point x="815" y="-166" type="curve" smooth="yes"/>
      <point x="893" y="-166" type="line"/>
      <point x="909" y="-88" type="line"/>
      <point x="802" y="-88" type="line" smooth="yes"/>
      <point x="680" y="-88"/>
      <point x="613" y="-22"/>
      <point x="613" y="66" type="curve" smooth="yes"/>
      <point x="613" y="121"/>
      <point x="639" y="185"/>
      <point x="696" y="245" type="curve"/>
      <point x="701" y="241" type="line"/>
      <point x="681" y="201"/>
      <point x="671" y="164"/>
      <point x="671" y="131" type="curve" smooth="yes"/>
      <point x="671" y="52"/>
      <point x="729" y="-2"/>
      <point x="842" y="-2" type="curve" smooth="yes"/>
      <point x="991" y="-2"/>
      <point x="1112" y="95"/>
      <point x="1112" y="254" type="curve" smooth="yes"/>
      <point x="1112" y="508"/>
      <point x="843" y="589"/>
      <point x="580" y="589" type="curve" smooth="yes"/>
      <point x="269" y="589"/>
      <point x="39" y="449"/>
      <point x="39" y="228" type="curve" smooth="yes"/>
      <point x="39" y="92"/>
      <point x="139" y="-5"/>
      <point x="276" y="-5" type="curve" smooth="yes"/>
      <point x="403" y="-5"/>
      <point x="512" y="67"/>
      <point x="512" y="202" type="curve" smooth="yes"/>
      <point x="512" y="293"/>
      <point x="451" y="354"/>
      <point x="347" y="354" type="curve" smooth="yes"/>
      <point x="214" y="354"/>
      <point x="125" y="234"/>
      <point x="110" y="123" type="curve"/>
      <point x="158" y="92" type="line"/>
      <point x="173" y="169"/>
      <point x="209" y="230"/>
      <point x="266" y="230" type="curve" smooth="yes"/>
      <point x="302" y="230"/>
      <point x="323" y="203"/>
      <point x="323" y="170" type="curve" smooth="yes"/>
      <point x="323" y="121"/>
      <point x="293" y="88"/>
      <point x="235" y="88" type="curve" smooth="yes"/>
      <point x="183" y="88"/>
      <point x="120" y="140"/>
      <point x="120" y="240" type="curve" smooth="yes"/>
      <point x="120" y="401"/>
      <point x="317" y="506"/>
      <point x="550" y="506" type="curve" smooth="yes"/>
      <point x="756" y="506"/>
      <point x="919" y="441"/>
      <point x="919" y="269" type="curve" smooth="yes"/>
      <point x="919" y="185"/>
      <point x="882" y="98"/>
      <point x="796" y="98" type="curve" smooth="yes"/>
      <point x="761" y="98"/>
      <point x="745" y="125"/>
      <point x="745" y="161" type="curve" smooth="yes"/>
      <point x="745" y="202"/>
      <point x="765" y="256"/>
      <point x="798" y="298" type="curve"/>
      <point x="725" y="356" type="line"/>
      <point x="611" y="270"/>
      <point x="538" y="151"/>
      <point x="538" y="50" type="curve" smooth="yes"/>
      <point x="538" y="-17"/>
      <point x="570" y="-76"/>
      <point x="644" y="-111" type="curve"/>
      <point x="643" y="-116" type="line"/>
      <point x="463" y="-141"/>
      <point x="397" y="-350"/>
      <point x="209" y="-350" type="curve" smooth="yes"/>
      <point x="134" y="-350"/>
      <point x="100" y="-306"/>
      <point x="100" y="-257" type="curve" smooth="yes"/>
      <point x="100" y="-205"/>
      <point x="133" y="-161"/>
      <point x="190" y="-161" type="curve" smooth="yes"/>
      <point x="240" y="-161"/>
      <point x="276" y="-198"/>
      <point x="279" y="-258" type="curve"/>
      <point x="334" y="-240"/>
      <point x="380" y="-202"/>
      <point x="380" y="-143" type="curve" smooth="yes"/>
      <point x="380" y="-85"/>
      <point x="324" y="-53"/>
      <point x="253" y="-53" type="curve" smooth="yes"/>
      <point x="128" y="-53"/>
      <point x="28" y="-142"/>
      <point x="28" y="-269" type="curve" smooth="yes"/>
      <point x="28" y="-373"/>
      <point x="114" y="-436"/>
    </contour>
  </outline>
</glyph>
<glyph name="ka-tamil" format="2">
  <advance width="974"/>
  <unicode hex="0B95"/>
  <note>
uni0B95
</note>
  <anchor x="411" y="0" name="bottom"/>
  <anchor x="737" y="584" name="imatra"/>
  <anchor x="411" y="0" name="nukta"/>
  <anchor x="570" y="584" name="top"/>
  <anchor x="555" y="584" name="vedic"/>
  <outline>
    <contour>
      <point x="283" y="-4" type="curve" smooth="yes"/>
      <point x="471" y="-4"/>
      <point x="551" y="83"/>
      <point x="586" y="227" type="curve" smooth="yes"/>
      <point x="597" y="272" type="line"/>
      <point x="640" y="272" type="line" smooth="yes"/>
      <point x="693" y="272"/>
      <point x="717" y="244"/>
      <point x="717" y="196" type="curve" smooth="yes"/>
      <point x="717" y="122"/>
      <point x="680" y="72"/>
      <point x="606" y="72" type="curve" smooth="yes"/>
      <point x="587" y="72" type="line"/>
      <point x="571" y="-4" type="line"/>
      <point x="647" y="-4" type="line" smooth="yes"/>
      <point x="795" y="-4"/>
      <point x="920" y="55"/>
      <point x="920" y="193" type="curve" smooth="yes"/>
      <point x="920" y="305"/>
      <point x="818" y="348"/>
      <point x="670" y="348" type="curve" smooth="yes"/>
      <point x="613" y="348" type="line"/>
      <point x="647" y="508" type="line"/>
      <point x="801" y="508" type="line"/>
      <point x="817" y="584" type="line"/>
      <point x="230" y="584" type="line"/>
      <point x="172" y="310" type="line"/>
      <point x="255" y="310" type="line"/>
      <point x="297" y="508" type="line"/>
      <point x="432" y="508" type="line"/>
      <point x="398" y="348" type="line"/>
      <point x="262" y="348" type="line" smooth="yes"/>
      <point x="134" y="348"/>
      <point x="40" y="280"/>
      <point x="40" y="164" type="curve" smooth="yes"/>
      <point x="40" y="68"/>
      <point x="117" y="-4"/>
    </contour>
    <contour>
      <point x="227" y="83" type="curve" smooth="yes"/>
      <point x="167" y="83"/>
      <point x="119" y="115"/>
      <point x="119" y="174" type="curve" smooth="yes"/>
      <point x="119" y="239"/>
      <point x="166" y="272"/>
      <point x="254" y="272" type="curve" smooth="yes"/>
      <point x="382" y="272" type="line"/>
      <point x="372" y="226" type="line" smooth="yes"/>
      <point x="350" y="126"/>
      <point x="311" y="83"/>
    </contour>
  </outline>
</glyph>
<glyph name="ja-tamil" format="2">
  <advance width="1112"/>
  <unicode hex="0B9C"/>
  <note>
uni0B9C
</note>
  <anchor x="498" y="0" name="bottom"/>
  <anchor x="413" y="-335" name="nukta"/>
  <anchor x="610" y="584" name="top"/>
  <anchor x="606" y="584" name="vedic"/>
  <outline>
    <contour>
      <point x="170" y="-335" type="curve" smooth="yes"/>
      <point x="404" y="-335"/>
      <point x="497" y="-34"/>
      <point x="681" y="-34" type="curve" smooth="yes"/>
      <point x="751" y="-34"/>
      <point x="780" y="-68"/>
      <point x="780" y="-130" type="curve" smooth="yes"/>
      <point x="780" y="-207"/>
      <point x="720" y="-247"/>
      <point x="650" y="-247" type="curve" smooth="yes"/>
      <point x="614" y="-247"/>
      <point x="580" y="-235"/>
      <point x="551" y="-215" type="curve"/>
      <point x="502" y="-279" type="line"/>
      <point x="553" y="-319"/>
      <point x="617" y="-335"/>
      <point x="695" y="-335" type="curve" smooth="yes"/>
      <point x="850" y="-335"/>
      <point x="976" y="-257"/>
      <point x="976" y="-119" type="curve" smooth="yes"/>
      <point x="976" y="-7"/>
      <point x="890" y="55"/>
      <point x="770" y="56" type="curve" smooth="yes"/>
      <point x="483" y="59"/>
      <point x="397" y="-238"/>
      <point x="241" y="-238" type="curve" smooth="yes"/>
      <point x="178" y="-238"/>
      <point x="156" y="-191"/>
      <point x="156" y="-124" type="curve" smooth="yes"/>
      <point x="156" y="19"/>
      <point x="306" y="58"/>
      <point x="543" y="78" type="curve" smooth="yes"/>
      <point x="829" y="102"/>
      <point x="1072" y="159"/>
      <point x="1072" y="394" type="curve" smooth="yes"/>
      <point x="1072" y="511"/>
      <point x="991" y="589"/>
      <point x="845" y="589" type="curve" smooth="yes"/>
      <point x="743" y="589"/>
      <point x="651" y="552"/>
      <point x="601" y="458" type="curve"/>
      <point x="578" y="548"/>
      <point x="488" y="589"/>
      <point x="372" y="589" type="curve" smooth="yes"/>
      <point x="192" y="589"/>
      <point x="58" y="482"/>
      <point x="58" y="322" type="curve" smooth="yes"/>
      <point x="58" y="227"/>
      <point x="127" y="149"/>
      <point x="237" y="149" type="curve" smooth="yes"/>
      <point x="337" y="149"/>
      <point x="421" y="200"/>
      <point x="421" y="300" type="curve" smooth="yes"/>
      <point x="421" y="368"/>
      <point x="373" y="409"/>
      <point x="298" y="409" type="curve" smooth="yes"/>
      <point x="207" y="409"/>
      <point x="137" y="347"/>
      <point x="106" y="226" type="curve"/>
      <point x="147" y="210" type="line"/>
      <point x="178" y="304"/>
      <point x="211" y="328"/>
      <point x="244" y="328" type="curve" smooth="yes"/>
      <point x="271" y="328"/>
      <point x="287" y="309"/>
      <point x="287" y="286" type="curve" smooth="yes"/>
      <point x="287" y="252"/>
      <point x="265" y="229"/>
      <point x="226" y="229" type="curve" smooth="yes"/>
      <point x="175" y="229"/>
      <point x="142" y="277"/>
      <point x="142" y="336" type="curve" smooth="yes"/>
      <point x="142" y="444"/>
      <point x="246" y="510"/>
      <point x="360" y="510" type="curve" smooth="yes"/>
      <point x="465" y="510"/>
      <point x="514" y="447"/>
      <point x="492" y="349" type="curve" smooth="yes"/>
      <point x="460" y="203" type="line"/>
      <point x="628" y="203" type="line"/>
      <point x="666" y="387" type="line" smooth="yes"/>
      <point x="682" y="465"/>
      <point x="727" y="507"/>
      <point x="786" y="507" type="curve" smooth="yes"/>
      <point x="849" y="507"/>
      <point x="877" y="466"/>
      <point x="877" y="399" type="curve" smooth="yes"/>
      <point x="877" y="187"/>
      <point x="731" y="150"/>
      <point x="434" y="123" type="curve" smooth="yes"/>
      <point x="156" y="98"/>
      <point x="-39" y="37"/>
      <point x="-39" y="-135" type="curve" smooth="yes"/>
      <point x="-39" y="-251"/>
      <point x="31" y="-335"/>
    </contour>
  </outline>
</glyph>
<glyph name="tta-tamil" format="2">
  <advance width="997"/>
  <unicode hex="0B9F"/>
  <note>
uni0B9F
</note>
  <anchor x="444" y="0" name="bottom"/>
  <anchor x="444" y="0" name="nukta"/>
  <anchor x="603" y="584" name="top"/>
  <anchor x="595" y="584" name="vedic"/>
  <outline>
    <contour>
      <point x="10" y="0" type="line"/>
      <point x="933" y="0" type="line"/>
      <point x="949" y="75" type="line"/>
      <point x="239" y="75" type="line"/>
      <point x="348" y="584" type="line"/>
      <point x="134" y="584" type="line"/>
    </contour>
  </outline>
</glyph>
<glyph name="na-tamil" format="2">
  <advance width="925"/>
  <unicode hex="0BA8"/>
  <note>
uni0BA8
</note>
  <anchor x="377" y="0" name="bottom"/>
  <anchor x="647" y="584" name="imatra"/>
  <anchor x="323" y="-266" name="nukta"/>
  <anchor x="504" y="584" name="top"/>
  <anchor x="537" y="584" name="vedic"/>
  <outline>
    <contour>
      <point x="113" y="-308" type="curve"/>
      <point x="137" y="-195"/>
      <point x="189" y="-127"/>
      <point x="326" y="-127" type="curve" smooth="yes"/>
      <point x="481" y="-127" type="line" smooth="yes"/>
      <point x="682" y="-127"/>
      <point x="855" y="-22"/>
      <point x="855" y="187" type="curve" smooth="yes"/>
      <point x="855" y="300"/>
      <point x="786" y="364"/>
      <point x="686" y="364" type="curve" smooth="yes"/>
      <point x="610" y="364"/>
      <point x="562" y="330"/>
      <point x="520" y="281" type="curve"/>
      <point x="569" y="509" type="line"/>
      <point x="719" y="509" type="line"/>
      <point x="735" y="584" type="line"/>
      <point x="145" y="584" type="line"/>
      <point x="21" y="0" type="line"/>
      <point x="103" y="0" type="line"/>
      <point x="211" y="509" type="line"/>
      <point x="353" y="509" type="line"/>
      <point x="245" y="0" type="line"/>
      <point x="461" y="0" type="line"/>
      <point x="493" y="153" type="line" smooth="yes"/>
      <point x="504" y="207"/>
      <point x="535" y="236"/>
      <point x="579" y="236" type="curve" smooth="yes"/>
      <point x="626" y="236"/>
      <point x="652" y="204"/>
      <point x="652" y="154" type="curve" smooth="yes"/>
      <point x="652" y="3"/>
      <point x="554" y="-62"/>
      <point x="395" y="-62" type="curve" smooth="yes"/>
      <point x="267" y="-62" type="line" smooth="yes"/>
      <point x="99" y="-62"/>
      <point x="-30" y="-97"/>
      <point x="-30" y="-210" type="curve" smooth="yes"/>
      <point x="-30" y="-274"/>
      <point x="27" y="-308"/>
    </contour>
  </outline>
</glyph>
<glyph name="nnna-tamil" format="2">
  <advance width="1520"/>
  <unicode hex="0BA9"/>
  <note>
uni0BA9
</note>
  <anchor x="669" y="0" name="bottom"/>
  <anchor x="1403" y="584" name="imatra"/>
  <anchor x="672" y="0" name="nukta"/>
  <anchor x="852" y="584" name="top"/>
  <anchor x="840" y="584" name="vedic"/>
  <outline>
    <contour>
      <point x="278" y="-5" type="curve" smooth="yes"/>
      <point x="405" y="-5"/>
      <point x="514" y="67"/>
      <point x="514" y="202" type="curve" smooth="yes"/>
      <point x="514" y="293"/>
      <point x="453" y="354"/>
      <point x="349" y="354" type="curve" smooth="yes"/>
      <point x="216" y="354"/>
      <point x="127" y="234"/>
      <point x="112" y="123" type="curve"/>
      <point x="160" y="92" type="line"/>
      <point x="175" y="169"/>
      <point x="211" y="230"/>
      <point x="268" y="230" type="curve" smooth="yes"/>
      <point x="304" y="230"/>
      <point x="325" y="203"/>
      <point x="325" y="170" type="curve" smooth="yes"/>
      <point x="325" y="121"/>
      <point x="295" y="88"/>
      <point x="237" y="88" type="curve" smooth="yes"/>
      <point x="185" y="88"/>
      <point x="122" y="145"/>
      <point x="122" y="249" type="curve" smooth="yes"/>
      <point x="122" y="398"/>
      <point x="293" y="506"/>
      <point x="482" y="506" type="curve" smooth="yes"/>
      <point x="649" y="506"/>
      <point x="826" y="431"/>
      <point x="826" y="259" type="curve" smooth="yes"/>
      <point x="826" y="158"/>
      <point x="784" y="100"/>
      <point x="723" y="100" type="curve" smooth="yes"/>
      <point x="681" y="100"/>
      <point x="659" y="137"/>
      <point x="659" y="199" type="curve" smooth="yes"/>
      <point x="659" y="406"/>
      <point x="909" y="509"/>
      <point x="1128" y="509" type="curve" smooth="yes"/>
      <point x="1553" y="509" type="line"/>
      <point x="1569" y="584" type="line"/>
      <point x="1134" y="584" type="line" smooth="yes"/>
      <point x="860" y="584"/>
      <point x="577" y="447"/>
      <point x="577" y="195" type="curve" smooth="yes"/>
      <point x="577" y="91"/>
      <point x="634" y="-4"/>
      <point x="769" y="-4" type="curve" smooth="yes"/>
      <point x="907" y="-4"/>
      <point x="1012" y="73"/>
      <point x="1012" y="233" type="curve" smooth="yes"/>
      <point x="1012" y="487"/>
      <point x="745" y="589"/>
      <point x="512" y="589" type="curve" smooth="yes"/>
      <point x="253" y="589"/>
      <point x="41" y="446"/>
      <point x="41" y="237" type="curve" smooth="yes"/>
      <point x="41" y="97"/>
      <point x="141" y="-5"/>
    </contour>
    <contour>
      <point x="1090" y="0" type="line"/>
      <point x="1312" y="0" type="line"/>
      <point x="1429" y="549" type="line"/>
      <point x="1206" y="549" type="line"/>
    </contour>
  </outline>
</glyph>
<glyph name="ya-tamil" format="2">
  <advance width="1132"/>
  <unicode hex="0BAF"/>
  <note>
uni0BAF
</note>
  <anchor x="515" y="0" name="bottom"/>
  <anchor x="1112" y="584" name="imatra"/>
  <anchor x="512" y="0" name="nukta"/>
  <anchor x="603" y="584" name="top"/>
  <anchor x="606" y="584" name="vedic"/>
  <outline>
    <contour>
      <point x="206" y="-13" type="curve" smooth="yes"/>
      <point x="285" y="-13"/>
      <point x="336" y="14"/>
      <point x="382" y="59" type="curve"/>
      <point x="369" y="0" type="line"/>
      <point x="998" y="0" type="line"/>
      <point x="1122" y="584" type="line"/>
      <point x="907" y="584" type="line"/>
      <point x="799" y="75" type="line"/>
      <point x="569" y="75" type="line"/>
      <point x="677" y="584" type="line"/>
      <point x="470" y="584" type="line"/>
      <point x="377" y="146" type="line" smooth="yes"/>
      <point x="369" y="108"/>
      <point x="341" y="87"/>
      <point x="308" y="87" type="curve" smooth="yes"/>
      <point x="268" y="87"/>
      <point x="247" y="113"/>
      <point x="258" y="163" type="curve" smooth="yes"/>
      <point x="347" y="584" type="line"/>
      <point x="132" y="584" type="line"/>
      <point x="49" y="195" type="line" smooth="yes"/>
      <point x="22" y="67"/>
      <point x="94" y="-13"/>
    </contour>
  </outline>
</glyph>
<glyph name="ra-tamil" format="2">
  <advance width="708"/>
  <unicode hex="0BB0"/>
  <note>
uni0BB0
</note>
  <anchor x="287" y="0" name="bottom"/>
  <anchor x="674" y="584" name="imatra"/>
  <anchor x="231" y="-266" name="nukta"/>
  <anchor x="432" y="584" name="top"/>
  <anchor x="449" y="584" name="vedic"/>
  <outline>
    <contour>
      <point x="2" y="-296" type="line"/>
      <point x="500" y="12" type="line"/>
      <point x="605" y="509" type="line"/>
      <point x="741" y="509" type="line"/>
      <point x="757" y="584" type="line"/>
      <point x="145" y="584" type="line"/>
      <point x="21" y="0" type="line"/>
      <point x="103" y="0" type="line"/>
      <point x="211" y="509" type="line"/>
      <point x="392" y="509" type="line"/>
      <point x="278" y="-28" type="line"/>
      <point x="-38" y="-226" type="line"/>
    </contour>
  </outline>
</glyph>
<glyph name="rra-tamil" format="2">
  <advance width="1013"/>
  <unicode hex="0BB1"/>
  <note>
uni0BB1
</note>
  <anchor x="528" y="0" name="bottom"/>
  <anchor x="500" y="-117" name="nukta"/>
  <anchor x="565" y="591" name="top"/>
  <anchor x="531" y="584" name="vedic"/>
  <outline>
    <contour>
      <point x="96" y="-313" type="curve"/>
      <point x="120" y="-200"/>
      <point x="172" y="-136"/>
      <point x="309" y="-136" type="curve" smooth="yes"/>
      <point x="466" y="-136" type="line" smooth="yes"/>
      <point x="767" y="-136"/>
      <point x="972" y="17"/>
      <point x="972" y="322" type="curve" smooth="yes"/>
      <point x="972" y="496"/>
      <point x="870" y="591"/>
      <point x="711" y="591" type="curve" smooth="yes"/>
      <point x="608" y="591"/>
      <point x="506" y="541"/>
      <point x="464" y="441" type="curve"/>
      <point x="456" y="536"/>
      <point x="393" y="590"/>
      <point x="302" y="590" type="curve" smooth="yes"/>
      <point x="196" y="590"/>
      <point x="123" y="525"/>
      <point x="97" y="404" type="curve" smooth="yes"/>
      <point x="11" y="0" type="line"/>
      <point x="96" y="0" type="line"/>
      <point x="180" y="395" type="line" smooth="yes"/>
      <point x="197" y="474"/>
      <point x="233" y="508"/>
      <point x="280" y="508" type="curve" smooth="yes"/>
      <point x="344" y="508"/>
      <point x="358" y="450"/>
      <point x="343" y="379" type="curve" smooth="yes"/>
      <point x="262" y="0" type="line"/>
      <point x="480" y="0" type="line"/>
      <point x="559" y="367" type="line" smooth="yes"/>
      <point x="578" y="455"/>
      <point x="611" y="508"/>
      <point x="674" y="508" type="curve" smooth="yes"/>
      <point x="739" y="508"/>
      <point x="761" y="455"/>
      <point x="761" y="378" type="curve" smooth="yes"/>
      <point x="761" y="118"/>
      <point x="674" y="-71"/>
      <point x="427" y="-71" type="curve" smooth="yes"/>
      <point x="250" y="-71" type="line" smooth="yes"/>
      <point x="82" y="-71"/>
      <point x="-47" y="-102"/>
      <point x="-47" y="-215" type="curve" smooth="yes"/>
      <point x="-47" y="-279"/>
      <point x="10" y="-313"/>
    </contour>
  </outline>
</glyph>
<glyph name="la-tamil" format="2">
  <advance width="1194"/>
  <unicode hex="0BB2"/>
  <note>
uni0BB2
</note>
  <anchor x="533" y="0" name="bottom"/>
  <anchor x="530" y="0" name="nukta"/>
  <anchor x="636" y="584" name="top"/>
  <anchor x="659" y="584" name="vedic"/>
  <outline>
    <contour>
      <point x="279" y="-5" type="curve" smooth="yes"/>
      <point x="406" y="-5"/>
      <point x="515" y="67"/>
      <point x="515" y="202" type="curve" smooth="yes"/>
      <point x="515" y="293"/>
      <point x="454" y="354"/>
      <point x="350" y="354" type="curve" smooth="yes"/>
      <point x="217" y="354"/>
      <point x="128" y="234"/>
      <point x="113" y="123" type="curve"/>
      <point x="161" y="92" type="line"/>
      <point x="176" y="169"/>
      <point x="212" y="230"/>
      <point x="269" y="230" type="curve" smooth="yes"/>
      <point x="305" y="230"/>
      <point x="326" y="203"/>
      <point x="326" y="170" type="curve" smooth="yes"/>
      <point x="326" y="121"/>
      <point x="296" y="88"/>
      <point x="238" y="88" type="curve" smooth="yes"/>
      <point x="186" y="88"/>
      <point x="123" y="145"/>
      <point x="123" y="249" type="curve" smooth="yes"/>
      <point x="123" y="398"/>
      <point x="256" y="502"/>
      <point x="428" y="502" type="curve" smooth="yes"/>
      <point x="583" y="502"/>
      <point x="661" y="413"/>
      <point x="625" y="265" type="curve" smooth="yes"/>
      <point x="613" y="216" type="line" smooth="yes"/>
      <point x="580" y="80"/>
      <point x="681" y="-5"/>
      <point x="820" y="-5" type="curve" smooth="yes"/>
      <point x="1022" y="-5"/>
      <point x="1157" y="161"/>
      <point x="1157" y="366" type="curve" smooth="yes"/>
      <point x="1157" y="460"/>
      <point x="1130" y="523"/>
      <point x="1095" y="588" type="curve"/>
      <point x="1022" y="550" type="line"/>
      <point x="1052" y="490"/>
      <point x="1075" y="435"/>
      <point x="1075" y="361" type="curve" smooth="yes"/>
      <point x="1075" y="205"/>
      <point x="972" y="88"/>
      <point x="884" y="88" type="curve" smooth="yes"/>
      <point x="823" y="88"/>
      <point x="813" y="135"/>
      <point x="832" y="212" type="curve" smooth="yes"/>
      <point x="847" y="272" type="line" smooth="yes"/>
      <point x="903" y="496"/>
      <point x="723" y="589"/>
      <point x="493" y="589" type="curve" smooth="yes"/>
      <point x="227" y="589"/>
      <point x="42" y="451"/>
      <point x="42" y="237" type="curve" smooth="yes"/>
      <point x="42" y="97"/>
      <point x="142" y="-5"/>
    </contour>
  </outline>
</glyph>
<glyph name="llla-tamil" format="2">
  <advance width="982"/>
  <unicode hex="0BB4"/>
  <note>
uni0BB4
</note>
  <anchor x="468" y="0" name="bottom"/>
  <anchor x="394" y="-395" name="nukta"/>
  <anchor x="568" y="584" name="top"/>
  <anchor x="564" y="584" name="vedic"/>
  <anchor x="985" y="584" name="imatra"/>
  <outline>
    <contour>
      <point x="237" y="-441" type="curve" smooth="yes"/>
      <point x="498" y="-441"/>
      <point x="567" y="-208"/>
      <point x="769" y="-208" type="curve" smooth="yes"/>
      <point x="774" y="-208" type="line"/>
      <point x="790" y="-136" type="line"/>
      <point x="765" y="-136" type="line" smooth="yes"/>
      <point x="664" y="-136"/>
      <point x="581" y="-91"/>
      <point x="603" y="15" type="curve" smooth="yes"/>
      <point x="625" y="122" type="line"/>
      <point x="410" y="122" type="line"/>
      <point x="390" y="21" type="line" smooth="yes"/>
      <point x="371" y="-74"/>
      <point x="460" y="-142"/>
      <point x="596" y="-160" type="curve"/>
      <point x="594" y="-166" type="line"/>
      <point x="394" y="-194"/>
      <point x="335" y="-349"/>
      <point x="193" y="-349" type="curve" smooth="yes"/>
      <point x="133" y="-349"/>
      <point x="91" y="-311"/>
      <point x="91" y="-252" type="curve" smooth="yes"/>
      <point x="91" y="-202"/>
      <point x="129" y="-155"/>
      <point x="188" y="-155" type="curve" smooth="yes"/>
      <point x="232" y="-155"/>
      <point x="266" y="-176"/>
      <point x="294" y="-208" type="curve"/>
      <point x="353" y="-153" type="line"/>
      <point x="314" y="-107"/>
      <point x="258" y="-81"/>
      <point x="189" y="-81" type="curve" smooth="yes"/>
      <point x="82" y="-81"/>
      <point x="10" y="-159"/>
      <point x="10" y="-263" type="curve" smooth="yes"/>
      <point x="10" y="-360"/>
      <point x="91" y="-441"/>
    </contour>
    <component base="ma-tamil"/>
  </outline>
</glyph>
<glyph name="va-tamil" format="2">
  <advance width="1261"/>
  <unicode hex="0BB5"/>
  <note>
uni0BB5
</note>
  <anchor x="603" y="0" name="bottom"/>
  <anchor x="1057" y="584" name="imatra"/>
  <anchor x="594" y="0" name="nukta"/>
  <anchor x="706" y="584" name="top"/>
  <anchor x="698" y="584" name="vedic"/>
  <outline>
    <contour>
      <point x="278" y="-5" type="curve" smooth="yes"/>
      <point x="405" y="-5"/>
      <point x="514" y="67"/>
      <point x="514" y="202" type="curve" smooth="yes"/>
      <point x="514" y="293"/>
      <point x="453" y="354"/>
      <point x="349" y="354" type="curve" smooth="yes"/>
      <point x="216" y="354"/>
      <point x="127" y="234"/>
      <point x="112" y="123" type="curve"/>
      <point x="160" y="92" type="line"/>
      <point x="175" y="169"/>
      <point x="211" y="230"/>
      <point x="268" y="230" type="curve" smooth="yes"/>
      <point x="304" y="230"/>
      <point x="325" y="203"/>
      <point x="325" y="170" type="curve" smooth="yes"/>
      <point x="325" y="121"/>
      <point x="295" y="88"/>
      <point x="237" y="88" type="curve" smooth="yes"/>
      <point x="185" y="88"/>
      <point x="122" y="145"/>
      <point x="122" y="249" type="curve" smooth="yes"/>
      <point x="122" y="378"/>
      <point x="264" y="504"/>
      <point x="423" y="504" type="curve" smooth="yes"/>
      <point x="569" y="504"/>
      <point x="656" y="429"/>
      <point x="656" y="287" type="curve" smooth="yes"/>
      <point x="656" y="198"/>
      <point x="619" y="122"/>
      <point x="563" y="50" type="curve"/>
      <point x="577" y="0" type="line"/>
      <point x="1127" y="0" type="line"/>
      <point x="1251" y="584" type="line"/>
      <point x="1037" y="584" type="line"/>
      <point x="929" y="75" type="line"/>
      <point x="723" y="75" type="line"/>
      <point x="802" y="132"/>
      <point x="869" y="209"/>
      <point x="869" y="326" type="curve" smooth="yes"/>
      <point x="869" y="504"/>
      <point x="706" y="589"/>
      <point x="489" y="589" type="curve" smooth="yes"/>
      <point x="231" y="589"/>
      <point x="41" y="426"/>
      <point x="41" y="237" type="curve" smooth="yes"/>
      <point x="41" y="97"/>
      <point x="141" y="-5"/>
    </contour>
  </outline>
</glyph>
<glyph name="sha-tamil" format="2">
  <advance width="1249"/>
  <unicode hex="0BB6"/>
  <note>
uni0BB6
</note>
  <anchor x="560" y="0" name="bottom"/>
  <anchor x="1063" y="584" name="imatra"/>
  <anchor x="560" y="0" name="nukta"/>
  <anchor x="685" y="584" name="top"/>
  <anchor x="695" y="584" name="vedic"/>
  <outline>
    <contour>
      <point x="273" y="-5" type="curve" smooth="yes"/>
      <point x="427" y="-5"/>
      <point x="521" y="58"/>
      <point x="553" y="209" type="curve" smooth="yes"/>
      <point x="617" y="509" type="line"/>
      <point x="754" y="509" type="line"/>
      <point x="692" y="216" type="line" smooth="yes"/>
      <point x="663" y="81"/>
      <point x="714" y="-6"/>
      <point x="853" y="-6" type="curve" smooth="yes"/>
      <point x="1090" y="-6"/>
      <point x="1217" y="221"/>
      <point x="1217" y="431" type="curve" smooth="yes"/>
      <point x="1217" y="527"/>
      <point x="1169" y="584"/>
      <point x="1063" y="584" type="curve" smooth="yes"/>
      <point x="549" y="584" type="line"/>
      <point x="471" y="218" type="line" smooth="yes"/>
      <point x="452" y="128"/>
      <point x="410" y="87"/>
      <point x="346" y="87" type="curve" smooth="yes"/>
      <point x="273" y="87"/>
      <point x="252" y="144"/>
      <point x="267" y="216" type="curve" smooth="yes"/>
      <point x="346" y="584" type="line"/>
      <point x="132" y="584" type="line"/>
      <point x="59" y="239" type="line" smooth="yes"/>
      <point x="27" y="87"/>
      <point x="120" y="-5"/>
    </contour>
    <contour>
      <point x="934" y="87" type="curve" smooth="yes"/>
      <point x="887" y="87"/>
      <point x="886" y="128"/>
      <point x="904" y="209" type="curve" smooth="yes"/>
      <point x="969" y="510" type="line"/>
      <point x="1056" y="510" type="line" smooth="yes"/>
      <point x="1117" y="510"/>
      <point x="1137" y="476"/>
      <point x="1137" y="416" type="curve" smooth="yes"/>
      <point x="1137" y="292"/>
      <point x="1048" y="87"/>
    </contour>
  </outline>
</glyph>
<glyph name="sa-tamil" format="2">
  <advance width="1567"/>
  <unicode hex="0BB8"/>
  <note>
uni0BB8
</note>
  <anchor x="735" y="0" name="bottom"/>
  <anchor x="735" y="0" name="nukta"/>
  <anchor x="839" y="584" name="top"/>
  <anchor x="837" y="584" name="vedic"/>
  <outline>
    <contour>
      <point x="574" y="0" type="line"/>
      <point x="796" y="0" type="line"/>
      <point x="886" y="424" type="line" smooth="yes"/>
      <point x="898" y="479"/>
      <point x="921" y="509"/>
      <point x="970" y="509" type="curve" smooth="yes"/>
      <point x="1017" y="509"/>
      <point x="1039" y="473"/>
      <point x="1026" y="414" type="curve" smooth="yes"/>
      <point x="982" y="216" type="line" smooth="yes"/>
      <point x="952" y="79"/>
      <point x="1050" y="-5"/>
      <point x="1189" y="-5" type="curve" smooth="yes"/>
      <point x="1404" y="-5"/>
      <point x="1526" y="148"/>
      <point x="1526" y="353" type="curve" smooth="yes"/>
      <point x="1526" y="447"/>
      <point x="1499" y="521"/>
      <point x="1467" y="587" type="curve"/>
      <point x="1392" y="551" type="line"/>
      <point x="1420" y="490"/>
      <point x="1444" y="422"/>
      <point x="1444" y="348" type="curve" smooth="yes"/>
      <point x="1444" y="192"/>
      <point x="1351" y="88"/>
      <point x="1253" y="88" type="curve" smooth="yes"/>
      <point x="1192" y="88"/>
      <point x="1184" y="134"/>
      <point x="1201" y="212" type="curve" smooth="yes"/>
      <point x="1235" y="367" type="line" smooth="yes"/>
      <point x="1269" y="520"/>
      <point x="1142" y="587"/>
      <point x="999" y="587" type="curve" smooth="yes"/>
      <point x="855" y="587"/>
      <point x="740" y="517"/>
      <point x="718" y="418" type="curve" smooth="yes"/>
      <point x="703" y="349" type="line"/>
      <point x="648" y="349" type="line"/>
    </contour>
    <contour>
      <point x="279" y="-5" type="curve" smooth="yes"/>
      <point x="406" y="-5"/>
      <point x="515" y="67"/>
      <point x="515" y="202" type="curve" smooth="yes"/>
      <point x="515" y="293"/>
      <point x="454" y="354"/>
      <point x="350" y="354" type="curve" smooth="yes"/>
      <point x="217" y="354"/>
      <point x="128" y="234"/>
      <point x="113" y="123" type="curve"/>
      <point x="161" y="92" type="line"/>
      <point x="176" y="169"/>
      <point x="212" y="230"/>
      <point x="269" y="230" type="curve" smooth="yes"/>
      <point x="305" y="230"/>
      <point x="326" y="203"/>
      <point x="326" y="170" type="curve" smooth="yes"/>
      <point x="326" y="121"/>
      <point x="296" y="88"/>
      <point x="238" y="88" type="curve" smooth="yes"/>
      <point x="186" y="88"/>
      <point x="123" y="145"/>
      <point x="123" y="249" type="curve" smooth="yes"/>
      <point x="123" y="395"/>
      <point x="246" y="505"/>
      <point x="426" y="505" type="curve" smooth="yes"/>
      <point x="577" y="505"/>
      <point x="665" y="427"/>
      <point x="633" y="278" type="curve"/>
      <point x="732" y="277" type="line"/>
      <point x="769" y="502"/>
      <point x="605" y="587"/>
      <point x="437" y="587" type="curve" smooth="yes"/>
      <point x="212" y="587"/>
      <point x="42" y="440"/>
      <point x="42" y="237" type="curve" smooth="yes"/>
      <point x="42" y="97"/>
      <point x="142" y="-5"/>
    </contour>
  </outline>
</glyph>
<glyph name="ha-tamil" format="2">
  <advance width="1918"/>
  <unicode hex="0BB9"/>
  <note>
uni0BB9
</note>
  <anchor x="921" y="0" name="bottom"/>
  <anchor x="886" y="-165" name="nukta"/>
  <anchor x="1054" y="584" name="top"/>
  <anchor x="1045" y="584" name="vedic"/>
  <outline>
    <contour>
      <point x="160" y="-344" type="curve"/>
      <point x="184" y="-231"/>
      <point x="236" y="-167"/>
      <point x="373" y="-167" type="curve" smooth="yes"/>
      <point x="1230" y="-167" type="line" smooth="yes"/>
      <point x="1657" y="-167"/>
      <point x="1877" y="11"/>
      <point x="1877" y="322" type="curve" smooth="yes"/>
      <point x="1877" y="496"/>
      <point x="1775" y="591"/>
      <point x="1616" y="591" type="curve" smooth="yes"/>
      <point x="1513" y="591"/>
      <point x="1411" y="541"/>
      <point x="1369" y="441" type="curve"/>
      <point x="1361" y="536"/>
      <point x="1298" y="590"/>
      <point x="1207" y="590" type="curve" smooth="yes"/>
      <point x="1101" y="590"/>
      <point x="1028" y="525"/>
      <point x="1002" y="404" type="curve" smooth="yes"/>
      <point x="931" y="75" type="line"/>
      <point x="723" y="75" type="line"/>
      <point x="802" y="132"/>
      <point x="869" y="205"/>
      <point x="869" y="322" type="curve" smooth="yes"/>
      <point x="869" y="500"/>
      <point x="691" y="589"/>
      <point x="479" y="589" type="curve" smooth="yes"/>
      <point x="221" y="589"/>
      <point x="41" y="431"/>
      <point x="41" y="237" type="curve" smooth="yes"/>
      <point x="41" y="97"/>
      <point x="141" y="-5"/>
      <point x="278" y="-5" type="curve" smooth="yes"/>
      <point x="405" y="-5"/>
      <point x="514" y="67"/>
      <point x="514" y="202" type="curve" smooth="yes"/>
      <point x="514" y="293"/>
      <point x="453" y="354"/>
      <point x="349" y="354" type="curve" smooth="yes"/>
      <point x="216" y="354"/>
      <point x="127" y="234"/>
      <point x="112" y="123" type="curve"/>
      <point x="160" y="92" type="line"/>
      <point x="175" y="169"/>
      <point x="211" y="230"/>
      <point x="268" y="230" type="curve" smooth="yes"/>
      <point x="304" y="230"/>
      <point x="325" y="203"/>
      <point x="325" y="170" type="curve" smooth="yes"/>
      <point x="325" y="121"/>
      <point x="295" y="88"/>
      <point x="237" y="88" type="curve" smooth="yes"/>
      <point x="185" y="88"/>
      <point x="122" y="145"/>
      <point x="122" y="249" type="curve" smooth="yes"/>
      <point x="122" y="378"/>
      <point x="259" y="504"/>
      <point x="413" y="504" type="curve" smooth="yes"/>
      <point x="554" y="504"/>
      <point x="656" y="429"/>
      <point x="656" y="287" type="curve" smooth="yes"/>
      <point x="656" y="198"/>
      <point x="619" y="122"/>
      <point x="563" y="50" type="curve"/>
      <point x="577" y="0" type="line"/>
      <point x="1001" y="0" type="line"/>
      <point x="1085" y="395" type="line" smooth="yes"/>
      <point x="1102" y="474"/>
      <point x="1138" y="508"/>
      <point x="1185" y="508" type="curve" smooth="yes"/>
      <point x="1249" y="508"/>
      <point x="1263" y="450"/>
      <point x="1248" y="379" type="curve" smooth="yes"/>
      <point x="1167" y="0" type="line"/>
      <point x="1385" y="0" type="line"/>
      <point x="1464" y="367" type="line" smooth="yes"/>
      <point x="1483" y="455"/>
      <point x="1516" y="508"/>
      <point x="1579" y="508" type="curve" smooth="yes"/>
      <point x="1644" y="508"/>
      <point x="1666" y="455"/>
      <point x="1666" y="378" type="curve" smooth="yes"/>
      <point x="1666" y="112"/>
      <point x="1556" y="-102"/>
      <point x="1187" y="-102" type="curve" smooth="yes"/>
      <point x="314" y="-102" type="line" smooth="yes"/>
      <point x="146" y="-102"/>
      <point x="17" y="-133"/>
      <point x="17" y="-246" type="curve" smooth="yes"/>
      <point x="17" y="-310"/>
      <point x="74" y="-344"/>
    </contour>
  </outline>
</glyph>
<glyph name="aaMatra-tamil" format="2">
  <advance width="692"/>
  <unicode hex="0BBE"/>
  <note>
uni0BBE
</note>
  <anchor x="299" y="0" name="bottom"/>
  <anchor x="298" y="0" name="nukta"/>
  <anchor x="416" y="584" name="top"/>
  <anchor x="416" y="584" name="vedic"/>
  <outline>
    <contour>
      <point x="10" y="0" type="line"/>
      <point x="92" y="0" type="line"/>
      <point x="200" y="509" type="line"/>
      <point x="382" y="509" type="line"/>
      <point x="273" y="0" type="line"/>
      <point x="490" y="0" type="line"/>
      <point x="598" y="509" type="line"/>
      <point x="725" y="509" type="line"/>
      <point x="740" y="584" type="line"/>
      <point x="134" y="584" type="line"/>
    </contour>
  </outline>
</glyph>
<glyph name="iMatra-tamil" format="2">
  <advance width="219"/>
  <unicode hex="0BBF"/>
  <note>
uni0BBF
</note>
  <anchor x="-90" y="910" name="top"/>
  <outline>
    <contour>
      <point x="2" y="0" type="line"/>
      <point x="88" y="0" type="line"/>
      <point x="204" y="542" type="line" smooth="yes"/>
      <point x="252" y="766"/>
      <point x="128" y="910"/>
      <point x="-90" y="910" type="curve" smooth="yes"/>
      <point x="-253" y="910"/>
      <point x="-388" y="816"/>
      <point x="-388" y="674" type="curve" smooth="yes"/>
      <point x="-388" y="574"/>
      <point x="-333" y="513"/>
      <point x="-224" y="513" type="curve" smooth="yes"/>
      <point x="-222" y="513" type="line"/>
      <point x="-208" y="583" type="line"/>
      <point x="-210" y="583" type="line" smooth="yes"/>
      <point x="-250" y="583"/>
      <point x="-282" y="604"/>
      <point x="-282" y="648" type="curve" smooth="yes"/>
      <point x="-282" y="716"/>
      <point x="-209" y="756"/>
      <point x="-106" y="756" type="curve" smooth="yes"/>
      <point x="53" y="756"/>
      <point x="143" y="661"/>
      <point x="110" y="507" type="curve" smooth="yes"/>
    </contour>
  </outline>
</glyph>
<glyph name="iiMatra-tamil" format="2">
  <unicode hex="0BC0"/>
  <note>
uni0BC0
</note>
  <anchor x="65" y="584" name="_imatra"/>
  <anchor x="117" y="945" name="top"/>
  <outline>
    <contour>
      <point x="24" y="509" type="curve" smooth="yes"/>
      <point x="47" y="509" type="line"/>
      <point x="63" y="584" type="line"/>
      <point x="43" y="584" type="line" smooth="yes"/>
      <point x="-37" y="584"/>
      <point x="-88" y="634"/>
      <point x="-88" y="705" type="curve" smooth="yes"/>
      <point x="-88" y="796"/>
      <point x="-6" y="862"/>
      <point x="99" y="862" type="curve" smooth="yes"/>
      <point x="156" y="862"/>
      <point x="192" y="837"/>
      <point x="192" y="792" type="curve" smooth="yes"/>
      <point x="192" y="747"/>
      <point x="163" y="716"/>
      <point x="117" y="716" type="curve" smooth="yes"/>
      <point x="39" y="716"/>
      <point x="50" y="815"/>
      <point x="102" y="888" type="curve"/>
      <point x="47" y="893" type="line"/>
      <point x="-65" y="767"/>
      <point x="-20" y="616"/>
      <point x="148" y="616" type="curve" smooth="yes"/>
      <point x="248" y="616"/>
      <point x="345" y="676"/>
      <point x="345" y="784" type="curve" smooth="yes"/>
      <point x="345" y="895"/>
      <point x="243" y="945"/>
      <point x="117" y="945" type="curve" smooth="yes"/>
      <point x="-41" y="945"/>
      <point x="-175" y="845"/>
      <point x="-175" y="695" type="curve" smooth="yes"/>
      <point x="-175" y="579"/>
      <point x="-83" y="509"/>
    </contour>
  </outline>
</glyph>
<glyph name="uuMatra-tamil" format="2">
  <advance width="981"/>
  <unicode hex="0BC2"/>
  <note>
uni0BC2
</note>
  <outline>
    <contour>
      <point x="379" y="8" type="curve" smooth="yes"/>
      <point x="680" y="8"/>
      <point x="944" y="177"/>
      <point x="944" y="449" type="curve" smooth="yes"/>
      <point x="944" y="713"/>
      <point x="736" y="799"/>
      <point x="544" y="799" type="curve" smooth="yes"/>
      <point x="309" y="799"/>
      <point x="183" y="669"/>
      <point x="153" y="531" type="curve" smooth="yes"/>
      <point x="134" y="444" type="line" smooth="yes"/>
      <point x="107" y="319"/>
      <point x="169" y="233"/>
      <point x="315" y="233" type="curve" smooth="yes"/>
      <point x="436" y="233"/>
      <point x="541" y="281"/>
      <point x="570" y="412" type="curve" smooth="yes"/>
      <point x="608" y="584" type="line"/>
      <point x="-301" y="584" type="line"/>
      <point x="-262" y="509" type="line"/>
      <point x="375" y="509" type="line"/>
      <point x="355" y="413" type="line" smooth="yes"/>
      <point x="342" y="351"/>
      <point x="312" y="323"/>
      <point x="268" y="323" type="curve" smooth="yes"/>
      <point x="218" y="323"/>
      <point x="198" y="362"/>
      <point x="214" y="432" type="curve" smooth="yes"/>
      <point x="236" y="531" type="line" smooth="yes"/>
      <point x="256" y="621"/>
      <point x="333" y="709"/>
      <point x="484" y="709" type="curve" smooth="yes"/>
      <point x="619" y="709"/>
      <point x="719" y="638"/>
      <point x="719" y="472" type="curve" smooth="yes"/>
      <point x="719" y="240"/>
      <point x="567" y="99"/>
      <point x="354" y="99" type="curve" smooth="yes"/>
      <point x="239" y="99"/>
      <point x="133" y="127"/>
      <point x="56" y="234" type="curve"/>
      <point x="-18" y="177" type="line"/>
      <point x="70" y="61"/>
      <point x="196" y="8"/>
    </contour>
  </outline>
</glyph>
<glyph name="eMatra-tamil" format="2">
  <advance width="893"/>
  <unicode hex="0BC6"/>
  <note>
uni0BC6
</note>
  <outline>
    <contour>
      <point x="329" y="-5" type="curve" smooth="yes"/>
      <point x="456" y="-5"/>
      <point x="565" y="67"/>
      <point x="565" y="202" type="curve" smooth="yes"/>
      <point x="565" y="293"/>
      <point x="504" y="354"/>
      <point x="400" y="354" type="curve" smooth="yes"/>
      <point x="267" y="354"/>
      <point x="178" y="234"/>
      <point x="163" y="123" type="curve"/>
      <point x="211" y="92" type="line"/>
      <point x="226" y="169"/>
      <point x="262" y="230"/>
      <point x="319" y="230" type="curve" smooth="yes"/>
      <point x="355" y="230"/>
      <point x="376" y="203"/>
      <point x="376" y="170" type="curve" smooth="yes"/>
      <point x="376" y="121"/>
      <point x="346" y="88"/>
      <point x="288" y="88" type="curve" smooth="yes"/>
      <point x="236" y="88"/>
      <point x="154" y="149"/>
      <point x="154" y="323" type="curve" smooth="yes"/>
      <point x="154" y="530"/>
      <point x="298" y="707"/>
      <point x="532" y="707" type="curve" smooth="yes"/>
      <point x="671" y="707"/>
      <point x="775" y="641"/>
      <point x="775" y="497" type="curve" smooth="yes"/>
      <point x="775" y="474"/>
      <point x="773" y="449"/>
      <point x="767" y="422" type="curve" smooth="yes"/>
      <point x="678" y="0" type="line"/>
      <point x="763" y="0" type="line"/>
      <point x="862" y="464" type="line" smooth="yes"/>
      <point x="871" y="505"/>
      <point x="875" y="544"/>
      <point x="875" y="579" type="curve" smooth="yes"/>
      <point x="875" y="765"/>
      <point x="760" y="875"/>
      <point x="555" y="875" type="curve" smooth="yes"/>
      <point x="248" y="875"/>
      <point x="73" y="605"/>
      <point x="73" y="311" type="curve" smooth="yes"/>
      <point x="73" y="105"/>
      <point x="192" y="-5"/>
    </contour>
  </outline>
</glyph>
<glyph name="aiMatra-tamil" format="2">
  <advance width="1470"/>
  <unicode hex="0BC8"/>
  <note>
uni0BC8
</note>
  <outline>
    <contour>
      <point x="1110" y="-20" type="line"/>
      <point x="1285" y="35"/>
      <point x="1421" y="129"/>
      <point x="1421" y="301" type="curve" smooth="yes"/>
      <point x="1421" y="507"/>
      <point x="1218" y="589"/>
      <point x="1029" y="589" type="curve" smooth="yes"/>
      <point x="823" y="589"/>
      <point x="575" y="436"/>
      <point x="575" y="196" type="curve" smooth="yes"/>
      <point x="575" y="92"/>
      <point x="628" y="-4"/>
      <point x="764" y="-4" type="curve" smooth="yes"/>
      <point x="902" y="-4"/>
      <point x="1010" y="94"/>
      <point x="1010" y="245" type="curve" smooth="yes"/>
      <point x="1010" y="492"/>
      <point x="788" y="589"/>
      <point x="537" y="589" type="curve" smooth="yes"/>
      <point x="280" y="589"/>
      <point x="39" y="444"/>
      <point x="39" y="227" type="curve" smooth="yes"/>
      <point x="39" y="87"/>
      <point x="133" y="-5"/>
      <point x="270" y="-5" type="curve" smooth="yes"/>
      <point x="397" y="-5"/>
      <point x="512" y="67"/>
      <point x="512" y="202" type="curve" smooth="yes"/>
      <point x="512" y="293"/>
      <point x="451" y="354"/>
      <point x="347" y="354" type="curve" smooth="yes"/>
      <point x="214" y="354"/>
      <point x="125" y="234"/>
      <point x="110" y="123" type="curve"/>
      <point x="158" y="92" type="line"/>
      <point x="173" y="169"/>
      <point x="209" y="230"/>
      <point x="266" y="230" type="curve" smooth="yes"/>
      <point x="302" y="230"/>
      <point x="323" y="203"/>
      <point x="323" y="170" type="curve" smooth="yes"/>
      <point x="323" y="121"/>
      <point x="291" y="88"/>
      <point x="233" y="88" type="curve" smooth="yes"/>
      <point x="181" y="88"/>
      <point x="120" y="135"/>
      <point x="120" y="239" type="curve" smooth="yes"/>
      <point x="120" y="400"/>
      <point x="315" y="506"/>
      <point x="512" y="506" type="curve" smooth="yes"/>
      <point x="689" y="506"/>
      <point x="824" y="435"/>
      <point x="824" y="263" type="curve" smooth="yes"/>
      <point x="824" y="160"/>
      <point x="782" y="100"/>
      <point x="721" y="100" type="curve" smooth="yes"/>
      <point x="679" y="100"/>
      <point x="657" y="138"/>
      <point x="657" y="200" type="curve" smooth="yes"/>
      <point x="657" y="395"/>
      <point x="853" y="506"/>
      <point x="1009" y="506" type="curve" smooth="yes"/>
      <point x="1138" y="506"/>
      <point x="1237" y="439"/>
      <point x="1237" y="311" type="curve" smooth="yes"/>
      <point x="1237" y="183"/>
      <point x="1186" y="115"/>
      <point x="1082" y="34" type="curve"/>
    </contour>
  </outline>
</glyph>
<glyph name="halant-tamil" format="2">
  <unicode hex="0BCD"/>
  <note>
uni0BCD
</note>
  <anchor x="65" y="584" name="_top"/>
  <anchor x="113" y="824" name="top"/>
  <outline>
    <contour>
      <point x="99" y="658" type="curve" smooth="yes"/>
      <point x="155" y="658"/>
      <point x="203" y="703"/>
      <point x="203" y="758" type="curve" smooth="yes"/>
      <point x="203" y="812"/>
      <point x="156" y="858"/>
      <point x="100" y="858" type="curve" smooth="yes"/>
      <point x="43" y="858"/>
      <point x="-4" y="812"/>
      <point x="-4" y="758" type="curve" smooth="yes"/>
      <point x="-4" y="703"/>
      <point x="42" y="658"/>
    </contour>
  </outline>
</glyph>
<glyph name="om-tamil" format="2">
  <advance width="1172"/>
  <unicode hex="0BD0"/>
  <note>
uni0BD0
</note>
  <outline>
    <contour>
      <point x="271" y="-414" type="curve" smooth="yes"/>
      <point x="586" y="-414"/>
      <point x="632" y="-186"/>
      <point x="822" y="-186" type="curve" smooth="yes"/>
      <point x="885" y="-186" type="line"/>
      <point x="900" y="-112" type="line"/>
      <point x="808" y="-112" type="line" smooth="yes"/>
      <point x="684" y="-112"/>
      <point x="615" y="-35"/>
      <point x="615" y="61" type="curve" smooth="yes"/>
      <point x="615" y="120"/>
      <point x="641" y="186"/>
      <point x="697" y="245" type="curve"/>
      <point x="702" y="241" type="line"/>
      <point x="682" y="201"/>
      <point x="672" y="164"/>
      <point x="672" y="131" type="curve" smooth="yes"/>
      <point x="672" y="52"/>
      <point x="730" y="-2"/>
      <point x="843" y="-2" type="curve" smooth="yes"/>
      <point x="992" y="-2"/>
      <point x="1113" y="95"/>
      <point x="1113" y="254" type="curve" smooth="yes"/>
      <point x="1113" y="488"/>
      <point x="847" y="589"/>
      <point x="587" y="589" type="curve" smooth="yes"/>
      <point x="302" y="589"/>
      <point x="40" y="450"/>
      <point x="40" y="237" type="curve" smooth="yes"/>
      <point x="40" y="97"/>
      <point x="140" y="5"/>
      <point x="277" y="5" type="curve" smooth="yes"/>
      <point x="404" y="5"/>
      <point x="513" y="77"/>
      <point x="513" y="212" type="curve" smooth="yes"/>
      <point x="513" y="303"/>
      <point x="452" y="364"/>
      <point x="348" y="364" type="curve" smooth="yes"/>
      <point x="215" y="364"/>
      <point x="117" y="234"/>
      <point x="102" y="123" type="curve"/>
      <point x="147" y="92" type="line"/>
      <point x="162" y="169"/>
      <point x="210" y="240"/>
      <point x="267" y="240" type="curve" smooth="yes"/>
      <point x="303" y="240"/>
      <point x="324" y="213"/>
      <point x="324" y="180" type="curve" smooth="yes"/>
      <point x="324" y="131"/>
      <point x="294" y="98"/>
      <point x="236" y="98" type="curve" smooth="yes"/>
      <point x="184" y="98"/>
      <point x="121" y="139"/>
      <point x="121" y="243" type="curve" smooth="yes"/>
      <point x="121" y="406"/>
      <point x="340" y="513"/>
      <point x="560" y="513" type="curve" smooth="yes"/>
      <point x="765" y="513"/>
      <point x="920" y="421"/>
      <point x="920" y="269" type="curve" smooth="yes"/>
      <point x="920" y="185"/>
      <point x="883" y="98"/>
      <point x="797" y="98" type="curve" smooth="yes"/>
      <point x="762" y="98"/>
      <point x="746" y="125"/>
      <point x="746" y="161" type="curve" smooth="yes"/>
      <point x="746" y="202"/>
      <point x="766" y="256"/>
      <point x="799" y="298" type="curve"/>
      <point x="726" y="356" type="line"/>
      <point x="613" y="271"/>
      <point x="542" y="150"/>
      <point x="542" y="45" type="curve" smooth="yes"/>
      <point x="542" y="-27"/>
      <point x="575" y="-92"/>
      <point x="650" y="-135" type="curve"/>
      <point x="649" y="-140" type="line"/>
      <point x="469" y="-165"/>
      <point x="457" y="-330"/>
      <point x="239" y="-330" type="curve" smooth="yes"/>
      <point x="133" y="-330"/>
      <point x="66" y="-283"/>
      <point x="66" y="-206" type="curve" smooth="yes"/>
      <point x="66" y="-185"/>
      <point x="71" y="-162"/>
      <point x="81" y="-137" type="curve"/>
      <point x="9" y="-121" type="line"/>
      <point x="-3" y="-155"/>
      <point x="-9" y="-187"/>
      <point x="-9" y="-216" type="curve" smooth="yes"/>
      <point x="-9" y="-342"/>
      <point x="103" y="-414"/>
    </contour>
    <contour>
      <point x="112" y="-265" type="line"/>
      <point x="170" y="-265" type="line"/>
      <point x="204" y="-108" type="line"/>
      <point x="146" y="-108" type="line"/>
    </contour>
    <contour>
      <point x="133" y="-265" type="line"/>
      <point x="365" y="-265" type="line"/>
      <point x="376" y="-214" type="line"/>
      <point x="144" y="-214" type="line"/>
    </contour>
    <contour>
      <point x="225" y="-265" type="line"/>
      <point x="280" y="-265" type="line"/>
      <point x="299" y="-178" type="line" smooth="yes"/>
      <point x="302" y="-165"/>
      <point x="311" y="-153"/>
      <point x="328" y="-153" type="curve" smooth="yes"/>
      <point x="348" y="-153"/>
      <point x="353" y="-169"/>
      <point x="350" y="-184" type="curve" smooth="yes"/>
      <point x="333" y="-265" type="line"/>
      <point x="391" y="-265" type="line"/>
      <point x="406" y="-194" type="line" smooth="yes"/>
      <point x="418" y="-139"/>
      <point x="389" y="-105"/>
      <point x="334" y="-105" type="curve" smooth="yes"/>
      <point x="290" y="-105"/>
      <point x="255" y="-126"/>
      <point x="243" y="-181" type="curve" smooth="yes"/>
    </contour>
    <contour>
      <point x="292" y="-93" type="curve" smooth="yes"/>
      <point x="313" y="-93"/>
      <point x="329" y="-77"/>
      <point x="329" y="-58" type="curve" smooth="yes"/>
      <point x="329" y="-39"/>
      <point x="313" y="-22"/>
      <point x="292" y="-22" type="curve" smooth="yes"/>
      <point x="272" y="-22"/>
      <point x="255" y="-39"/>
      <point x="255" y="-58" type="curve" smooth="yes"/>
      <point x="255" y="-77"/>
      <point x="272" y="-93"/>
    </contour>
  </outline>
</glyph>
<glyph name="zero-tamil" format="2">
  <advance width="688"/>
  <unicode hex="0BE6"/>
  <note>
uni0BE6
</note>
  <outline>
    <contour>
      <point x="307" y="-5" type="curve" smooth="yes"/>
      <point x="483" y="-5"/>
      <point x="644" y="107"/>
      <point x="644" y="322" type="curve" smooth="yes"/>
      <point x="644" y="488"/>
      <point x="530" y="590"/>
      <point x="364" y="590" type="curve" smooth="yes"/>
      <point x="180" y="590"/>
      <point x="43" y="442"/>
      <point x="43" y="268" type="curve" smooth="yes"/>
      <point x="43" y="116"/>
      <point x="124" y="-5"/>
    </contour>
    <contour>
      <point x="266" y="90" type="curve" smooth="yes"/>
      <point x="172" y="90"/>
      <point x="126" y="174"/>
      <point x="126" y="276" type="curve" smooth="yes"/>
      <point x="126" y="394"/>
      <point x="206" y="494"/>
      <point x="317" y="494" type="curve" smooth="yes"/>
      <point x="404" y="494"/>
      <point x="457" y="431"/>
      <point x="457" y="329" type="curve" smooth="yes"/>
      <point x="457" y="175"/>
      <point x="376" y="90"/>
    </contour>
  </outline>
</glyph>
<glyph name="two-tamil" format="2">
  <advance width="1084"/>
  <unicode hex="0BE8"/>
  <note>
uni0BE8
</note>
  <outline>
    <contour>
      <point x="121" y="0" type="curve" smooth="yes"/>
      <point x="1008" y="0" type="line"/>
      <point x="1024" y="75" type="line"/>
      <point x="126" y="75" type="line" smooth="yes"/>
      <point x="110" y="75"/>
      <point x="98" y="86"/>
      <point x="98" y="100" type="curve" smooth="yes"/>
      <point x="98" y="124"/>
      <point x="121" y="130"/>
      <point x="139" y="130" type="curve" smooth="yes"/>
      <point x="411" y="130" type="line" smooth="yes"/>
      <point x="615" y="130"/>
      <point x="802" y="197"/>
      <point x="802" y="381" type="curve" smooth="yes"/>
      <point x="802" y="535"/>
      <point x="663" y="589"/>
      <point x="484" y="589" type="curve" smooth="yes"/>
      <point x="293" y="589"/>
      <point x="154" y="479"/>
      <point x="154" y="333" type="curve" smooth="yes"/>
      <point x="154" y="231"/>
      <point x="213" y="154"/>
      <point x="372" y="154" type="curve"/>
      <point x="383" y="200" type="line"/>
      <point x="272" y="200"/>
      <point x="228" y="262"/>
      <point x="228" y="342" type="curve" smooth="yes"/>
      <point x="228" y="445"/>
      <point x="328" y="515"/>
      <point x="433" y="515" type="curve" smooth="yes"/>
      <point x="533" y="515"/>
      <point x="600" y="475"/>
      <point x="600" y="384" type="curve" smooth="yes"/>
      <point x="600" y="266"/>
      <point x="510" y="200"/>
      <point x="383" y="200" type="curve" smooth="yes"/>
      <point x="150" y="200" type="line" smooth="yes"/>
      <point x="74" y="200"/>
      <point x="17" y="161"/>
      <point x="17" y="92" type="curve" smooth="yes"/>
      <point x="17" y="36"/>
      <point x="57" y="0"/>
    </contour>
  </outline>
</glyph>
<glyph name="three-tamil" format="2">
  <advance width="962"/>
  <unicode hex="0BE9"/>
  <note>
uni0BE9
</note>
  <outline>
    <contour>
      <point x="10" y="0" type="line"/>
      <point x="97" y="0" type="line"/>
      <point x="205" y="509" type="line"/>
      <point x="333" y="509" type="line"/>
      <point x="262" y="175" type="line"/>
      <point x="461" y="175" type="line"/>
      <point x="474" y="233" type="line" smooth="yes"/>
      <point x="480" y="260"/>
      <point x="494" y="281"/>
      <point x="520" y="281" type="curve" smooth="yes"/>
      <point x="543" y="281"/>
      <point x="560" y="265"/>
      <point x="560" y="230" type="curve" smooth="yes"/>
      <point x="560" y="131"/>
      <point x="493" y="75"/>
      <point x="392" y="75" type="curve" smooth="yes"/>
      <point x="241" y="75" type="line"/>
      <point x="225" y="0" type="line"/>
      <point x="889" y="0" type="line"/>
      <point x="906" y="75" type="line"/>
      <point x="577" y="75" type="line"/>
      <point x="686" y="107"/>
      <point x="770" y="172"/>
      <point x="770" y="277" type="curve" smooth="yes"/>
      <point x="770" y="355"/>
      <point x="715" y="401"/>
      <point x="637" y="401" type="curve" smooth="yes"/>
      <point x="573" y="401"/>
      <point x="531" y="372"/>
      <point x="502" y="342" type="curve"/>
      <point x="537" y="509" type="line"/>
      <point x="690" y="509" type="line"/>
      <point x="706" y="584" type="line"/>
      <point x="134" y="584" type="line"/>
    </contour>
  </outline>
</glyph>
<glyph name="four-tamil" format="2">
  <advance width="956"/>
  <unicode hex="0BEA"/>
  <note>
uni0BEA
</note>
  <outline>
    <contour>
      <point x="283" y="-4" type="curve" smooth="yes"/>
      <point x="471" y="-4"/>
      <point x="551" y="83"/>
      <point x="586" y="227" type="curve" smooth="yes"/>
      <point x="597" y="272" type="line"/>
      <point x="925" y="272" type="line"/>
      <point x="991" y="584" type="line"/>
      <point x="907" y="584" type="line"/>
      <point x="857" y="348" type="line"/>
      <point x="613" y="348" type="line"/>
      <point x="647" y="508" type="line"/>
      <point x="801" y="508" type="line"/>
      <point x="817" y="584" type="line"/>
      <point x="230" y="584" type="line"/>
      <point x="172" y="310" type="line"/>
      <point x="255" y="310" type="line"/>
      <point x="297" y="508" type="line"/>
      <point x="432" y="508" type="line"/>
      <point x="398" y="348" type="line"/>
      <point x="262" y="348" type="line" smooth="yes"/>
      <point x="134" y="348"/>
      <point x="40" y="280"/>
      <point x="40" y="164" type="curve" smooth="yes"/>
      <point x="40" y="68"/>
      <point x="117" y="-4"/>
    </contour>
    <contour>
      <point x="227" y="83" type="curve" smooth="yes"/>
      <point x="167" y="83"/>
      <point x="119" y="115"/>
      <point x="119" y="174" type="curve" smooth="yes"/>
      <point x="119" y="239"/>
      <point x="166" y="272"/>
      <point x="254" y="272" type="curve" smooth="yes"/>
      <point x="382" y="272" type="line"/>
      <point x="372" y="226" type="line" smooth="yes"/>
      <point x="350" y="126"/>
      <point x="311" y="83"/>
    </contour>
  </outline>
</glyph>
<glyph name="six-tamil" format="2">
  <advance width="1327"/>
  <unicode hex="0BEC"/>
  <note>
uni0BEC
</note>
  <outline>
    <contour>
      <point x="283" y="-4" type="curve" smooth="yes"/>
      <point x="471" y="-4"/>
      <point x="551" y="83"/>
      <point x="586" y="227" type="curve" smooth="yes"/>
      <point x="597" y="272" type="line"/>
      <point x="635" y="272" type="line" smooth="yes"/>
      <point x="673" y="272"/>
      <point x="689" y="250"/>
      <point x="680" y="210" type="curve" smooth="yes"/>
      <point x="635" y="0" type="line"/>
      <point x="843" y="0" type="line"/>
      <point x="887" y="210" type="line" smooth="yes"/>
      <point x="895" y="250"/>
      <point x="919" y="272"/>
      <point x="957" y="272" type="curve" smooth="yes"/>
      <point x="1298" y="272" type="line"/>
      <point x="1314" y="348" type="line"/>
      <point x="924" y="348" type="line" smooth="yes"/>
      <point x="863" y="348"/>
      <point x="814" y="319"/>
      <point x="791" y="263" type="curve"/>
      <point x="790" y="319"/>
      <point x="750" y="348"/>
      <point x="688" y="348" type="curve" smooth="yes"/>
      <point x="613" y="348" type="line"/>
      <point x="647" y="508" type="line"/>
      <point x="801" y="508" type="line"/>
      <point x="817" y="584" type="line"/>
      <point x="230" y="584" type="line"/>
      <point x="172" y="310" type="line"/>
      <point x="255" y="310" type="line"/>
      <point x="297" y="508" type="line"/>
      <point x="432" y="508" type="line"/>
      <point x="398" y="348" type="line"/>
      <point x="262" y="348" type="line" smooth="yes"/>
      <point x="134" y="348"/>
      <point x="40" y="280"/>
      <point x="40" y="164" type="curve" smooth="yes"/>
      <point x="40" y="68"/>
      <point x="117" y="-4"/>
    </contour>
    <contour>
      <point x="227" y="83" type="curve" smooth="yes"/>
      <point x="167" y="83"/>
      <point x="119" y="115"/>
      <point x="119" y="174" type="curve" smooth="yes"/>
      <point x="119" y="239"/>
      <point x="166" y="272"/>
      <point x="254" y="272" type="curve" smooth="yes"/>
      <point x="382" y="272" type="line"/>
      <point x="372" y="226" type="line" smooth="yes"/>
      <point x="350" y="126"/>
      <point x="311" y="83"/>
    </contour>
    <contour>
      <point x="957" y="0" type="line"/>
      <point x="1166" y="0" type="line"/>
      <point x="1229" y="297" type="line"/>
      <point x="1021" y="297" type="line"/>
    </contour>
  </outline>
</glyph>
<glyph name="eight-tamil" format="2">
  <advance width="1482"/>
  <unicode hex="0BEE"/>
  <note>
uni0BEE
</note>
  <outline>
    <contour>
      <point x="1075" y="-275" type="line"/>
      <point x="1288" y="-275" type="line"/>
      <point x="1472" y="584" type="line"/>
      <point x="1259" y="584" type="line"/>
      <point x="1166" y="148" type="line"/>
      <point x="93" y="148" type="line" smooth="yes"/>
      <point x="23" y="148"/>
      <point x="-27" y="116"/>
      <point x="-27" y="39" type="curve" smooth="yes"/>
      <point x="-27" y="-97"/>
      <point x="180" y="-191"/>
      <point x="417" y="-191" type="curve" smooth="yes"/>
      <point x="756" y="-191"/>
      <point x="1058" y="-53"/>
      <point x="1058" y="272" type="curve" smooth="yes"/>
      <point x="1058" y="482"/>
      <point x="909" y="589"/>
      <point x="710" y="589" type="curve" smooth="yes"/>
      <point x="491" y="589"/>
      <point x="385" y="439"/>
      <point x="385" y="279" type="curve" smooth="yes"/>
      <point x="385" y="215"/>
      <point x="403" y="163"/>
      <point x="430" y="116" type="curve"/>
      <point x="518" y="115" type="line"/>
      <point x="485" y="162"/>
      <point x="466" y="215"/>
      <point x="466" y="275" type="curve" smooth="yes"/>
      <point x="466" y="404"/>
      <point x="540" y="512"/>
      <point x="677" y="512" type="curve" smooth="yes"/>
      <point x="785" y="512"/>
      <point x="863" y="451"/>
      <point x="863" y="307" type="curve" smooth="yes"/>
      <point x="863" y="19"/>
      <point x="680" y="-116"/>
      <point x="401" y="-116" type="curve" smooth="yes"/>
      <point x="226" y="-116"/>
      <point x="64" y="-45"/>
      <point x="64" y="31" type="curve" smooth="yes"/>
      <point x="64" y="59"/>
      <point x="77" y="71"/>
      <point x="108" y="71" type="curve" smooth="yes"/>
      <point x="1150" y="71" type="line"/>
    </contour>
  </outline>
</glyph>
<glyph name="ten-tamil" format="2">
  <advance width="992"/>
  <unicode hex="0BF0"/>
  <note>
uni0BF0
</note>
  <outline>
    <contour>
      <point x="578" y="-5" type="curve" smooth="yes"/>
      <point x="808" y="-5"/>
      <point x="976" y="187"/>
      <point x="976" y="429" type="curve" smooth="yes"/>
      <point x="976" y="666"/>
      <point x="843" y="789"/>
      <point x="552" y="845" type="curve"/>
      <point x="521" y="765" type="line"/>
      <point x="783" y="715"/>
      <point x="889" y="626"/>
      <point x="889" y="421" type="curve" smooth="yes"/>
      <point x="889" y="254"/>
      <point x="782" y="87"/>
      <point x="646" y="87" type="curve" smooth="yes"/>
      <point x="606" y="87"/>
      <point x="596" y="118"/>
      <point x="605" y="160" type="curve" smooth="yes"/>
      <point x="695" y="584" type="line"/>
      <point x="488" y="584" type="line"/>
      <point x="405" y="198" type="line" smooth="yes"/>
      <point x="379" y="75"/>
      <point x="442" y="-5"/>
    </contour>
    <contour>
      <point x="224" y="-13" type="curve" smooth="yes"/>
      <point x="301" y="-13"/>
      <point x="412" y="14"/>
      <point x="439" y="142" type="curve" smooth="yes"/>
      <point x="453" y="208" type="line"/>
      <point x="407" y="208" type="line"/>
      <point x="394" y="146" type="line" smooth="yes"/>
      <point x="386" y="108"/>
      <point x="356" y="87"/>
      <point x="323" y="87" type="curve" smooth="yes"/>
      <point x="282" y="87"/>
      <point x="260" y="113"/>
      <point x="271" y="163" type="curve" smooth="yes"/>
      <point x="360" y="584" type="line"/>
      <point x="145" y="584" type="line"/>
      <point x="62" y="195" type="line" smooth="yes"/>
      <point x="35" y="67"/>
      <point x="112" y="-13"/>
    </contour>
  </outline>
</glyph>
<glyph name="onehundred-tamil" format="2">
  <advance width="958"/>
  <unicode hex="0BF1"/>
  <note>
uni0BF1
</note>
  <outline>
    <contour>
      <point x="243" y="0" type="line"/>
      <point x="325" y="0" type="line"/>
      <point x="434" y="509" type="line"/>
      <point x="615" y="509" type="line"/>
      <point x="507" y="0" type="line"/>
      <point x="723" y="0" type="line"/>
      <point x="831" y="509" type="line"/>
      <point x="956" y="509" type="line"/>
      <point x="972" y="584" type="line"/>
      <point x="367" y="584" type="line"/>
    </contour>
    <contour>
      <point x="8" y="0" type="line"/>
      <point x="90" y="0" type="line"/>
      <point x="185" y="445" type="line" smooth="yes"/>
      <point x="195" y="494"/>
      <point x="225" y="522"/>
      <point x="270" y="522" type="curve" smooth="yes"/>
      <point x="314" y="522"/>
      <point x="347" y="490"/>
      <point x="335" y="431" type="curve"/>
      <point x="365" y="431" type="line"/>
      <point x="383" y="523"/>
      <point x="337" y="594"/>
      <point x="251" y="594" type="curve" smooth="yes"/>
      <point x="162" y="594"/>
      <point x="119" y="527"/>
      <point x="101" y="443" type="curve" smooth="yes"/>
    </contour>
  </outline>
</glyph>
<glyph name="onethousand-tamil" format="2">
  <advance width="1356"/>
  <unicode hex="0BF2"/>
  <note>
uni0BF2
</note>
  <outline>
    <contour>
      <point x="290" y="-4" type="curve" smooth="yes"/>
      <point x="478" y="-4"/>
      <point x="558" y="83"/>
      <point x="593" y="227" type="curve" smooth="yes"/>
      <point x="604" y="272" type="line"/>
      <point x="1180" y="272" type="line"/>
      <point x="1194" y="348" type="line"/>
      <point x="620" y="348" type="line"/>
      <point x="654" y="508" type="line"/>
      <point x="808" y="508" type="line"/>
      <point x="824" y="584" type="line"/>
      <point x="237" y="584" type="line"/>
      <point x="179" y="310" type="line"/>
      <point x="262" y="310" type="line"/>
      <point x="304" y="508" type="line"/>
      <point x="439" y="508" type="line"/>
      <point x="405" y="348" type="line"/>
      <point x="269" y="348" type="line" smooth="yes"/>
      <point x="141" y="348"/>
      <point x="47" y="280"/>
      <point x="47" y="164" type="curve" smooth="yes"/>
      <point x="47" y="68"/>
      <point x="124" y="-4"/>
    </contour>
    <contour>
      <point x="234" y="83" type="curve" smooth="yes"/>
      <point x="174" y="83"/>
      <point x="126" y="115"/>
      <point x="126" y="174" type="curve" smooth="yes"/>
      <point x="126" y="239"/>
      <point x="173" y="272"/>
      <point x="261" y="272" type="curve" smooth="yes"/>
      <point x="389" y="272" type="line"/>
      <point x="379" y="226" type="line" smooth="yes"/>
      <point x="357" y="126"/>
      <point x="318" y="83"/>
    </contour>
    <contour>
      <point x="453" y="-349" type="curve"/>
      <point x="477" y="-236"/>
      <point x="529" y="-172"/>
      <point x="666" y="-172" type="curve" smooth="yes"/>
      <point x="829" y="-172" type="line" smooth="yes"/>
      <point x="1064" y="-172"/>
      <point x="1237" y="-114"/>
      <point x="1237" y="52" type="curve" smooth="yes"/>
      <point x="1237" y="172"/>
      <point x="1131" y="212"/>
      <point x="982" y="212" type="curve" smooth="yes"/>
      <point x="781" y="212" type="line" smooth="yes"/>
      <point x="699" y="212"/>
      <point x="625" y="164"/>
      <point x="625" y="90" type="curve" smooth="yes"/>
      <point x="625" y="25"/>
      <point x="680" y="-23"/>
      <point x="789" y="-23" type="curve" smooth="yes"/>
      <point x="915" y="-23"/>
      <point x="983" y="34"/>
      <point x="1006" y="145" type="curve" smooth="yes"/>
      <point x="1038" y="297" type="line"/>
      <point x="863" y="297" type="line"/>
      <point x="829" y="137" type="line" smooth="yes"/>
      <point x="815" y="73"/>
      <point x="796" y="46"/>
      <point x="755" y="46" type="curve" smooth="yes"/>
      <point x="723" y="46"/>
      <point x="701" y="64"/>
      <point x="701" y="94" type="curve" smooth="yes"/>
      <point x="701" y="123"/>
      <point x="723" y="148"/>
      <point x="769" y="148" type="curve" smooth="yes"/>
      <point x="974" y="148" type="line" smooth="yes"/>
      <point x="1028" y="148"/>
      <point x="1060" y="122"/>
      <point x="1060" y="57" type="curve" smooth="yes"/>
      <point x="1060" y="-55"/>
      <point x="989" y="-109"/>
      <point x="853" y="-109" type="curve" smooth="yes"/>
      <point x="604" y="-109" type="line" smooth="yes"/>
      <point x="435" y="-109"/>
      <point x="310" y="-152"/>
      <point x="310" y="-254" type="curve" smooth="yes"/>
      <point x="310" y="-318"/>
      <point x="368" y="-349"/>
    </contour>
  </outline>
</glyph>
<glyph name="day-tamil" format="2">
  <advance width="933"/>
  <unicode hex="0BF3"/>
  <note>
uni0BF3
</note>
  <outline>
    <contour>
      <point x="219" y="-5" type="curve" smooth="yes"/>
      <point x="337" y="-5"/>
      <point x="428" y="77"/>
      <point x="428" y="200" type="curve" smooth="yes"/>
      <point x="428" y="295"/>
      <point x="371" y="354"/>
      <point x="276" y="354" type="curve" smooth="yes"/>
      <point x="186" y="354"/>
      <point x="117" y="272"/>
      <point x="93" y="205" type="curve"/>
      <point x="108" y="157" type="line"/>
      <point x="128" y="199"/>
      <point x="153" y="233"/>
      <point x="192" y="233" type="curve" smooth="yes"/>
      <point x="228" y="233"/>
      <point x="239" y="203"/>
      <point x="239" y="170" type="curve" smooth="yes"/>
      <point x="239" y="121"/>
      <point x="217" y="88"/>
      <point x="182" y="88" type="curve" smooth="yes"/>
      <point x="144" y="88"/>
      <point x="116" y="131"/>
      <point x="116" y="229" type="curve" smooth="yes"/>
      <point x="116" y="364"/>
      <point x="224" y="504"/>
      <point x="374" y="504" type="curve" smooth="yes"/>
      <point x="491" y="504"/>
      <point x="561" y="438"/>
      <point x="561" y="302" type="curve" smooth="yes"/>
      <point x="561" y="201"/>
      <point x="525" y="132"/>
      <point x="464" y="50" type="curve"/>
      <point x="478" y="0" type="line"/>
      <point x="862" y="0" type="line"/>
      <point x="878" y="75" type="line"/>
      <point x="624" y="75" type="line"/>
      <point x="708" y="136"/>
      <point x="774" y="220"/>
      <point x="774" y="337" type="curve" smooth="yes"/>
      <point x="774" y="515"/>
      <point x="612" y="589"/>
      <point x="435" y="589" type="curve" smooth="yes"/>
      <point x="180" y="589"/>
      <point x="35" y="417"/>
      <point x="35" y="217" type="curve" smooth="yes"/>
      <point x="35" y="83"/>
      <point x="100" y="-5"/>
    </contour>
  </outline>
</glyph>
<glyph name="month-tamil" format="2">
  <advance width="1301"/>
  <unicode hex="0BF4"/>
  <note>
uni0BF4
</note>
  <anchor x="415" y="0" name="bottom"/>
  <anchor x="985" y="584" name="imatra"/>
  <anchor x="416" y="0" name="nukta"/>
  <anchor x="568" y="584" name="top"/>
  <anchor x="564" y="584" name="vedic"/>
  <outline>
    <contour>
      <point x="838" y="493" type="curve"/>
      <point x="876" y="513" type="line"/>
      <point x="844" y="552"/>
      <point x="819" y="592"/>
      <point x="819" y="647" type="curve" smooth="yes"/>
      <point x="819" y="753"/>
      <point x="888" y="828"/>
      <point x="999" y="828" type="curve" smooth="yes"/>
      <point x="1074" y="828"/>
      <point x="1108" y="792"/>
      <point x="1108" y="740" type="curve" smooth="yes"/>
      <point x="1108" y="700"/>
      <point x="1081" y="664"/>
      <point x="1036" y="664" type="curve" smooth="yes"/>
      <point x="999" y="664"/>
      <point x="978" y="699"/>
      <point x="978" y="752" type="curve" smooth="yes"/>
      <point x="978" y="844"/>
      <point x="1054" y="936"/>
      <point x="1173" y="936" type="curve" smooth="yes"/>
      <point x="1263" y="936"/>
      <point x="1320" y="889"/>
      <point x="1299" y="791" type="curve" smooth="yes"/>
      <point x="1258" y="599" type="line"/>
      <point x="1394" y="599" type="line"/>
      <point x="1441" y="819" type="line" smooth="yes"/>
      <point x="1456" y="888"/>
      <point x="1499" y="933"/>
      <point x="1572" y="917" type="curve"/>
      <point x="1597" y="990" type="line"/>
      <point x="1498" y="1011"/>
      <point x="1421" y="957"/>
      <point x="1383" y="867" type="curve"/>
      <point x="1378" y="867" type="line"/>
      <point x="1366" y="959"/>
      <point x="1289" y="1002"/>
      <point x="1182" y="1002" type="curve" smooth="yes"/>
      <point x="1023" y="1002"/>
      <point x="905" y="880"/>
      <point x="905" y="742" type="curve" smooth="yes"/>
      <point x="905" y="658"/>
      <point x="955" y="590"/>
      <point x="1045" y="590" type="curve" smooth="yes"/>
      <point x="1146" y="590"/>
      <point x="1217" y="649"/>
      <point x="1217" y="750" type="curve" smooth="yes"/>
      <point x="1217" y="842"/>
      <point x="1138" y="896"/>
      <point x="1022" y="896" type="curve" smooth="yes"/>
      <point x="872" y="896"/>
      <point x="745" y="792"/>
      <point x="745" y="654" type="curve" smooth="yes"/>
      <point x="745" y="579"/>
      <point x="783" y="538"/>
    </contour>
    <component base="ma-tamil"/>
  </outline>
</glyph>
<glyph name="debit-tamil" format="2">
  <advance width="1382"/>
  <unicode hex="0BF6"/>
  <note>
uni0BF6
</note>
  <outline>
    <contour>
      <point x="294" y="-394" type="curve" smooth="yes"/>
      <point x="562" y="-394"/>
      <point x="795" y="-275"/>
      <point x="849" y="-23" type="curve" smooth="yes"/>
      <point x="979" y="584" type="line"/>
      <point x="765" y="584" type="line"/>
      <point x="640" y="-8" type="line" smooth="yes"/>
      <point x="595" y="-222"/>
      <point x="469" y="-319"/>
      <point x="260" y="-319" type="curve" smooth="yes"/>
      <point x="130" y="-319"/>
      <point x="26" y="-250"/>
      <point x="26" y="-180" type="curve" smooth="yes"/>
      <point x="26" y="-152"/>
      <point x="45" y="-134"/>
      <point x="78" y="-134" type="curve" smooth="yes"/>
      <point x="1219" y="-134" type="line"/>
      <point x="1372" y="584" type="line"/>
      <point x="1158" y="584" type="line"/>
      <point x="1021" y="-59" type="line"/>
      <point x="63" y="-59" type="line" smooth="yes"/>
      <point x="-11" y="-59"/>
      <point x="-64" y="-100"/>
      <point x="-64" y="-174" type="curve" smooth="yes"/>
      <point x="-64" y="-294"/>
      <point x="84" y="-394"/>
    </contour>
    <contour>
      <point x="15" y="12" type="line"/>
      <point x="752" y="12" type="line"/>
      <point x="768" y="87" type="line"/>
      <point x="247" y="87" type="line"/>
      <point x="352" y="584" type="line"/>
      <point x="137" y="584" type="line"/>
    </contour>
  </outline>
</glyph>
<glyph name="credit-tamil" format="2">
  <advance width="1757"/>
  <unicode hex="0BF7"/>
  <note>
uni0BF7
</note>
  <anchor x="485" y="0" name="bottom"/>
  <anchor x="485" y="0" name="nukta"/>
  <anchor x="615" y="584" name="top"/>
  <anchor x="612" y="584" name="vedic"/>
  <outline>
    <contour>
      <point x="1115" y="-4" type="curve" smooth="yes"/>
      <point x="1235" y="-4"/>
      <point x="1325" y="67"/>
      <point x="1325" y="187" type="curve" smooth="yes"/>
      <point x="1325" y="297"/>
      <point x="1242" y="348"/>
      <point x="1094" y="348" type="curve" smooth="yes"/>
      <point x="997" y="348"/>
      <point x="904" y="312"/>
      <point x="818" y="257" type="curve"/>
      <point x="801" y="177" type="line"/>
      <point x="910" y="244"/>
      <point x="975" y="272"/>
      <point x="1060" y="272" type="curve" smooth="yes"/>
      <point x="1126" y="272"/>
      <point x="1158" y="232"/>
      <point x="1158" y="178" type="curve" smooth="yes"/>
      <point x="1158" y="113"/>
      <point x="1121" y="84"/>
      <point x="1085" y="84" type="curve" smooth="yes"/>
      <point x="1054" y="84"/>
      <point x="1032" y="108"/>
      <point x="1032" y="157" type="curve" smooth="yes"/>
      <point x="1032" y="273"/>
      <point x="1151" y="366"/>
      <point x="1286" y="366" type="curve" smooth="yes"/>
      <point x="1379" y="366"/>
      <point x="1469" y="333"/>
      <point x="1469" y="225" type="curve" smooth="yes"/>
      <point x="1469" y="155"/>
      <point x="1429" y="101"/>
      <point x="1369" y="50" type="curve"/>
      <point x="1383" y="0" type="line"/>
      <point x="1685" y="0" type="line"/>
      <point x="1701" y="75" type="line"/>
      <point x="1440" y="75" type="line"/>
      <point x="1427" y="35" type="line"/>
      <point x="1527" y="69"/>
      <point x="1626" y="143"/>
      <point x="1626" y="254" type="curve" smooth="yes"/>
      <point x="1626" y="391"/>
      <point x="1476" y="447"/>
      <point x="1334" y="447" type="curve" smooth="yes"/>
      <point x="1133" y="447"/>
      <point x="953" y="314"/>
      <point x="953" y="149" type="curve" smooth="yes"/>
      <point x="953" y="60"/>
      <point x="1012" y="-4"/>
    </contour>
    <component base="e-tamil"/>
  </outline>
</glyph>
<glyph name="asabove-tamil" format="2">
  <advance width="2147"/>
  <unicode hex="0BF8"/>
  <note>
uni0BF8
</note>
  <outline>
    <contour>
      <point x="805" y="-4" type="curve" smooth="yes"/>
      <point x="942" y="-4"/>
      <point x="1068" y="90"/>
      <point x="1068" y="290" type="curve" smooth="yes"/>
      <point x="1068" y="544"/>
      <point x="845" y="668"/>
      <point x="566" y="668" type="curve" smooth="yes"/>
      <point x="303" y="668"/>
      <point x="43" y="496"/>
      <point x="43" y="239" type="curve" smooth="yes"/>
      <point x="43" y="96"/>
      <point x="143" y="-5"/>
      <point x="280" y="-5" type="curve" smooth="yes"/>
      <point x="407" y="-5"/>
      <point x="516" y="67"/>
      <point x="516" y="202" type="curve" smooth="yes"/>
      <point x="516" y="293"/>
      <point x="455" y="354"/>
      <point x="351" y="354" type="curve" smooth="yes"/>
      <point x="218" y="354"/>
      <point x="129" y="234"/>
      <point x="114" y="123" type="curve"/>
      <point x="162" y="92" type="line"/>
      <point x="177" y="169"/>
      <point x="213" y="230"/>
      <point x="270" y="230" type="curve" smooth="yes"/>
      <point x="306" y="230"/>
      <point x="327" y="203"/>
      <point x="327" y="170" type="curve" smooth="yes"/>
      <point x="327" y="121"/>
      <point x="297" y="88"/>
      <point x="239" y="88" type="curve" smooth="yes"/>
      <point x="187" y="88"/>
      <point x="124" y="145"/>
      <point x="124" y="249" type="curve" smooth="yes"/>
      <point x="124" y="458"/>
      <point x="350" y="589"/>
      <point x="545" y="589" type="curve" smooth="yes"/>
      <point x="748" y="589"/>
      <point x="878" y="480"/>
      <point x="878" y="301" type="curve" smooth="yes"/>
      <point x="878" y="155"/>
      <point x="822" y="100"/>
      <point x="761" y="100" type="curve" smooth="yes"/>
      <point x="717" y="100"/>
      <point x="690" y="148"/>
      <point x="690" y="214" type="curve" smooth="yes"/>
      <point x="690" y="396"/>
      <point x="867" y="504"/>
      <point x="1020" y="504" type="curve" smooth="yes"/>
      <point x="1161" y="504"/>
      <point x="1231" y="425"/>
      <point x="1231" y="293" type="curve" smooth="yes"/>
      <point x="1231" y="198"/>
      <point x="1186" y="120"/>
      <point x="1125" y="50" type="curve"/>
      <point x="1139" y="0" type="line"/>
      <point x="2069" y="0" type="line"/>
      <point x="2085" y="75" type="line"/>
      <point x="1267" y="75" type="line"/>
      <point x="1357" y="137"/>
      <point x="1425" y="217"/>
      <point x="1425" y="329" type="curve" smooth="yes"/>
      <point x="1425" y="506"/>
      <point x="1263" y="589"/>
      <point x="1042" y="589" type="curve" smooth="yes"/>
      <point x="846" y="589"/>
      <point x="608" y="437"/>
      <point x="608" y="210" type="curve" smooth="yes"/>
      <point x="608" y="102"/>
      <point x="667" y="-4"/>
    </contour>
    <contour>
      <point x="1644" y="-335" type="line"/>
      <point x="1852" y="-335" type="line"/>
      <point x="2006" y="388" type="line" smooth="yes"/>
      <point x="2033" y="515"/>
      <point x="1963" y="590"/>
      <point x="1827" y="590" type="curve" smooth="yes"/>
      <point x="1637" y="590"/>
      <point x="1516" y="431"/>
      <point x="1516" y="243" type="curve" smooth="yes"/>
      <point x="1516" y="120"/>
      <point x="1583" y="16"/>
      <point x="1715" y="16" type="curve"/>
      <point x="1728" y="75" type="line"/>
      <point x="1635" y="75"/>
      <point x="1596" y="153"/>
      <point x="1596" y="248" type="curve" smooth="yes"/>
      <point x="1596" y="354"/>
      <point x="1651" y="471"/>
      <point x="1747" y="471" type="curve" smooth="yes"/>
      <point x="1790" y="471"/>
      <point x="1809" y="443"/>
      <point x="1800" y="399" type="curve" smooth="yes"/>
    </contour>
  </outline>
</glyph>
<glyph name="rupee-tamil" format="2">
  <advance width="1182"/>
  <unicode hex="0BF9"/>
  <note>
uni0BF9
</note>
  <outline>
    <contour>
      <point x="515" y="-336" type="curve" smooth="yes"/>
      <point x="814" y="-336"/>
      <point x="1106" y="-130"/>
      <point x="1106" y="175" type="curve" smooth="yes"/>
      <point x="1106" y="302"/>
      <point x="1040" y="364"/>
      <point x="941" y="364" type="curve" smooth="yes"/>
      <point x="817" y="364"/>
      <point x="741" y="246"/>
      <point x="716" y="146" type="curve" smooth="yes"/>
      <point x="713" y="134" type="line"/>
      <point x="746" y="134" type="line"/>
      <point x="749" y="146" type="line" smooth="yes"/>
      <point x="762" y="199"/>
      <point x="793" y="236"/>
      <point x="836" y="236" type="curve" smooth="yes"/>
      <point x="881" y="236"/>
      <point x="906" y="206"/>
      <point x="906" y="145" type="curve" smooth="yes"/>
      <point x="906" y="-79"/>
      <point x="748" y="-251"/>
      <point x="507" y="-251" type="curve" smooth="yes"/>
      <point x="246" y="-251"/>
      <point x="138" y="-58"/>
      <point x="138" y="213" type="curve" smooth="yes"/>
      <point x="138" y="487"/>
      <point x="319" y="859"/>
      <point x="562" y="859" type="curve" smooth="yes"/>
      <point x="613" y="859"/>
      <point x="654" y="830"/>
      <point x="654" y="779" type="curve" smooth="yes"/>
      <point x="654" y="731"/>
      <point x="623" y="697"/>
      <point x="577" y="697" type="curve" smooth="yes"/>
      <point x="541" y="697"/>
      <point x="514" y="720"/>
      <point x="514" y="767" type="curve" smooth="yes"/>
      <point x="514" y="872"/>
      <point x="607" y="952"/>
      <point x="727" y="952" type="curve" smooth="yes"/>
      <point x="813" y="952"/>
      <point x="868" y="913"/>
      <point x="868" y="837" type="curve" smooth="yes"/>
      <point x="868" y="775"/>
      <point x="841" y="727"/>
      <point x="796" y="682" type="curve"/>
      <point x="801" y="630" type="line"/>
      <point x="1019" y="630" type="line"/>
      <point x="1035" y="705" type="line"/>
      <point x="866" y="705" type="line"/>
      <point x="826" y="662" type="line"/>
      <point x="915" y="698"/>
      <point x="979" y="767"/>
      <point x="979" y="859" type="curve" smooth="yes"/>
      <point x="979" y="964"/>
      <point x="878" y="1019"/>
      <point x="746" y="1019" type="curve" smooth="yes"/>
      <point x="581" y="1019"/>
      <point x="442" y="892"/>
      <point x="442" y="763" type="curve" smooth="yes"/>
      <point x="442" y="680"/>
      <point x="496" y="623"/>
      <point x="586" y="623" type="curve" smooth="yes"/>
      <point x="685" y="623"/>
      <point x="763" y="688"/>
      <point x="763" y="782" type="curve" smooth="yes"/>
      <point x="763" y="884"/>
      <point x="679" y="927"/>
      <point x="575" y="927" type="curve" smooth="yes"/>
      <point x="261" y="927"/>
      <point x="47" y="520"/>
      <point x="47" y="199" type="curve" smooth="yes"/>
      <point x="47" y="-108"/>
      <point x="201" y="-336"/>
    </contour>
    <contour>
      <point x="277" y="0" type="line"/>
      <point x="361" y="0" type="line"/>
      <point x="469" y="509" type="line"/>
      <point x="610" y="509" type="line"/>
      <point x="502" y="0" type="line"/>
      <point x="717" y="0" type="line"/>
      <point x="826" y="509" type="line"/>
      <point x="993" y="509" type="line"/>
      <point x="1009" y="584" type="line"/>
      <point x="401" y="584" type="line"/>
    </contour>
  </outline>
</glyph>
<glyph name="number-tamil" format="2">
  <advance width="1111"/>
  <unicode hex="0BFA"/>
  <note>
uni0BFA
</note>
  <anchor x="377" y="0" name="bottom"/>
  <anchor x="647" y="584" name="imatra"/>
  <anchor x="323" y="-266" name="nukta"/>
  <anchor x="504" y="584" name="top"/>
  <anchor x="537" y="584" name="vedic"/>
  <outline>
    <contour>
      <point x="922" y="509" type="line"/>
      <point x="1155" y="509" type="line"/>
      <point x="1171" y="584" type="line"/>
      <point x="986" y="584" type="line"/>
      <point x="998" y="553" type="line"/>
      <point x="1108" y="624"/>
      <point x="1196" y="717"/>
      <point x="1196" y="839" type="curve" smooth="yes"/>
      <point x="1196" y="971"/>
      <point x="1094" y="1040"/>
      <point x="958" y="1040" type="curve" smooth="yes"/>
      <point x="796" y="1040"/>
      <point x="671" y="921"/>
      <point x="671" y="770" type="curve" smooth="yes"/>
      <point x="671" y="692"/>
      <point x="719" y="627"/>
      <point x="811" y="627" type="curve" smooth="yes"/>
      <point x="902" y="627"/>
      <point x="983" y="685"/>
      <point x="983" y="781" type="curve" smooth="yes"/>
      <point x="983" y="874"/>
      <point x="911" y="934"/>
      <point x="779" y="934" type="curve" smooth="yes"/>
      <point x="632" y="934"/>
      <point x="505" y="833"/>
      <point x="505" y="703" type="curve" smooth="yes"/>
      <point x="505" y="603"/>
      <point x="574" y="550"/>
      <point x="665" y="546" type="curve"/>
      <point x="695" y="584" type="line"/>
      <point x="617" y="584"/>
      <point x="581" y="646"/>
      <point x="581" y="701" type="curve" smooth="yes"/>
      <point x="581" y="801"/>
      <point x="653" y="865"/>
      <point x="764" y="865" type="curve" smooth="yes"/>
      <point x="835" y="865"/>
      <point x="873" y="835"/>
      <point x="873" y="778" type="curve" smooth="yes"/>
      <point x="873" y="734"/>
      <point x="845" y="701"/>
      <point x="800" y="701" type="curve" smooth="yes"/>
      <point x="760" y="701"/>
      <point x="744" y="741"/>
      <point x="744" y="785" type="curve" smooth="yes"/>
      <point x="744" y="893"/>
      <point x="824" y="973"/>
      <point x="937" y="973" type="curve" smooth="yes"/>
      <point x="1018" y="973"/>
      <point x="1083" y="927"/>
      <point x="1083" y="827" type="curve" smooth="yes"/>
      <point x="1083" y="721"/>
      <point x="1026" y="649"/>
      <point x="916" y="566" type="curve"/>
    </contour>
    <component base="na-tamil"/>
  </outline>
</glyph>
<glyph name="doubleSvarita-vedic" format="2">
  <unicode hex="1CDA"/>
  <note>
uni1CDA
</note>
  <anchor x="65" y="584" name="_vedic"/>
  <outline>
    <contour>
      <point x="32" y="970" type="line"/>
      <point x="123" y="970" type="line"/>
      <point x="167" y="1178" type="line"/>
      <point x="76" y="1178" type="line"/>
    </contour>
    <contour>
      <point x="172" y="970" type="line"/>
      <point x="263" y="970" type="line"/>
      <point x="307" y="1178" type="line"/>
      <point x="216" y="1178" type="line"/>
    </contour>
  </outline>
</glyph>
<glyph name="endash" format="2">
  <advance width="500"/>
  <unicode hex="2013"/>
  <outline>
    <contour>
      <point x="-12" y="229" type="line"/>
      <point x="498" y="229" type="line"/>
      <point x="514" y="308" type="line"/>
      <point x="3" y="308" type="line"/>
    </contour>
  </outline>
</glyph>
<glyph name="emdash" format="2">
  <advance width="1000"/>
  <unicode hex="2014"/>
  <outline>
    <contour>
      <point x="-12" y="229" type="line"/>
      <point x="998" y="229" type="line"/>
      <point x="1014" y="308" type="line"/>
      <point x="3" y="308" type="line"/>
    </contour>
  </outline>
</glyph>
<glyph name="quoteleft" format="2">
  <advance width="302"/>
  <unicode hex="2018"/>
  <outline>
    <contour>
      <point x="213" y="390" type="curve" smooth="yes"/>
      <point x="257" y="390"/>
      <point x="297" y="420"/>
      <point x="297" y="466" type="curve" smooth="yes"/>
      <point x="297" y="528"/>
      <point x="248" y="526"/>
      <point x="248" y="572" type="curve" smooth="yes"/>
      <point x="248" y="611"/>
      <point x="283" y="638"/>
      <point x="352" y="655" type="curve"/>
      <point x="368" y="716" type="line"/>
      <point x="206" y="686"/>
      <point x="119" y="597"/>
      <point x="119" y="487" type="curve" smooth="yes"/>
      <point x="119" y="425"/>
      <point x="160" y="390"/>
    </contour>
  </outline>
</glyph>
<glyph name="quoteright" format="2">
  <advance width="302"/>
  <unicode hex="2019"/>
  <outline>
    <contour>
      <point x="91" y="390" type="line"/>
      <point x="253" y="420"/>
      <point x="340" y="508"/>
      <point x="340" y="618" type="curve" smooth="yes"/>
      <point x="340" y="681"/>
      <point x="299" y="716"/>
      <point x="246" y="716" type="curve" smooth="yes"/>
      <point x="202" y="716"/>
      <point x="162" y="685"/>
      <point x="162" y="639" type="curve" smooth="yes"/>
      <point x="162" y="578"/>
      <point x="211" y="579"/>
      <point x="211" y="533" type="curve" smooth="yes"/>
      <point x="211" y="495"/>
      <point x="176" y="467"/>
      <point x="107" y="451" type="curve"/>
    </contour>
  </outline>
</glyph>
<glyph name="quotedblleft" format="2">
  <advance width="518"/>
  <unicode hex="201C"/>
  <outline>
    <contour>
      <point x="429" y="390" type="curve" smooth="yes"/>
      <point x="473" y="390"/>
      <point x="513" y="420"/>
      <point x="513" y="466" type="curve" smooth="yes"/>
      <point x="513" y="528"/>
      <point x="464" y="526"/>
      <point x="464" y="572" type="curve" smooth="yes"/>
      <point x="464" y="611"/>
      <point x="499" y="638"/>
      <point x="568" y="655" type="curve"/>
      <point x="584" y="716" type="line"/>
      <point x="422" y="686"/>
      <point x="335" y="597"/>
      <point x="335" y="487" type="curve" smooth="yes"/>
      <point x="335" y="425"/>
      <point x="376" y="390"/>
    </contour>
    <contour>
      <point x="213" y="390" type="curve" smooth="yes"/>
      <point x="257" y="390"/>
      <point x="297" y="420"/>
      <point x="297" y="466" type="curve" smooth="yes"/>
      <point x="297" y="528"/>
      <point x="248" y="526"/>
      <point x="248" y="572" type="curve" smooth="yes"/>
      <point x="248" y="611"/>
      <point x="283" y="638"/>
      <point x="352" y="655" type="curve"/>
      <point x="368" y="716" type="line"/>
      <point x="206" y="686"/>
      <point x="119" y="597"/>
      <point x="119" y="487" type="curve" smooth="yes"/>
      <point x="119" y="425"/>
      <point x="160" y="390"/>
    </contour>
  </outline>
</glyph>
<glyph name="quotedblright" format="2">
  <advance width="518"/>
  <unicode hex="201D"/>
  <outline>
    <contour>
      <point x="305" y="390" type="line"/>
      <point x="467" y="420"/>
      <point x="554" y="508"/>
      <point x="554" y="618" type="curve" smooth="yes"/>
      <point x="554" y="681"/>
      <point x="513" y="716"/>
      <point x="460" y="716" type="curve" smooth="yes"/>
      <point x="416" y="716"/>
      <point x="376" y="685"/>
      <point x="376" y="639" type="curve" smooth="yes"/>
      <point x="376" y="578"/>
      <point x="425" y="579"/>
      <point x="425" y="533" type="curve" smooth="yes"/>
      <point x="425" y="495"/>
      <point x="390" y="467"/>
      <point x="321" y="451" type="curve"/>
    </contour>
    <contour>
      <point x="91" y="390" type="line"/>
      <point x="253" y="420"/>
      <point x="340" y="508"/>
      <point x="340" y="618" type="curve" smooth="yes"/>
      <point x="340" y="681"/>
      <point x="299" y="716"/>
      <point x="246" y="716" type="curve" smooth="yes"/>
      <point x="202" y="716"/>
      <point x="162" y="685"/>
      <point x="162" y="639" type="curve" smooth="yes"/>
      <point x="162" y="578"/>
      <point x="211" y="579"/>
      <point x="211" y="533" type="curve" smooth="yes"/>
      <point x="211" y="495"/>
      <point x="176" y="467"/>
      <point x="107" y="451" type="curve"/>
    </contour>
  </outline>
</glyph>
<glyph name="ellipsis" format="2">
  <advance width="957"/>
  <unicode hex="2026"/>
  <outline>
    <contour>
      <point x="771" y="-8" type="curve" smooth="yes"/>
      <point x="813" y="-8"/>
      <point x="859" y="14"/>
      <point x="859" y="87" type="curve" smooth="yes"/>
      <point x="859" y="137"/>
      <point x="822" y="165"/>
      <point x="775" y="165" type="curve" smooth="yes"/>
      <point x="721" y="165"/>
      <point x="686" y="130"/>
      <point x="686" y="70" type="curve" smooth="yes"/>
      <point x="686" y="20"/>
      <point x="720" y="-8"/>
    </contour>
    <contour>
      <point x="136" y="-10" type="curve" smooth="yes"/>
      <point x="178" y="-10"/>
      <point x="224" y="12"/>
      <point x="224" y="85" type="curve" smooth="yes"/>
      <point x="224" y="135"/>
      <point x="187" y="163"/>
      <point x="140" y="163" type="curve" smooth="yes"/>
      <point x="86" y="163"/>
      <point x="51" y="128"/>
      <point x="51" y="68" type="curve" smooth="yes"/>
      <point x="51" y="18"/>
      <point x="85" y="-10"/>
    </contour>
    <contour>
      <point x="456" y="-10" type="curve" smooth="yes"/>
      <point x="498" y="-10"/>
      <point x="544" y="12"/>
      <point x="544" y="85" type="curve" smooth="yes"/>
      <point x="544" y="135"/>
      <point x="507" y="163"/>
      <point x="460" y="163" type="curve" smooth="yes"/>
      <point x="406" y="163"/>
      <point x="371" y="128"/>
      <point x="371" y="68" type="curve" smooth="yes"/>
      <point x="371" y="18"/>
      <point x="405" y="-10"/>
    </contour>
  </outline>
</glyph>
<glyph name="foursuperior" format="2">
  <advance width="401"/>
  <unicode hex="2074"/>
  <outline>
    <contour>
      <point x="167" y="387" type="line"/>
      <point x="404" y="387" type="line"/>
      <point x="415" y="438" type="line"/>
      <point x="395" y="438" type="line" smooth="yes"/>
      <point x="376" y="438"/>
      <point x="360" y="441"/>
      <point x="360" y="463" type="curve" smooth="yes"/>
      <point x="360" y="466"/>
      <point x="360" y="476"/>
      <point x="363" y="492" type="curve" smooth="yes"/>
      <point x="364" y="497" type="line"/>
      <point x="429" y="497" type="line"/>
      <point x="443" y="557" type="line"/>
      <point x="378" y="557" type="line"/>
      <point x="433" y="819" type="line"/>
      <point x="338" y="819" type="line"/>
      <point x="70" y="541" type="line"/>
      <point x="60" y="497" type="line"/>
      <point x="258" y="497" type="line"/>
      <point x="255" y="476" type="line" smooth="yes"/>
      <point x="250" y="441"/>
      <point x="228" y="438"/>
      <point x="206" y="438" type="curve" smooth="yes"/>
      <point x="178" y="438" type="line"/>
    </contour>
    <contour>
      <point x="153" y="557" type="line"/>
      <point x="297" y="707" type="line" smooth="yes"/>
      <point x="301" y="711"/>
      <point x="305" y="717"/>
      <point x="312" y="725" type="curve"/>
      <point x="305" y="699"/>
      <point x="297" y="686"/>
      <point x="294" y="671" type="curve" smooth="yes"/>
      <point x="272" y="557" type="line"/>
    </contour>
  </outline>
</glyph>
<glyph name="rupeeIndian" format="2">
  <advance width="547"/>
  <unicode hex="20B9"/>
  <outline>
    <contour>
      <point x="369" y="0" type="curve" smooth="yes"/>
      <point x="474" y="0" type="line"/>
      <point x="488" y="66" type="line"/>
      <point x="475" y="66" type="line" smooth="yes"/>
      <point x="445" y="66"/>
      <point x="410" y="98"/>
      <point x="369" y="156" type="curve" smooth="yes"/>
      <point x="246" y="327" type="line"/>
      <point x="314" y="331"/>
      <point x="407" y="374"/>
      <point x="449" y="455" type="curve"/>
      <point x="534" y="455" type="line"/>
      <point x="550" y="529" type="line"/>
      <point x="472" y="529" type="line"/>
      <point x="477" y="570"/>
      <point x="475" y="615"/>
      <point x="452" y="641" type="curve"/>
      <point x="573" y="641" type="line"/>
      <point x="589" y="714" type="line"/>
      <point x="116" y="714" type="line"/>
      <point x="100" y="641" type="line"/>
      <point x="103" y="641" type="line" smooth="yes"/>
      <point x="192" y="641"/>
      <point x="245" y="608"/>
      <point x="237" y="529" type="curve"/>
      <point x="81" y="529" type="line"/>
      <point x="65" y="455" type="line"/>
      <point x="218" y="455" type="line"/>
      <point x="190" y="389"/>
      <point x="156" y="355"/>
      <point x="71" y="355" type="curve" smooth="yes"/>
      <point x="39" y="355" type="line"/>
      <point x="24" y="284" type="line"/>
      <point x="155" y="106" type="line" smooth="yes"/>
      <point x="198" y="48"/>
      <point x="242" y="0"/>
    </contour>
  </outline>
</glyph>
<glyph name="minus" format="2">
  <advance width="569"/>
  <unicode hex="2212"/>
  <outline>
    <contour>
      <point x="60" y="318" type="line"/>
      <point x="509" y="318" type="line"/>
      <point x="509" y="397" type="line"/>
      <point x="60" y="397" type="line"/>
    </contour>
  </outline>
</glyph>
<glyph name="dottedCircle" format="2">
  <advance width="594"/>
  <unicode hex="25CC"/>
  <anchor x="299" y="300" name="bottom"/>
  <anchor x="350" y="554" name="imatra"/>
  <anchor x="233" y="0" name="nukta"/>
  <anchor x="340" y="554" name="top"/>
  <anchor x="289" y="304" name="vedic"/>
  <outline>
    <contour>
      <point x="383" y="468" type="curve" smooth="yes"/>
      <point x="401" y="468"/>
      <point x="411" y="478"/>
      <point x="411" y="496" type="curve" smooth="yes"/>
      <point x="411" y="516"/>
      <point x="401" y="525"/>
      <point x="383" y="525" type="curve" smooth="yes"/>
      <point x="362" y="525"/>
      <point x="353" y="516"/>
      <point x="353" y="496" type="curve" smooth="yes"/>
      <point x="353" y="478"/>
      <point x="362" y="468"/>
    </contour>
    <contour>
      <point x="140" y="104" type="curve" smooth="yes"/>
      <point x="160" y="104"/>
      <point x="169" y="115"/>
      <point x="169" y="133" type="curve" smooth="yes"/>
      <point x="169" y="152"/>
      <point x="160" y="163"/>
      <point x="140" y="163" type="curve" smooth="yes"/>
      <point x="122" y="163"/>
      <point x="111" y="152"/>
      <point x="111" y="133" type="curve" smooth="yes"/>
      <point x="111" y="115"/>
      <point x="122" y="104"/>
    </contour>
    <contour>
      <point x="92" y="178" type="curve" smooth="yes"/>
      <point x="110" y="178"/>
      <point x="121" y="188"/>
      <point x="121" y="206" type="curve" smooth="yes"/>
      <point x="121" y="226"/>
      <point x="110" y="235"/>
      <point x="92" y="235" type="curve" smooth="yes"/>
      <point x="73" y="235"/>
      <point x="63" y="226"/>
      <point x="63" y="206" type="curve" smooth="yes"/>
      <point x="63" y="188"/>
      <point x="73" y="178"/>
    </contour>
    <contour>
      <point x="212" y="58" type="curve" smooth="yes"/>
      <point x="231" y="58"/>
      <point x="241" y="67"/>
      <point x="241" y="87" type="curve" smooth="yes"/>
      <point x="241" y="105"/>
      <point x="231" y="114"/>
      <point x="212" y="114" type="curve" smooth="yes"/>
      <point x="193" y="114"/>
      <point x="184" y="104"/>
      <point x="184" y="85" type="curve" smooth="yes"/>
      <point x="184" y="66"/>
      <point x="193" y="58"/>
    </contour>
    <contour>
      <point x="75" y="263" type="curve" smooth="yes"/>
      <point x="93" y="263"/>
      <point x="104" y="272"/>
      <point x="104" y="291" type="curve" smooth="yes"/>
      <point x="104" y="310"/>
      <point x="93" y="319"/>
      <point x="75" y="319" type="curve" smooth="yes"/>
      <point x="56" y="319"/>
      <point x="45" y="310"/>
      <point x="45" y="291" type="curve" smooth="yes"/>
      <point x="45" y="272"/>
      <point x="56" y="263"/>
    </contour>
    <contour>
      <point x="297" y="40" type="curve" smooth="yes"/>
      <point x="315" y="40"/>
      <point x="326" y="49"/>
      <point x="326" y="69" type="curve" smooth="yes"/>
      <point x="326" y="87"/>
      <point x="315" y="98"/>
      <point x="297" y="98" type="curve" smooth="yes"/>
      <point x="278" y="98"/>
      <point x="269" y="87"/>
      <point x="269" y="69" type="curve" smooth="yes"/>
      <point x="269" y="49"/>
      <point x="278" y="40"/>
    </contour>
    <contour>
      <point x="93" y="347" type="curve" smooth="yes"/>
      <point x="111" y="347"/>
      <point x="121" y="356"/>
      <point x="121" y="376" type="curve" smooth="yes"/>
      <point x="121" y="395"/>
      <point x="110" y="404"/>
      <point x="92" y="404" type="curve" smooth="yes"/>
      <point x="73" y="404"/>
      <point x="63" y="395"/>
      <point x="63" y="376" type="curve" smooth="yes"/>
      <point x="63" y="356"/>
      <point x="73" y="347"/>
    </contour>
    <contour>
      <point x="383" y="58" type="curve" smooth="yes"/>
      <point x="401" y="58"/>
      <point x="411" y="66"/>
      <point x="411" y="85" type="curve" smooth="yes"/>
      <point x="411" y="104"/>
      <point x="401" y="114"/>
      <point x="383" y="114" type="curve" smooth="yes"/>
      <point x="362" y="114"/>
      <point x="353" y="104"/>
      <point x="353" y="85" type="curve" smooth="yes"/>
      <point x="353" y="66"/>
      <point x="362" y="58"/>
    </contour>
    <contour>
      <point x="455" y="104" type="curve" smooth="yes"/>
      <point x="474" y="104"/>
      <point x="482" y="115"/>
      <point x="482" y="133" type="curve" smooth="yes"/>
      <point x="482" y="152"/>
      <point x="474" y="163"/>
      <point x="455" y="163" type="curve" smooth="yes"/>
      <point x="436" y="163"/>
      <point x="426" y="152"/>
      <point x="426" y="133" type="curve" smooth="yes"/>
      <point x="426" y="115"/>
      <point x="436" y="104"/>
    </contour>
    <contour>
      <point x="140" y="419" type="curve" smooth="yes"/>
      <point x="160" y="419"/>
      <point x="169" y="430"/>
      <point x="169" y="448" type="curve" smooth="yes"/>
      <point x="169" y="467"/>
      <point x="160" y="478"/>
      <point x="140" y="478" type="curve" smooth="yes"/>
      <point x="122" y="478"/>
      <point x="111" y="467"/>
      <point x="111" y="447" type="curve" smooth="yes"/>
      <point x="111" y="429"/>
      <point x="122" y="419"/>
    </contour>
    <contour>
      <point x="212" y="468" type="curve" smooth="yes"/>
      <point x="231" y="468"/>
      <point x="241" y="478"/>
      <point x="241" y="496" type="curve" smooth="yes"/>
      <point x="241" y="516"/>
      <point x="231" y="525"/>
      <point x="212" y="525" type="curve" smooth="yes"/>
      <point x="193" y="525"/>
      <point x="184" y="516"/>
      <point x="184" y="496" type="curve" smooth="yes"/>
      <point x="184" y="478"/>
      <point x="193" y="468"/>
    </contour>
    <contour>
      <point x="502" y="178" type="curve" smooth="yes"/>
      <point x="521" y="178"/>
      <point x="531" y="188"/>
      <point x="531" y="206" type="curve" smooth="yes"/>
      <point x="531" y="226"/>
      <point x="521" y="235"/>
      <point x="502" y="235" type="curve" smooth="yes"/>
      <point x="483" y="235"/>
      <point x="474" y="226"/>
      <point x="474" y="206" type="curve" smooth="yes"/>
      <point x="474" y="188"/>
      <point x="483" y="178"/>
    </contour>
    <contour>
      <point x="297" y="484" type="curve" smooth="yes"/>
      <point x="315" y="484"/>
      <point x="326" y="495"/>
      <point x="326" y="514" type="curve" smooth="yes"/>
      <point x="326" y="532"/>
      <point x="315" y="542"/>
      <point x="297" y="542" type="curve" smooth="yes"/>
      <point x="278" y="542"/>
      <point x="269" y="532"/>
      <point x="269" y="514" type="curve" smooth="yes"/>
      <point x="269" y="495"/>
      <point x="278" y="484"/>
    </contour>
    <contour>
      <point x="521" y="263" type="curve" smooth="yes"/>
      <point x="540" y="263"/>
      <point x="548" y="272"/>
      <point x="548" y="291" type="curve" smooth="yes"/>
      <point x="548" y="310"/>
      <point x="540" y="319"/>
      <point x="521" y="319" type="curve" smooth="yes"/>
      <point x="501" y="319"/>
      <point x="492" y="310"/>
      <point x="492" y="291" type="curve" smooth="yes"/>
      <point x="492" y="272"/>
      <point x="501" y="263"/>
    </contour>
    <contour>
      <point x="502" y="347" type="curve" smooth="yes"/>
      <point x="521" y="347"/>
      <point x="531" y="356"/>
      <point x="531" y="376" type="curve" smooth="yes"/>
      <point x="531" y="395"/>
      <point x="521" y="404"/>
      <point x="503" y="404" type="curve" smooth="yes"/>
      <point x="483" y="404"/>
      <point x="474" y="395"/>
      <point x="474" y="376" type="curve" smooth="yes"/>
      <point x="474" y="356"/>
      <point x="483" y="347"/>
    </contour>
    <contour>
      <point x="455" y="419" type="curve" smooth="yes"/>
      <point x="474" y="419"/>
      <point x="482" y="430"/>
      <point x="482" y="448" type="curve" smooth="yes"/>
      <point x="482" y="467"/>
      <point x="474" y="478"/>
      <point x="455" y="478" type="curve" smooth="yes"/>
      <point x="436" y="478"/>
      <point x="426" y="467"/>
      <point x="426" y="448" type="curve" smooth="yes"/>
      <point x="426" y="430"/>
      <point x="436" y="419"/>
    </contour>
  </outline>
</glyph>
<glyph name="candrabinduhalant-deva" format="2">
  <advance width="531"/>
  <unicode hex="A8F3"/>
  <note>
uniA8F3
</note>
  <outline>
    <contour>
      <point x="275" y="287" type="curve" smooth="yes"/>
      <point x="405" y="287"/>
      <point x="500" y="375"/>
      <point x="554" y="525" type="curve"/>
      <point x="437" y="554" type="line"/>
      <point x="405" y="455"/>
      <point x="356" y="400"/>
      <point x="277" y="400" type="curve" smooth="yes"/>
      <point x="224" y="400"/>
      <point x="173" y="437"/>
      <point x="172" y="549" type="curve"/>
      <point x="89" y="531" type="line"/>
      <point x="91" y="382"/>
      <point x="140" y="287"/>
    </contour>
    <contour>
      <point x="288" y="469" type="curve" smooth="yes"/>
      <point x="340" y="469"/>
      <point x="370" y="498"/>
      <point x="370" y="550" type="curve" smooth="yes"/>
      <point x="370" y="585"/>
      <point x="343" y="604"/>
      <point x="309" y="604" type="curve" smooth="yes"/>
      <point x="254" y="604"/>
      <point x="228" y="574"/>
      <point x="228" y="522" type="curve" smooth="yes"/>
      <point x="228" y="488"/>
      <point x="256" y="469"/>
    </contour>
    <contour>
      <point x="356" y="-25" type="curve"/>
      <point x="435" y="13" type="line"/>
      <point x="355" y="190"/>
      <point x="328" y="241"/>
      <point x="203" y="241" type="curve" smooth="yes"/>
      <point x="170" y="241"/>
      <point x="139" y="231"/>
      <point x="117" y="225" type="curve"/>
      <point x="140" y="99" type="line"/>
      <point x="167" y="108"/>
      <point x="188" y="115"/>
      <point x="217" y="115" type="curve" smooth="yes"/>
      <point x="285" y="115"/>
      <point x="306" y="82"/>
    </contour>
  </outline>
</glyph>
<glyph name="u11301" format="2">
  <unicode hex="11301"/>
  <anchor x="65" y="584" name="_vedic"/>
  <outline>
    <contour>
      <point x="170" y="968" type="curve" smooth="yes"/>
      <point x="301" y="968"/>
      <point x="389" y="1020"/>
      <point x="389" y="1118" type="curve" smooth="yes"/>
      <point x="389" y="1149"/>
      <point x="378" y="1176"/>
      <point x="340" y="1176" type="curve" smooth="yes"/>
      <point x="334" y="1176"/>
      <point x="317" y="1174"/>
      <point x="311" y="1171" type="curve"/>
      <point x="313" y="1166"/>
      <point x="313" y="1159"/>
      <point x="313" y="1149" type="curve" smooth="yes"/>
      <point x="313" y="1074"/>
      <point x="266" y="1041"/>
      <point x="176" y="1041" type="curve" smooth="yes"/>
      <point x="121" y="1041"/>
      <point x="83" y="1059"/>
      <point x="83" y="1105" type="curve" smooth="yes"/>
      <point x="83" y="1127"/>
      <point x="95" y="1153"/>
      <point x="106" y="1172" type="curve"/>
      <point x="99" y="1175"/>
      <point x="83" y="1178"/>
      <point x="68" y="1178" type="curve" smooth="yes"/>
      <point x="2" y="1178"/>
      <point x="-41" y="1134"/>
      <point x="-41" y="1074" type="curve" smooth="yes"/>
      <point x="-41" y="1017"/>
      <point x="11" y="968"/>
    </contour>
    <contour>
      <point x="196" y="1069" type="curve" smooth="yes"/>
      <point x="246" y="1069"/>
      <point x="263" y="1091"/>
      <point x="263" y="1122" type="curve" smooth="yes"/>
      <point x="263" y="1154"/>
      <point x="247" y="1178"/>
      <point x="196" y="1178" type="curve" smooth="yes"/>
      <point x="147" y="1178"/>
      <point x="130" y="1154"/>
      <point x="130" y="1125" type="curve" smooth="yes"/>
      <point x="130" y="1091"/>
      <point x="149" y="1069"/>
    </contour>
  </outline>
</glyph>
<glyph name="visarga-grantha" format="2">
  <advance width="309"/>
  <unicode hex="11303"/>
  <outline>
    <contour>
      <point x="129" y="-4" type="curve" smooth="yes"/>
      <point x="211" y="-4"/>
      <point x="277" y="49"/>
      <point x="277" y="138" type="curve" smooth="yes"/>
      <point x="277" y="226"/>
      <point x="211" y="279"/>
      <point x="129" y="279" type="curve" smooth="yes"/>
      <point x="48" y="279"/>
      <point x="-18" y="226"/>
      <point x="-18" y="138" type="curve" smooth="yes"/>
      <point x="-18" y="49"/>
      <point x="48" y="-4"/>
    </contour>
    <contour>
      <point x="129" y="85" type="curve" smooth="yes"/>
      <point x="97" y="85"/>
      <point x="78" y="107"/>
      <point x="78" y="137" type="curve" smooth="yes"/>
      <point x="78" y="168"/>
      <point x="97" y="189"/>
      <point x="129" y="189" type="curve" smooth="yes"/>
      <point x="162" y="189"/>
      <point x="180" y="168"/>
      <point x="180" y="137" type="curve" smooth="yes"/>
      <point x="180" y="107"/>
      <point x="162" y="85"/>
    </contour>
    <contour>
      <point x="195" y="305" type="curve" smooth="yes"/>
      <point x="277" y="305"/>
      <point x="343" y="358"/>
      <point x="343" y="447" type="curve" smooth="yes"/>
      <point x="343" y="535"/>
      <point x="277" y="588"/>
      <point x="195" y="588" type="curve" smooth="yes"/>
      <point x="114" y="588"/>
      <point x="48" y="535"/>
      <point x="48" y="447" type="curve" smooth="yes"/>
      <point x="48" y="358"/>
      <point x="114" y="305"/>
    </contour>
    <contour>
      <point x="195" y="395" type="curve" smooth="yes"/>
      <point x="164" y="395"/>
      <point x="144" y="416"/>
      <point x="144" y="447" type="curve" smooth="yes"/>
      <point x="144" y="477"/>
      <point x="164" y="499"/>
      <point x="195" y="499" type="curve" smooth="yes"/>
      <point x="227" y="499"/>
      <point x="246" y="477"/>
      <point x="246" y="447" type="curve" smooth="yes"/>
      <point x="246" y="416"/>
      <point x="227" y="395"/>
    </contour>
  </outline>
</glyph>
<glyph name="u1133B" format="2">
  <unicode hex="1133B"/>
  <anchor x="-59" y="0" name="_nukta"/>
  <outline>
    <contour>
      <point x="-96" y="-264" type="curve" smooth="yes"/>
      <point x="-40" y="-264"/>
      <point x="8" y="-219"/>
      <point x="8" y="-164" type="curve" smooth="yes"/>
      <point x="8" y="-110"/>
      <point x="-39" y="-64"/>
      <point x="-95" y="-64" type="curve" smooth="yes"/>
      <point x="-152" y="-64"/>
      <point x="-199" y="-110"/>
      <point x="-199" y="-164" type="curve" smooth="yes"/>
      <point x="-199" y="-219"/>
      <point x="-153" y="-264"/>
    </contour>
  </outline>
</glyph>
<glyph name="nukta-grantha" format="2">
  <unicode hex="1133C"/>
  <anchor x="-59" y="0" name="_nukta"/>
  <outline>
    <contour>
      <point x="-259" y="-264" type="curve" smooth="yes"/>
      <point x="-203" y="-264"/>
      <point x="-155" y="-219"/>
      <point x="-155" y="-164" type="curve" smooth="yes"/>
      <point x="-155" y="-110"/>
      <point x="-202" y="-64"/>
      <point x="-258" y="-64" type="curve" smooth="yes"/>
      <point x="-315" y="-64"/>
      <point x="-362" y="-110"/>
      <point x="-362" y="-164" type="curve" smooth="yes"/>
      <point x="-362" y="-219"/>
      <point x="-316" y="-264"/>
    </contour>
    <contour>
      <point x="59" y="-264" type="curve" smooth="yes"/>
      <point x="115" y="-264"/>
      <point x="163" y="-219"/>
      <point x="163" y="-164" type="curve" smooth="yes"/>
      <point x="163" y="-110"/>
      <point x="116" y="-64"/>
      <point x="60" y="-64" type="curve" smooth="yes"/>
      <point x="3" y="-64"/>
      <point x="-44" y="-110"/>
      <point x="-44" y="-164" type="curve" smooth="yes"/>
      <point x="-44" y="-219"/>
      <point x="2" y="-264"/>
    </contour>
  </outline>
</glyph>
<glyph name="cii-tamil" format="2">
  <advance width="812"/>
  <note>
uni0B9A
</note>
  <anchor x="360" y="0" name="bottom"/>
  <anchor x="364" y="0" name="nukta"/>
  <anchor x="737" y="945" name="top"/>
  <anchor x="465" y="584" name="vedic"/>
  <outline>
    <contour>
      <point x="283" y="-4" type="curve" smooth="yes"/>
      <point x="471" y="-4"/>
      <point x="551" y="83"/>
      <point x="586" y="227" type="curve" smooth="yes"/>
      <point x="597" y="272" type="line"/>
      <point x="750" y="272" type="line"/>
      <point x="764" y="348" type="line"/>
      <point x="613" y="348" type="line"/>
      <point x="647" y="508" type="line"/>
      <point x="801" y="508" type="line"/>
      <point x="817" y="584" type="line"/>
      <point x="230" y="584" type="line"/>
      <point x="172" y="310" type="line"/>
      <point x="255" y="310" type="line"/>
      <point x="297" y="508" type="line"/>
      <point x="432" y="508" type="line"/>
      <point x="398" y="348" type="line"/>
      <point x="262" y="348" type="line" smooth="yes"/>
      <point x="134" y="348"/>
      <point x="40" y="280"/>
      <point x="40" y="164" type="curve" smooth="yes"/>
      <point x="40" y="68"/>
      <point x="117" y="-4"/>
    </contour>
    <contour>
      <point x="227" y="83" type="curve" smooth="yes"/>
      <point x="167" y="83"/>
      <point x="119" y="115"/>
      <point x="119" y="174" type="curve" smooth="yes"/>
      <point x="119" y="239"/>
      <point x="166" y="272"/>
      <point x="254" y="272" type="curve" smooth="yes"/>
      <point x="382" y="272" type="line"/>
      <point x="372" y="226" type="line" smooth="yes"/>
      <point x="350" y="126"/>
      <point x="311" y="83"/>
    </contour>
    <component base="iiMatra-tamil" xOffset="620"/>
  </outline>
</glyph>
<glyph name="cu-tamil" format="2">
  <advance width="1011"/>
  <note>
g106
</note>
  <anchor x="462" y="0" name="bottom"/>
  <anchor x="462" y="0" name="nukta"/>
  <anchor x="578" y="584" name="top"/>
  <anchor x="613" y="584" name="vedic"/>
  <outline>
    <contour>
      <point x="283" y="-4" type="curve" smooth="yes"/>
      <point x="471" y="-4"/>
      <point x="551" y="83"/>
      <point x="586" y="227" type="curve" smooth="yes"/>
      <point x="597" y="272" type="line"/>
      <point x="711" y="272" type="line"/>
      <point x="654" y="0" type="line"/>
      <point x="831" y="0" type="line"/>
      <point x="889" y="272" type="line"/>
      <point x="996" y="272" type="line"/>
      <point x="1010" y="348" type="line"/>
      <point x="613" y="348" type="line"/>
      <point x="647" y="508" type="line"/>
      <point x="801" y="508" type="line"/>
      <point x="817" y="584" type="line"/>
      <point x="230" y="584" type="line"/>
      <point x="172" y="310" type="line"/>
      <point x="255" y="310" type="line"/>
      <point x="297" y="508" type="line"/>
      <point x="432" y="508" type="line"/>
      <point x="398" y="348" type="line"/>
      <point x="262" y="348" type="line" smooth="yes"/>
      <point x="134" y="348"/>
      <point x="40" y="280"/>
      <point x="40" y="164" type="curve" smooth="yes"/>
      <point x="40" y="68"/>
      <point x="117" y="-4"/>
    </contour>
    <contour>
      <point x="227" y="83" type="curve" smooth="yes"/>
      <point x="167" y="83"/>
      <point x="119" y="115"/>
      <point x="119" y="174" type="curve" smooth="yes"/>
      <point x="119" y="239"/>
      <point x="166" y="272"/>
      <point x="254" y="272" type="curve" smooth="yes"/>
      <point x="382" y="272" type="line"/>
      <point x="372" y="226" type="line" smooth="yes"/>
      <point x="350" y="126"/>
      <point x="311" y="83"/>
    </contour>
  </outline>
</glyph>
<glyph name="cuu-tamil" format="2">
  <advance width="1402"/>
  <note>
g107
</note>
  <anchor x="672" y="0" name="bottom"/>
  <anchor x="630" y="-335" name="nukta"/>
  <anchor x="797" y="584" name="top"/>
  <anchor x="822" y="584" name="vedic"/>
  <outline>
    <contour>
      <point x="494" y="-4" type="curve" smooth="yes"/>
      <point x="682" y="-4"/>
      <point x="762" y="83"/>
      <point x="797" y="227" type="curve" smooth="yes"/>
      <point x="808" y="272" type="line"/>
      <point x="1188" y="272" type="line"/>
      <point x="1204" y="348" type="line"/>
      <point x="824" y="348" type="line"/>
      <point x="858" y="508" type="line"/>
      <point x="1012" y="508" type="line"/>
      <point x="1028" y="584" type="line"/>
      <point x="441" y="584" type="line"/>
      <point x="383" y="310" type="line"/>
      <point x="466" y="310" type="line"/>
      <point x="508" y="508" type="line"/>
      <point x="643" y="508" type="line"/>
      <point x="609" y="348" type="line"/>
      <point x="473" y="348" type="line" smooth="yes"/>
      <point x="345" y="348"/>
      <point x="251" y="280"/>
      <point x="251" y="164" type="curve" smooth="yes"/>
      <point x="251" y="68"/>
      <point x="328" y="-4"/>
    </contour>
    <contour>
      <point x="438" y="83" type="curve" smooth="yes"/>
      <point x="378" y="83"/>
      <point x="330" y="115"/>
      <point x="330" y="174" type="curve" smooth="yes"/>
      <point x="330" y="239"/>
      <point x="377" y="272"/>
      <point x="465" y="272" type="curve" smooth="yes"/>
      <point x="593" y="272" type="line"/>
      <point x="583" y="226" type="line" smooth="yes"/>
      <point x="561" y="126"/>
      <point x="522" y="83"/>
    </contour>
    <contour>
      <point x="867" y="0" type="line"/>
      <point x="1046" y="0" type="line"/>
      <point x="1109" y="297" type="line"/>
      <point x="931" y="297" type="line"/>
    </contour>
    <contour>
      <point x="630" y="-335" type="curve" smooth="yes"/>
      <point x="951" y="-335"/>
      <point x="1310" y="-197"/>
      <point x="1310" y="77" type="curve" smooth="yes"/>
      <point x="1310" y="164"/>
      <point x="1258" y="208"/>
      <point x="1188" y="208" type="curve" smooth="yes"/>
      <point x="1105" y="208"/>
      <point x="1045" y="136"/>
      <point x="1026" y="49" type="curve" smooth="yes"/>
      <point x="1023" y="35" type="line"/>
      <point x="1053" y="35" type="line"/>
      <point x="1056" y="49" type="line" smooth="yes"/>
      <point x="1066" y="95"/>
      <point x="1088" y="113"/>
      <point x="1115" y="113" type="curve" smooth="yes"/>
      <point x="1144" y="113"/>
      <point x="1157" y="93"/>
      <point x="1157" y="63" type="curve" smooth="yes"/>
      <point x="1157" y="-152"/>
      <point x="874" y="-252"/>
      <point x="617" y="-252" type="curve" smooth="yes"/>
      <point x="337" y="-252"/>
      <point x="107" y="-115"/>
      <point x="107" y="127" type="curve" smooth="yes"/>
      <point x="107" y="269"/>
      <point x="168" y="364"/>
      <point x="293" y="487" type="curve"/>
      <point x="236" y="539" type="line"/>
      <point x="98" y="404"/>
      <point x="16" y="290"/>
      <point x="16" y="113" type="curve" smooth="yes"/>
      <point x="16" y="-165"/>
      <point x="288" y="-335"/>
    </contour>
  </outline>
</glyph>
<glyph name="iMatra-tamil.alt01" format="2">
  <advance width="208"/>
  <note>
uni0BBF
</note>
  <outline>
    <contour>
      <point x="-10" y="0" type="line"/>
      <point x="75" y="0" type="line"/>
      <point x="204" y="594" type="line" smooth="yes"/>
      <point x="210" y="620"/>
      <point x="212" y="645"/>
      <point x="212" y="668" type="curve" smooth="yes"/>
      <point x="212" y="808"/>
      <point x="119" y="910"/>
      <point x="-40" y="910" type="curve" smooth="yes"/>
      <point x="-195" y="910"/>
      <point x="-297" y="811"/>
      <point x="-297" y="674" type="curve" smooth="yes"/>
      <point x="-297" y="601"/>
      <point x="-267" y="560"/>
      <point x="-214" y="520" type="curve"/>
      <point x="-149" y="550" type="line"/>
      <point x="-178" y="571"/>
      <point x="-196" y="596"/>
      <point x="-196" y="630" type="curve" smooth="yes"/>
      <point x="-196" y="702"/>
      <point x="-146" y="756"/>
      <point x="-48" y="756" type="curve" smooth="yes"/>
      <point x="53" y="756"/>
      <point x="116" y="705"/>
      <point x="116" y="615" type="curve" smooth="yes"/>
      <point x="116" y="599"/>
      <point x="114" y="583"/>
      <point x="110" y="565" type="curve" smooth="yes"/>
    </contour>
  </outline>
</glyph>
<glyph name="iMatra-tamil.alt02" format="2">
  <advance width="235"/>
  <note>
uni0BBF
</note>
  <outline>
    <contour>
      <point x="20" y="0" type="line"/>
      <point x="105" y="0" type="line"/>
      <point x="213" y="508" type="line" smooth="yes"/>
      <point x="220" y="539"/>
      <point x="223" y="569"/>
      <point x="223" y="598" type="curve" smooth="yes"/>
      <point x="223" y="781"/>
      <point x="91" y="910"/>
      <point x="-140" y="910" type="curve" smooth="yes"/>
      <point x="-345" y="910"/>
      <point x="-489" y="786"/>
      <point x="-489" y="635" type="curve" smooth="yes"/>
      <point x="-489" y="573"/>
      <point x="-463" y="527"/>
      <point x="-426" y="486" type="curve"/>
      <point x="-369" y="527" type="line"/>
      <point x="-385" y="551"/>
      <point x="-393" y="571"/>
      <point x="-393" y="606" type="curve" smooth="yes"/>
      <point x="-393" y="697"/>
      <point x="-300" y="756"/>
      <point x="-161" y="756" type="curve" smooth="yes"/>
      <point x="0" y="756"/>
      <point x="127" y="680"/>
      <point x="127" y="533" type="curve" smooth="yes"/>
      <point x="127" y="514"/>
      <point x="125" y="493"/>
      <point x="120" y="471" type="curve" smooth="yes"/>
    </contour>
  </outline>
</glyph>
<glyph name="iiMatra-tamil.alt01" format="2">
  <note>
uni0BC0
</note>
  <anchor x="-7" y="945" name="top"/>
  <outline>
    <contour>
      <point x="-200" y="509" type="curve"/>
      <point x="-156" y="554" type="line"/>
      <point x="-198" y="595"/>
      <point x="-210" y="641"/>
      <point x="-210" y="698" type="curve" smooth="yes"/>
      <point x="-210" y="789"/>
      <point x="-130" y="862"/>
      <point x="-25" y="862" type="curve" smooth="yes"/>
      <point x="32" y="862"/>
      <point x="68" y="837"/>
      <point x="68" y="792" type="curve" smooth="yes"/>
      <point x="68" y="747"/>
      <point x="39" y="716"/>
      <point x="-7" y="716" type="curve" smooth="yes"/>
      <point x="-85" y="716"/>
      <point x="-74" y="815"/>
      <point x="-22" y="888" type="curve"/>
      <point x="-77" y="893" type="line"/>
      <point x="-189" y="767"/>
      <point x="-144" y="616"/>
      <point x="24" y="616" type="curve" smooth="yes"/>
      <point x="124" y="616"/>
      <point x="221" y="676"/>
      <point x="221" y="784" type="curve" smooth="yes"/>
      <point x="221" y="895"/>
      <point x="119" y="945"/>
      <point x="-7" y="945" type="curve" smooth="yes"/>
      <point x="-165" y="945"/>
      <point x="-295" y="845"/>
      <point x="-295" y="695" type="curve" smooth="yes"/>
      <point x="-295" y="612"/>
      <point x="-264" y="556"/>
    </contour>
  </outline>
</glyph>
<glyph name="iiMatra-tamil.alt02" format="2">
  <note>
uni0BC0
</note>
  <outline>
    <contour>
      <point x="-456" y="509" type="curve"/>
      <point x="-415" y="554" type="line"/>
      <point x="-457" y="595"/>
      <point x="-472" y="641"/>
      <point x="-472" y="698" type="curve" smooth="yes"/>
      <point x="-472" y="789"/>
      <point x="-393" y="862"/>
      <point x="-288" y="862" type="curve" smooth="yes"/>
      <point x="-231" y="862"/>
      <point x="-195" y="831"/>
      <point x="-195" y="786" type="curve" smooth="yes"/>
      <point x="-195" y="741"/>
      <point x="-224" y="716"/>
      <point x="-270" y="716" type="curve" smooth="yes"/>
      <point x="-310" y="716"/>
      <point x="-326" y="742"/>
      <point x="-326" y="776" type="curve" smooth="yes"/>
      <point x="-326" y="810"/>
      <point x="-311" y="852"/>
      <point x="-285" y="888" type="curve"/>
      <point x="-340" y="893" type="line"/>
      <point x="-381" y="847"/>
      <point x="-400" y="798"/>
      <point x="-400" y="754" type="curve" smooth="yes"/>
      <point x="-400" y="677"/>
      <point x="-340" y="616"/>
      <point x="-231" y="616" type="curve" smooth="yes"/>
      <point x="-134" y="616"/>
      <point x="-42" y="670"/>
      <point x="-42" y="778" type="curve" smooth="yes"/>
      <point x="-42" y="889"/>
      <point x="-142" y="945"/>
      <point x="-269" y="945" type="curve" smooth="yes"/>
      <point x="-429" y="945"/>
      <point x="-557" y="838"/>
      <point x="-557" y="699" type="curve" smooth="yes"/>
      <point x="-557" y="617"/>
      <point x="-516" y="554"/>
    </contour>
  </outline>
</glyph>
<glyph name="jii-tamil" format="2">
  <advance width="1109"/>
  <note>
uni0B9C
</note>
  <anchor x="501" y="0" name="bottom"/>
  <anchor x="416" y="-335" name="nukta"/>
  <anchor x="1138" y="945" name="top"/>
  <anchor x="618" y="584" name="vedic"/>
  <outline>
    <contour>
      <point x="167" y="-335" type="curve" smooth="yes"/>
      <point x="401" y="-335"/>
      <point x="494" y="-34"/>
      <point x="678" y="-34" type="curve" smooth="yes"/>
      <point x="748" y="-34"/>
      <point x="777" y="-68"/>
      <point x="777" y="-130" type="curve" smooth="yes"/>
      <point x="777" y="-207"/>
      <point x="717" y="-247"/>
      <point x="647" y="-247" type="curve" smooth="yes"/>
      <point x="611" y="-247"/>
      <point x="577" y="-235"/>
      <point x="548" y="-215" type="curve"/>
      <point x="499" y="-279" type="line"/>
      <point x="550" y="-319"/>
      <point x="614" y="-335"/>
      <point x="692" y="-335" type="curve" smooth="yes"/>
      <point x="847" y="-335"/>
      <point x="973" y="-261"/>
      <point x="973" y="-113" type="curve" smooth="yes"/>
      <point x="973" y="-1"/>
      <point x="887" y="55"/>
      <point x="767" y="56" type="curve" smooth="yes"/>
      <point x="480" y="59"/>
      <point x="394" y="-238"/>
      <point x="238" y="-238" type="curve" smooth="yes"/>
      <point x="175" y="-238"/>
      <point x="153" y="-191"/>
      <point x="153" y="-124" type="curve" smooth="yes"/>
      <point x="153" y="19"/>
      <point x="309" y="58"/>
      <point x="546" y="78" type="curve" smooth="yes"/>
      <point x="832" y="102"/>
      <point x="1075" y="159"/>
      <point x="1075" y="394" type="curve" smooth="yes"/>
      <point x="1075" y="511"/>
      <point x="994" y="589"/>
      <point x="848" y="589" type="curve" smooth="yes"/>
      <point x="746" y="589"/>
      <point x="654" y="552"/>
      <point x="604" y="458" type="curve"/>
      <point x="581" y="548"/>
      <point x="491" y="589"/>
      <point x="375" y="589" type="curve" smooth="yes"/>
      <point x="195" y="589"/>
      <point x="61" y="482"/>
      <point x="61" y="322" type="curve" smooth="yes"/>
      <point x="61" y="227"/>
      <point x="130" y="149"/>
      <point x="240" y="149" type="curve" smooth="yes"/>
      <point x="340" y="149"/>
      <point x="424" y="200"/>
      <point x="424" y="300" type="curve" smooth="yes"/>
      <point x="424" y="368"/>
      <point x="376" y="409"/>
      <point x="301" y="409" type="curve" smooth="yes"/>
      <point x="210" y="409"/>
      <point x="140" y="347"/>
      <point x="109" y="226" type="curve"/>
      <point x="150" y="210" type="line"/>
      <point x="181" y="304"/>
      <point x="214" y="328"/>
      <point x="247" y="328" type="curve" smooth="yes"/>
      <point x="274" y="328"/>
      <point x="290" y="309"/>
      <point x="290" y="286" type="curve" smooth="yes"/>
      <point x="290" y="252"/>
      <point x="268" y="229"/>
      <point x="229" y="229" type="curve" smooth="yes"/>
      <point x="178" y="229"/>
      <point x="145" y="277"/>
      <point x="145" y="336" type="curve" smooth="yes"/>
      <point x="145" y="444"/>
      <point x="249" y="510"/>
      <point x="363" y="510" type="curve" smooth="yes"/>
      <point x="468" y="510"/>
      <point x="517" y="447"/>
      <point x="495" y="349" type="curve" smooth="yes"/>
      <point x="463" y="203" type="line"/>
      <point x="631" y="203" type="line"/>
      <point x="669" y="387" type="line" smooth="yes"/>
      <point x="685" y="465"/>
      <point x="730" y="507"/>
      <point x="789" y="507" type="curve" smooth="yes"/>
      <point x="852" y="507"/>
      <point x="880" y="466"/>
      <point x="880" y="399" type="curve" smooth="yes"/>
      <point x="880" y="187"/>
      <point x="734" y="150"/>
      <point x="437" y="123" type="curve" smooth="yes"/>
      <point x="159" y="98"/>
      <point x="-42" y="30"/>
      <point x="-42" y="-142" type="curve" smooth="yes"/>
      <point x="-42" y="-258"/>
      <point x="28" y="-335"/>
    </contour>
    <component base="iiMatra-tamil.alt01" xOffset="1145"/>
  </outline>
</glyph>
